<?xml version="1.0" encoding="iso-8859-1"?>
<!-- Generator: Adobe Illustrator 18.0.0, SVG Export Plug-In . SVG Version: 6.00 Build 0)  -->
<!DOCTYPE svg PUBLIC "-//W3C//DTD SVG 1.1//EN" "http://www.w3.org/Graphics/SVG/1.1/DTD/svg11.dtd">
<svg version="1.1" id="Capa_1" xmlns="http://www.w3.org/2000/svg" xmlns:xlink="http://www.w3.org/1999/xlink" x="0px" y="0px"
	 viewBox="0 0 464.83 464.83" style="enable-background:new 0 0 464.83 464.83;" xml:space="preserve">
<g>
	<path d="M369.503,193.589c-1.169-1.027-2.825-1.287-4.251-0.661c-1.425,0.625-2.357,2.02-2.392,3.575
		c-0.65,29.599-30.356,83.995-30.656,84.541c-0.729,1.329-0.643,2.955,0.22,4.202c0.862,1.245,2.354,1.896,3.859,1.684
		c0.055-0.009,4.451-0.618,11.048-0.148c-9.688,20.675-23.435,38.642-39.987,52.2c-9.289,7.609-19.384,13.738-29.971,18.276
		l-25.229-236.166c0.483-1.382,0.912-2.827,1.295-4.318c24.933-0.547,47.722-2.074,64.444-4.33
		c25.344-3.419,30.537-7.447,30.537-12.443c0-4.997-5.205-9.025-30.606-12.446c-12.115-1.631-27.394-2.881-44.356-3.654
		c7.034-9.064,10.962-20.291,10.962-31.9c0-28.673-23.327-52-52-52s-52,23.327-52,52c0,11.614,3.926,22.841,10.958,31.9
		c-16.963,0.773-32.242,2.023-44.355,3.654C121.624,90.975,116.42,95.003,116.42,100c0,4.996,5.192,9.024,30.534,12.443
		c16.719,2.256,39.505,3.783,64.437,4.33c0.383,1.49,0.812,2.934,1.294,4.316l-25.218,236.174
		c-10.593-4.539-20.693-10.67-29.985-18.282c-16.55-13.557-30.297-31.524-39.984-52.2c6.6-0.467,10.992,0.14,11.041,0.147
		c1.495,0.213,3-0.43,3.866-1.676c0.866-1.248,0.951-2.878,0.221-4.209c-0.301-0.546-30.007-54.942-30.657-84.541
		c-0.034-1.556-0.967-2.95-2.392-3.575c-1.427-0.626-3.083-0.366-4.251,0.661c-13.835,12.183-23.61,30.854-29.056,55.495
		c-5.064,22.917-5.65,47.437-5.65,63.887c0,1.763,1.153,3.317,2.84,3.828c1.687,0.512,3.508-0.142,4.487-1.607
		c4.429-6.637,9.753-12.199,15.877-16.597c10.154,53.231,45.423,98.149,93.192,118.126c21.52,8.998,39.962,25.373,51.929,46.108
		c0.715,1.238,2.045,2.001,3.475,2.001s2.752-0.764,3.466-2.003c5.933-10.293,13.406-19.492,22.215-27.341
		c8.897-7.929,18.895-14.242,29.713-18.766c47.771-19.981,83.04-64.898,93.192-118.126c6.124,4.397,11.448,9.96,15.877,16.597
		c0.979,1.466,2.8,2.12,4.487,1.607c1.687-0.511,2.84-2.065,2.84-3.828C404.21,274.842,400.612,220.982,369.503,193.589z M204.92,52
		c0-15.163,12.337-27.5,27.5-27.5c15.158,0,27.49,12.337,27.49,27.5c0,8.498-3.947,16.439-10.51,21.613
		C245.225,65.819,239.209,61,232.415,61c-6.793,0-12.808,4.817-16.983,12.609C208.867,68.443,204.92,60.503,204.92,52z M232.415,69
		c8.84,0,15,16.601,15,31.5c0,18.563-7.905,31.5-15,31.5c-8.84,0-15-16.601-15-31.5C217.415,81.937,225.32,69,232.415,69z
		 M222.319,136.128c3.032,2.486,6.452,3.872,10.096,3.872c3.643,0,7.062-1.386,10.095-3.871V389.91c0,5.563-4.526,10.09-10.09,10.09
		c-2.698,0-5.234-1.051-7.142-2.959c-1.908-1.907-2.959-4.439-2.959-7.131V136.128z M250.51,181.113l19.137,179.142
		c-6.258,2.177-12.656,3.809-19.137,4.863V181.113z M338.548,100.002c-8.308,3.375-36.304,7.625-83.616,8.739
		c0.316-2.651,0.484-5.406,0.484-8.241c0-3.194-0.216-6.283-0.615-9.239C302.186,92.369,330.228,96.622,338.548,100.002z M188.42,52
		c0-24.262,19.738-44,44-44s44,19.738,44,44c0,11.851-4.834,23.235-13.297,31.497c-3.27-0.108-6.587-0.198-9.944-0.271
		c-0.19-0.687-0.395-1.359-0.607-2.022c9.53-6.595,15.338-17.489,15.338-29.204c0-19.575-15.921-35.5-35.49-35.5
		c-19.575,0-35.5,15.925-35.5,35.5c0,11.72,5.809,22.612,15.34,29.198c-0.213,0.665-0.418,1.339-0.609,2.028
		c-3.354,0.073-6.668,0.163-9.934,0.271C193.254,75.244,188.42,63.86,188.42,52z M126.292,100.002
		c8.317-3.38,36.358-7.632,83.738-8.741c-0.398,2.957-0.615,6.046-0.615,9.239c0,2.835,0.168,5.59,0.483,8.241
		C162.592,107.627,134.598,103.377,126.292,100.002z M214.319,181.141v183.977c-6.477-1.053-12.871-2.684-19.126-4.859
		L214.319,181.141z M380.097,288.49c-1.145-0.664-2.544-0.719-3.734-0.147c-1.193,0.571-2.026,1.694-2.227,3.002
		C366,344.463,331.74,389.676,284.727,409.34c-11.638,4.866-22.387,11.653-31.948,20.174c-7.81,6.959-14.641,14.905-20.367,23.686
		c-12.805-19.576-31.171-35.021-52.309-43.859c-47.012-19.66-81.271-64.873-89.408-117.995c-0.2-1.308-1.033-2.431-2.227-3.002
		c-1.19-0.571-2.589-0.517-3.734,0.147c-5.917,3.431-11.265,7.714-15.984,12.796c0.753-32.358,5.303-72.027,26.035-95.821
		c3.87,25.349,20.317,59.223,27.497,73.136c-3.059,0.007-6.911,0.204-11.262,0.842c-1.229,0.181-2.304,0.921-2.91,2.005
		c-0.606,1.083-0.676,2.387-0.187,3.528c10.257,23.939,25.642,44.754,44.489,60.194c18.349,15.031,39.685,24.673,61.907,28.039
		v16.702c0,4.829,1.884,9.37,5.302,12.788c3.418,3.419,7.963,5.302,12.799,5.302c9.975,0,18.09-8.115,18.09-18.09v-16.702
		c22.22-3.365,43.554-13.008,61.903-28.039c18.853-15.442,34.237-36.257,44.493-60.194c0.489-1.142,0.42-2.445-0.187-3.528
		c-0.606-1.084-1.682-1.824-2.91-2.005c-4.352-0.638-8.202-0.835-11.261-0.842c7.187-13.927,23.66-47.858,27.508-73.216
		c11.783,13.229,24.487,38.345,26.003,95.877C391.345,296.19,386.004,291.915,380.097,288.49z"/>
	<path d="M188.082,374c-7.72,0-14,6.28-14,14s6.28,14,14,14s14-6.28,14-14S195.802,374,188.082,374z M188.082,394
		c-3.309,0-6-2.691-6-6s2.691-6,6-6s6,2.691,6,6S191.391,394,188.082,394z"/>
	<path d="M144.275,352.074c-6.162,0-11.176,5.013-11.176,11.175s5.014,11.176,11.176,11.176s11.176-5.014,11.176-11.176
		S150.438,352.074,144.275,352.074z M144.275,366.425c-1.751,0-3.176-1.425-3.176-3.176s1.425-3.175,3.176-3.175
		s3.176,1.424,3.176,3.175S146.026,366.425,144.275,366.425z"/>
	<path d="M276.747,374c-7.72,0-14,6.28-14,14s6.28,14,14,14s14-6.28,14-14S284.467,374,276.747,374z M276.747,394
		c-3.309,0-6-2.691-6-6s2.691-6,6-6s6,2.691,6,6S280.056,394,276.747,394z"/>
	<path d="M320.554,352.074c-6.162,0-11.175,5.013-11.175,11.175s5.013,11.176,11.175,11.176s11.176-5.014,11.176-11.176
		S326.716,352.074,320.554,352.074z M320.554,366.425c-1.751,0-3.175-1.425-3.175-3.176s1.424-3.175,3.175-3.175
		s3.176,1.424,3.176,3.175S322.305,366.425,320.554,366.425z"/>
</g>
<g>
</g>
<g>
</g>
<g>
</g>
<g>
</g>
<g>
</g>
<g>
</g>
<g>
</g>
<g>
</g>
<g>
</g>
<g>
</g>
<g>
</g>
<g>
</g>
<g>
</g>
<g>
</g>
<g>
</g>
</svg>
