<?xml version="1.0" encoding="iso-8859-1"?>
<!-- Generator: Adobe Illustrator 18.0.0, SVG Export Plug-In . SVG Version: 6.00 Build 0)  -->
<!DOCTYPE svg PUBLIC "-//W3C//DTD SVG 1.1//EN" "http://www.w3.org/Graphics/SVG/1.1/DTD/svg11.dtd">
<svg version="1.1" id="Capa_1" xmlns="http://www.w3.org/2000/svg" xmlns:xlink="http://www.w3.org/1999/xlink" x="0px" y="0px"
	 viewBox="0 0 403.042 403.042" style="enable-background:new 0 0 403.042 403.042;" xml:space="preserve">
<path d="M387.986,341.772c-0.053-0.768-0.326-1.505-0.787-2.121c-4.521-6.041-8.76-12.401-12.599-18.905
	c-5.591-9.457-10.462-19.424-14.479-29.628c-16.396-41.523-19.058-88.147-7.493-131.282c0.413-1.54,0.893-3.234,1.465-5.177
	l15.899-53.688c0.34-1.146,0.148-2.384-0.52-3.374c-0.124-0.183-0.412-0.51-0.412-0.51c-19.059-20.172-42.119-35.924-67.605-46.377
	c4.016-3.716,6.963-8.519,8.405-13.896c4.175-15.572-5.098-31.637-20.668-35.811c-15.58-4.182-31.651,5.094-35.826,20.664
	c-1.44,5.37-1.293,10.998,0.321,16.219c-27.294-3.696-55.141-1.575-81.733,6.356c0,0-0.413,0.138-0.612,0.234
	c-1.074,0.523-1.858,1.499-2.138,2.661l-13.09,54.44c-10.904,45.307-37.002,86.198-73.488,115.145
	c-8.578,6.823-17.781,13.017-27.355,18.41c-6.623,3.736-13.47,7.125-20.351,10.071c-0.707,0.303-1.313,0.804-1.742,1.442
	l-19.895,29.512c-0.63,0.934-0.837,2.09-0.57,3.185c0.268,1.094,0.982,2.025,1.972,2.564
	c55.794,30.426,115.214,54.336,176.608,71.067c0.203,0.067,0.414,0.12,0.633,0.155c2.172,0.352,4.224-1.124,4.586-3.297
	c0.004-0.022,0.008-0.045,0.011-0.067l4.429-28.116l16.729,4.917l-0.543,29.708c-0.001,0.041-0.002,0.081-0.002,0.122v0.017
	c0,2.02,1.498,3.692,3.447,3.962c8.869,2.072,17.782,3.981,26.726,5.755c-1.018,7.139,0.357,14.365,4.017,20.704
	c4.325,7.493,11.312,12.855,19.676,15.098c2.8,0.751,5.613,1.109,8.384,1.109c14.304,0,27.43-9.559,31.305-24.015
	c0.249-0.926,0.444-1.866,0.608-2.81c24.923,2.923,49.984,4.714,75.046,5.334c0.033,0.001,0.065,0.001,0.099,0.001
	c1.09,0,2.135-0.445,2.89-1.234c0.778-0.813,1.179-1.917,1.101-3.041L387.986,341.772z M380.085,343.493l0.745,10.81
	c-52.273-1.991-104.468-9.068-155.271-21.06l0.453-24.751c0.012-0.627-0.124-1.247-0.396-1.812l-1.105-2.29
	c47.242,11.663,95.733,19.136,144.307,22.24C372.306,332.41,376.077,338.074,380.085,343.493z M364.017,318.291
	c-48.535-3.424-96.942-11.249-144.036-23.289l-11.152-23.115l0.669-1.949c2.356,0.659,4.719,1.311,7.071,1.942
	c44.741,11.996,90.833,20.216,137.038,24.462C356.654,303.824,360.138,311.175,364.017,318.291z M261.093,23.74
	c3.033-11.312,14.707-18.045,26.027-15.01c5.479,1.469,10.058,4.983,12.894,9.897c2.835,4.913,3.589,10.637,2.12,16.114
	c-1.416,5.276-4.831,9.781-9.461,12.61c-4.823-1.711-9.716-3.258-14.685-4.59c-4.979-1.335-9.997-2.461-15.041-3.393
	C260.367,34.609,259.682,29.005,261.093,23.74z M275.917,50.49c29.764,7.98,56.978,23.176,79.356,44.177
	c-29.246-3.351-58.382-8.886-86.771-16.496c-28.396-7.614-56.398-17.399-83.399-29.127C214.988,42.054,246.154,42.509,275.917,50.49
	z M175.852,53.711c29.224,13.079,59.671,23.898,90.579,32.186c30.899,8.284,62.671,14.146,94.518,17.44l-6.314,21.321
	c-31.59-3.601-63.136-9.584-93.82-17.811c-30.71-8.233-61.023-18.836-90.162-31.515L175.852,53.711z M163.892,103.45l4.862-20.219
	c29.104,12.59,59.352,23.13,89.989,31.344c30.612,8.208,62.072,14.211,93.585,17.873l-5.906,19.944
	c-0.593,2.011-1.09,3.768-1.52,5.371c-11.448,42.699-9.459,88.688,5.506,130.24c-44.436-4.303-88.733-12.314-131.767-23.852
	c-2.176-0.583-4.361-1.185-6.541-1.793l6.126-17.838c0.273-0.798,0.289-1.661,0.042-2.468l-8.354-27.327l25.396-86.706
	c0.572-1.953-0.414-4.024-2.291-4.813c-1.877-0.787-4.047-0.04-5.04,1.737l-46.053,82.405c-0.434,0.775-0.597,1.673-0.464,2.551
	l5.343,35.241l-3.515,8.644c-30.768-9.771-61.217-21.5-90.676-34.914C127.864,189.121,153.078,148.382,163.892,103.45z
	 M85.665,224.497c30.681,14.154,62.471,26.487,94.603,36.719l-2.633,6.474c-0.403,0.99-0.393,2.102,0.029,3.084l6.025,14.04
	c-40.406-12.379-80.038-28-118.029-46.511C72.584,234.079,79.282,229.455,85.665,224.497z M39.158,252.089
	c6.139-2.67,12.234-5.69,18.177-8.966c41.843,20.733,85.716,37.977,130.471,51.284l6.832,15.921l-2.26,14.346
	c-55.145-15.5-108.682-36.88-159.274-63.602L39.158,252.089z M22.381,276.979l6.224-9.234
	c51.593,27.322,106.23,49.137,162.518,64.888l-1.812,11.5C131.381,328.017,75.263,305.443,22.381,276.979z M202.208,313.68
	l0.511-3.247c0.117-0.744,0.021-1.507-0.275-2.199l-16.769-39.077l8.956-22.021c0.271-0.667,0.357-1.395,0.25-2.106l-5.303-34.975
	l28.089-50.261l-15.767,53.831c-0.22,0.749-0.215,1.547,0.014,2.293l8.323,27.231l-9.51,27.694
	c-0.342,0.996-0.277,2.088,0.181,3.037l17.088,35.418l-0.164,8.974L202.208,313.68z M302.963,376.954
	c-1.688,6.3-5.727,11.563-11.37,14.819c-5.643,3.258-12.221,4.122-18.52,2.433c-11.885-3.187-19.367-14.671-17.896-26.554
	c15.967,3.005,32.034,5.549,48.169,7.601C303.237,375.824,303.114,376.393,302.963,376.954z M225.194,353.233l0.216-11.808
	c51.052,11.934,103.477,18.963,155.974,20.907l0.766,11.102C329.351,371.839,276.592,365.049,225.194,353.233z"/>
<g>
</g>
<g>
</g>
<g>
</g>
<g>
</g>
<g>
</g>
<g>
</g>
<g>
</g>
<g>
</g>
<g>
</g>
<g>
</g>
<g>
</g>
<g>
</g>
<g>
</g>
<g>
</g>
<g>
</g>
</svg>
