<?xml version="1.0" encoding="iso-8859-1"?>
<!-- Generator: Adobe Illustrator 18.0.0, SVG Export Plug-In . SVG Version: 6.00 Build 0)  -->
<!DOCTYPE svg PUBLIC "-//W3C//DTD SVG 1.1//EN" "http://www.w3.org/Graphics/SVG/1.1/DTD/svg11.dtd">
<svg version="1.1" id="Capa_1" xmlns="http://www.w3.org/2000/svg" xmlns:xlink="http://www.w3.org/1999/xlink" x="0px" y="0px"
	 viewBox="0 0 452.574 452.574" style="enable-background:new 0 0 452.574 452.574;" xml:space="preserve">
<path d="M452.54,183.111c-0.222-1.69-1.49-3.054-3.159-3.398c-1.655-0.34-40.992-7.829-111.905,29.98
	c-5.188-3.147-14.009-12.405-19.619-18.945c3.211-10.912,16.774-60.579,12.396-107.267c-0.18-1.92-1.705-3.438-3.626-3.61
	c-1.918-0.171-3.691,1.051-4.209,2.909c-1.463,5.242-2.879,10.382-4.268,15.421c-15.382,55.83-27.609,100.137-61.91,130.416
	c-5.306-8.464-7.737-16.964-4.637-30.708c7.608-33.737,15.037-70.939,15.055-121.924c0-1.564-0.819-3.078-2.223-3.767
	c-2.004-0.983-4.34-0.153-5.325,1.737c-21.271,40.872-53.508,74.562-76.806,95.626c-11.006,9.951-17.451,23.595-18.149,38.419
	c-0.699,14.837,4.442,29.043,14.479,39.999l3.976,4.341c-23.829,18.791-51.54,0.397-65.145-8.637
	c-1.346-0.894-2.547-1.69-3.585-2.347c-3.717-2.35-7.432-4.754-11.365-7.3C77.28,217.724,48.678,199.21,5.165,185.968
	c-1.761-0.535-3.665,0.201-4.605,1.786c-0.94,1.585-0.676,3.607,0.641,4.897c32.893,32.237,55.748,72.889,69.13,101.314
	c8.271,17.572,25.349,29.492,44.47,31.471c-0.699,2.598-1.163,5.289-1.353,8.053c-0.145,2.091-0.127,4.168,0.032,6.218
	l-17.52,20.725c-0.753,0.891-1.166,2.054-1.006,3.21c0.269,1.948,1.846,3.348,3.704,3.472c0.224,0.015,21.461,1.433,30.176,2.237
	c2.956,2.454,6.269,4.533,9.888,6.138c8.141,3.614,19.78,5.282,37.752,5.282c4.157,0,8.657-0.089,13.526-0.265
	c35.539-1.285,70.501-21.507,93.521-54.09l1.3-1.837c6.939-9.811,13.857-20.59,21.771-33.922
	c17.431-29.364,42.795-52.96,73.352-68.239l70.422-35.21C451.888,186.446,452.762,184.801,452.54,183.111z M172.146,208.378
	c0.597-12.68,6.11-24.351,15.523-32.862c6.773-6.124,14.29-13.302,22.079-21.398c0.583,9.196-1.501,20.563-10.898,31.707
	c-5.743,6.821-8.991,15.372-9.146,24.083c-0.156,9.447,3.242,18.902,24.701,53.017c7.377,11.725,9.401,23.068,6.083,33.882
	c-1.382-10.994-6.09-21.604-14.01-30.251l-21.946-23.959C175.947,233.224,171.548,221.071,172.146,208.378z M77.569,290.559
	c-12.086-25.673-31.768-61.14-59.51-91.876c34.171,12.356,58.405,28.043,80.108,42.091c3.951,2.558,7.684,4.974,11.437,7.345
	c0.994,0.629,2.145,1.394,3.435,2.25c14.143,9.391,46.602,30.939,74.991,7.89l12.549,13.7c1.91,2.085,3.595,4.306,5.066,6.628
	c-9.003,10.11-23.851,18.115-28.98,20.702c-7.078-3.936-15.282-5.887-23.712-5.302c-15.422,1.061-28.646,10.448-35.201,23.663
	C100.536,316.66,84.951,306.241,77.569,290.559z M107.079,359.673l8.404-9.942c1.282,3.897,3.12,7.582,5.434,10.946
	C116.29,360.323,111.184,359.959,107.079,359.673z M153.502,301.968c14.531-1.005,28.255,7.249,34.14,20.538
	c0.895,2.02,3.257,2.932,5.276,2.039c2.021-0.895,2.933-3.257,2.038-5.277c-2.562-5.786-6.333-10.792-10.923-14.797
	c6.567-3.564,17.355-10.092,25.484-18.326c5.636,13.99,4.316,30.214-4.395,43.393l-0.268,0.405
	c-5.364,8.116-15.392,11.538-24.384,8.321c-0.102-0.036-0.199-0.072-0.293-0.107l-1.057-3.702
	c-2.667-9.334-9.751-16.923-19.051-19.706c-9.706-2.904-19.956-0.463-27.291,6.459l-11.095,10.469
	C123.906,315.679,137.191,303.09,153.502,301.968z M376.364,215.264c-31.932,15.966-58.438,40.625-76.652,71.311
	c-7.803,13.145-14.609,23.753-21.423,33.385l-1.301,1.839c-21.59,30.56-54.217,49.518-87.276,50.713
	c-24.303,0.875-39.022-0.462-47.745-4.334c-10.67-4.733-18.081-14.513-20.073-25.703l4.436-4.186
	c0.834,10.115,9.317,18.094,19.643,18.094c8.351,0,15.424-6.242,16.454-14.52c0.669-5.381-1.804-10.65-6.452-13.75
	c-5.32-3.551-11.818-3.051-16.011,1.158c-1.649,1.655-1.878,4.422-0.174,6.021c1.634,1.533,4.199,1.425,5.699-0.225
	c1.186-1.304,3.396-2.069,6.047-0.299c2.114,1.41,3.245,3.751,2.952,6.109c-0.532,4.279-4.192,7.506-8.515,7.506
	c-6.466,0-11.726-5.26-11.726-11.726c0-0.222,0.006-0.472,0.016-0.747c0.124-3.231,1.41-6.347,3.719-8.611
	c5.146-5.046,12.405-6.925,19.333-5.02c6.799,1.867,12.015,7.03,13.952,13.809l1.74,6.092c0.302,1.058,1.025,1.944,2.002,2.451
	c0.109,0.057,1.114,0.571,2.765,1.162c12.471,4.46,26.351-0.244,33.753-11.442l0.268-0.405c3.871-5.856,6.492-12.227,7.899-18.773
	c13.271-17.422,13.795-36.941,1.482-56.51c-20.24-32.177-23.6-41.006-23.475-48.619c0.123-6.876,2.704-13.647,7.266-19.066
	c13.596-16.124,14.146-32.701,11.858-44.401c14.354-15.674,29.147-34.257,41.585-55.009c-1.336,42.359-7.903,74.83-14.613,104.58
	c-5.277,23.401,3.866,35.18,14.453,48.818c2.434,3.135,4.95,6.376,7.473,9.961c16.654,23.675,10.922,56.62-12.78,73.44
	c-1.801,1.279-2.226,3.776-0.946,5.577c1.278,1.802,3.774,2.226,5.577,0.947c27.283-19.363,33.875-57.299,14.692-84.567
	c-2.631-3.74-5.206-7.057-7.696-10.265c-1.301-1.676-2.546-3.28-3.722-4.844c34.331-29.873,47.522-71.792,62.091-124.305
	c-1.156,31.725-8.334,61.39-11.664,73.642c-0.949,3.494-2.142,6.909-3.574,10.234l-5.01,11.634c-0.86,1.998-0.109,4.419,1.849,5.366
	c0.565,0.273,1.159,0.402,1.743,0.402c1.55,0,3.024-0.906,3.676-2.419l4.591-10.663c1.439,1.61,3.159,3.479,5.014,5.403
	l-14.116,16.266c-1.447,1.668-1.269,4.195,0.399,5.643c0.758,0.657,1.691,0.979,2.62,0.979c1.119,0,2.232-0.467,3.023-1.378
	l13.795-15.897c1.711,1.576,3.434,3.068,5.093,4.332l-8.719,6.339c-1.687,1.226-2.296,3.553-1.238,5.351
	c0.761,1.293,2.099,1.984,3.458,1.984c0.815,0,1.639-0.249,2.35-0.765l8.95-6.507c3.08-2.239,6.314-4.262,9.694-6.015
	c41.264-21.4,71.117-26.719,87.719-27.693L376.364,215.264z"/>
<g>
</g>
<g>
</g>
<g>
</g>
<g>
</g>
<g>
</g>
<g>
</g>
<g>
</g>
<g>
</g>
<g>
</g>
<g>
</g>
<g>
</g>
<g>
</g>
<g>
</g>
<g>
</g>
<g>
</g>
</svg>
