<?xml version="1.0" encoding="iso-8859-1"?>
<!-- Generator: Adobe Illustrator 18.0.0, SVG Export Plug-In . SVG Version: 6.00 Build 0)  -->
<!DOCTYPE svg PUBLIC "-//W3C//DTD SVG 1.1//EN" "http://www.w3.org/Graphics/SVG/1.1/DTD/svg11.dtd">
<svg version="1.1" id="Capa_1" xmlns="http://www.w3.org/2000/svg" xmlns:xlink="http://www.w3.org/1999/xlink" x="0px" y="0px"
	 viewBox="0 0 443.884 443.884" style="enable-background:new 0 0 443.884 443.884;" xml:space="preserve">
<path d="M417.034,56.739c-24.946-26.234-50.266-42.947-77.407-51.093c-25.654-7.702-52.263-7.525-81.343,0.537
	c-24.1,6.681-43.466,20.349-62.193,33.567c-23.285,16.437-43.396,30.631-67.672,28.11c-1.713-0.179-3.362,0.771-4.066,2.35
	c-0.705,1.58-0.313,3.435,0.97,4.596c32.823,29.691,68.626,47.516,106.417,52.976c8.403,1.215,16.902,1.82,25.482,1.82
	c22.296,0,45.126-4.093,68.158-12.241c19.899-7.04,37.333-16.147,51.511-24.921c-49.119,44.962-101.396,68.069-139.118,79.801
	c-36.064,11.216-65.011,14.147-77.558,14.913c3.748-9.035,3.926-19.101,0.339-28.511c-4.434-11.625-13.84-20.148-25.808-23.385
	c-23.888-6.46-49.46-2.359-70.159,11.254c-37.369,24.578-49.813,74.525-28.329,113.709c11.563,21.089,30.693,36.064,53.869,42.167
	c7.385,1.944,14.85,2.906,22.257,2.906c15.849,0,31.42-4.405,45.311-13.005c19.43-12.029,33.106-30.881,38.51-53.082
	c4.585-18.837-5.531-38.042-23.578-45.045c15.392-1.648,39.021-5.444,67.219-14.188c36.948-11.458,87.536-33.562,135.874-75.747
	c-21.793,32.772-39.231,65.212-52.043,96.851c-11.302,27.911-18.833,54.64-22.449,79.619c-3.907-8.561-10.518-15.505-18.898-19.513
	c-11.508-5.504-24.605-4.86-35.93,1.769c-23.029,13.48-39.949,36.68-46.42,63.65c-11.709,48.798,13.807,98.437,58.088,113.008
	c8.685,2.857,17.619,4.274,26.553,4.274c14.308-0.001,28.609-3.635,41.858-10.804c23.616-12.779,41.294-35.586,48.498-62.57
	c6.6-24.72,3.966-50.412-7.416-72.347c-9.848-18.974-31.748-26.398-50.945-17.268l-7.849,3.733
	c3.352-25.131,10.839-52.184,22.324-80.55c16.875-41.672,41.947-84.818,74.561-128.321c1.218-1.625,10.905-13.041,11.265-13.388
	C418.495,60.844,418.548,58.331,417.034,56.739z M188.43,237.315c-4.903,20.148-17.314,37.256-34.947,48.172
	c-18.498,11.453-40.273,14.708-61.32,9.165c-21.031-5.538-38.394-19.132-48.89-38.276c-19.494-35.555-8.201-80.876,25.71-103.18
	c12.951-8.518,28.003-12.933,43.208-12.933c6.851,0,13.732,0.896,20.467,2.718c9.467,2.56,16.91,9.308,20.42,18.513
	c3.548,9.304,2.466,19.416-2.968,27.744c-0.667,1.022-0.831,2.293-0.445,3.451c0.387,1.157,1.28,2.076,2.427,2.493l17.023,6.195
	C183.811,206.726,192.115,222.176,188.43,237.315z M320.051,288.121c15.221-7.237,32.591-1.334,40.408,13.729
	c10.462,20.158,12.872,43.81,6.789,66.597c-6.64,24.868-22.888,45.862-44.577,57.599c-19.564,10.587-41.618,12.708-62.104,5.966
	c-40.357-13.28-63.554-58.761-52.809-103.541c5.966-24.864,21.522-46.228,42.682-58.613c4.963-2.905,10.341-4.369,15.691-4.369
	c4.347,0,8.677,0.968,12.745,2.913c9.66,4.621,16.174,13.765,17.871,25.086c0.188,1.253,0.959,2.344,2.077,2.938
	c1.12,0.597,2.454,0.625,3.597,0.081L320.051,288.121z M200.704,46.287c18.169-12.824,36.957-26.085,59.717-32.395
	c27.584-7.646,52.741-7.838,76.906-0.584c22.815,6.848,44.378,20.198,65.651,40.65c-7.906-0.986-19.145-2.253-31.692-3.25
	c-32.397-2.577-57.619-2.231-74.965,1.021c-9.337,1.752-19.447,4.365-30.151,7.132c-30.415,7.861-67.005,17.303-109.972,13.34
	C171.561,66.85,185.875,56.754,200.704,46.287z M322.463,109.907c-30.632,10.798-60.824,14.139-89.733,9.936
	c-31.865-4.635-62.326-18.521-90.736-41.329c12.052,1.852,23.628,2.657,34.724,2.657c35.107-0.001,65.482-7.851,91.454-14.564
	c10.57-2.731,20.554-5.313,29.624-7.014c31.837-5.973,86.197-0.012,107.153,2.685C392.355,72.881,362.106,95.933,322.463,109.907z"
	/>
<g>
</g>
<g>
</g>
<g>
</g>
<g>
</g>
<g>
</g>
<g>
</g>
<g>
</g>
<g>
</g>
<g>
</g>
<g>
</g>
<g>
</g>
<g>
</g>
<g>
</g>
<g>
</g>
<g>
</g>
</svg>
