<?xml version="1.0" encoding="iso-8859-1"?>
<!-- Generator: Adobe Illustrator 18.0.0, SVG Export Plug-In . SVG Version: 6.00 Build 0)  -->
<!DOCTYPE svg PUBLIC "-//W3C//DTD SVG 1.1//EN" "http://www.w3.org/Graphics/SVG/1.1/DTD/svg11.dtd">
<svg version="1.1" id="Capa_1" xmlns="http://www.w3.org/2000/svg" xmlns:xlink="http://www.w3.org/1999/xlink" x="0px" y="0px"
	 viewBox="0 0 435.818 435.818" style="enable-background:new 0 0 435.818 435.818;" xml:space="preserve">
<g>
	<path d="M356.199,313.813c4.371-6.207,6.063-13.746,4.765-21.227v0.001c-2.681-15.442-17.426-25.828-32.867-23.144
		c-7.48,1.299-14.007,5.434-18.378,11.641c-4.371,6.208-6.063,13.746-4.765,21.227s5.434,14.007,11.641,18.378
		c4.845,3.411,10.498,5.19,16.304,5.19c1.633,0,3.279-0.141,4.922-0.426C345.3,324.155,351.827,320.021,356.199,313.813z
		 M321.2,314.148c-4.46-3.141-7.431-7.831-8.363-13.206c-0.934-5.374,0.282-10.791,3.423-15.251
		c3.141-4.461,7.831-7.432,13.205-8.364c1.178-0.205,2.348-0.304,3.504-0.304c9.742,0,18.392,7.014,20.112,16.932
		c0,0.001,0,0.001,0,0.001c0.934,5.375-0.282,10.791-3.423,15.252s-7.831,7.431-13.206,8.363
		C331.076,318.504,325.66,317.289,321.2,314.148z"/>
	<path d="M431.318,139.109c0.167-2.179-1.446-4.089-3.622-4.289c-2.179-0.203-4.111,1.384-4.344,3.558l-1.049,9.794
		c-1.805,16.864-11.927,31.484-27.076,39.108c-1.822,0.917-3.574,1.93-5.268,3.015c1.877-20.025-0.255-40.447-6.295-59.613
		l-6.476-20.575c-0.656-2.083-2.856-3.261-4.959-2.632c-2.094,0.624-3.3,2.814-2.706,4.918l2.669,9.472
		c0.474,1.682,0.858,3.367,1.143,5.01c2.593,14.934-1.67,30.016-11.696,41.379c-1.56,1.768-2.99,3.618-4.306,5.53l-10.952-63.082
		c-0.182-1.045-0.771-1.976-1.639-2.586c-0.111-0.078-23.282-13.131-23.282-13.131c-0.748-2.359-1.59-4.695-2.533-6.998
		c-6.564-16.035-17.557-29.809-31.79-39.83c-19.872-13.994-44.001-19.41-67.939-15.256c-1.954,0.339-3.879,0.761-5.789,1.219
		L153.733,0.514c-1.656-0.932-3.74-0.569-4.986,0.865L103.89,53.137c-1.954,0.212-3.909,0.464-5.863,0.803
		c-23.942,4.157-44.83,17.39-58.817,37.26c-11.593,16.464-17.276,35.853-16.524,55.637L5.432,166.752c0,0-1.131,2.073-0.917,3.304
		l37.46,215.762c0.337,1.944,2.027,3.316,3.936,3.316c0.227,0,0.458-0.02,0.689-0.06l170.668-29.63
		c-0.115,0.202-0.24,0.396-0.353,0.599c-7.32,13.271-20.083,22.367-35.017,24.96c-1.64,0.285-3.355,0.491-5.099,0.612l-9.818,0.68
		c-2.18,0.15-3.836,2.023-3.718,4.206c0.115,2.13,1.877,3.784,3.992,3.784c0.052,0,0.105-0.001,0.158-0.003l21.552-0.839
		c20.08-0.774,40.024-5.65,58.244-14.166c-0.454,1.962-0.811,3.955-1.059,5.973c-2.072,16.833-12.425,31.291-27.693,38.676
		l-8.867,4.288c-1.968,0.951-2.808,3.306-1.886,5.288c0.677,1.455,2.12,2.313,3.629,2.313c0.545,0,1.1-0.112,1.63-0.35l19.692-8.803
		c26.802-11.979,49.195-31.166,65.085-55.692c1.911,1.738,4.172,3.148,6.739,4.09c2.332,0.855,4.723,1.261,7.075,1.261
		c5.604,0,10.987-2.308,14.868-6.308c3.776,5.629,10.185,9.194,17.148,9.194c1.164,0,2.344-0.1,3.528-0.305
		c8.266-1.436,14.549-7.655,16.488-15.321c7.098,3.477,15.907,2.712,22.347-2.662c6.438-5.376,8.761-13.903,6.608-21.511
		c7.89-0.537,15.137-5.602,18.028-13.479c2.891-7.877,0.646-16.427-5.024-21.938c6.566-4.408,10.305-12.418,8.869-20.685
		c-1.436-8.272-7.665-14.547-15.339-16.48c3.485-7.102,2.731-15.907-2.646-22.351c-0.046-0.055-0.096-0.103-0.142-0.157
		c19.485-23.957,31.011-52.815,33.38-83.704L431.318,139.109z M367.637,173.546c6.088-6.899,10.346-14.979,12.592-23.597
		c2.885,15.606,3.174,31.707,0.818,47.396c-7.035,6.787-12.244,15.287-15.107,24.821c-1.386-0.946-2.891-1.736-4.501-2.326
		c-1.596-0.585-3.218-0.936-4.838-1.114l-0.66-3.8C353.349,199.99,357.612,184.907,367.637,173.546z M385.522,245.972
		c4.098,1.941,6.515,5.241,7.351,8.809c1.315,5.61-1.773,11.336-7.002,13.758l-15.085,6.986
		c-3.127-5.402-7.409-10.111-12.664-13.811c-5.256-3.701-11.132-6.144-17.272-7.267l1.494-16.563
		c0.516-5.719,4.838-10.555,10.542-11.221c1.903-0.222,3.883-0.015,5.799,0.689c4.229,1.551,7.337,5.275,8.108,9.719
		c0.364,2.099,0.183,4.274-0.525,6.301c-0.608,1.743-0.079,3.759,1.442,4.805c1.462,1.005,3.415,0.929,4.794-0.196
		C376.211,244.957,381.2,243.924,385.522,245.972z M297.778,303.556c-1.632-9.396,0.494-18.866,5.985-26.664
		c5.491-7.799,13.69-12.992,23.088-14.623c2.064-0.359,4.131-0.536,6.185-0.536c7.292,0,14.396,2.236,20.48,6.521
		c7.799,5.491,12.992,13.69,14.623,23.088c3.368,19.398-9.674,37.921-29.073,41.288
		C319.674,335.995,301.146,322.955,297.778,303.556z M276.835,319.035c-6.991,3.238-15.463-0.503-17.279-7.99
		c-0.066-0.27-0.123-0.545-0.171-0.823c-1.138-6.551,3.035-12.841,9.401-14.427c0.55-0.137,2.255-1.273,2.255-1.273
		c1.899-1.469,1.964-4.313,0.134-5.868c0,0-1.047-0.792-1.412-0.948c-6.137-2.616-9.226-9.653-6.906-15.98
		c0.098-0.266,0.203-0.526,0.317-0.782c3.128-7.039,12.129-9.201,18.427-4.766l13.471,9.485c-5.102,8.838-6.942,19.082-5.176,29.26
		c0.432,2.487,1.074,4.884,1.893,7.185L276.835,319.035z M309.867,238.313c-1.082-6.796,3.523-13.255,10.316-14.435
		c0.281-0.049,0.561-0.087,0.84-0.117c7.659-0.807,14.031,5.905,13.339,13.576l-1.48,16.408c-2.457,0.009-4.93,0.213-7.401,0.641
		c-10.178,1.767-19.204,6.954-25.806,14.738l-13.611-9.585c-4.695-3.306-6.722-9.466-4.448-14.739
		c0.759-1.759,1.928-3.369,3.494-4.676c5.326-4.448,13.301-3.748,17.773,1.555c1.359,1.613,3.789,1.931,5.54,0.558
		C309.596,241.319,310.101,239.781,309.867,238.313z M345.608,153.02l5.6,32.258c-3.837,9.717-4.993,20.397-3.149,31.018l0.543,3.13
		c-3.433,0.999-6.585,2.863-9.102,5.455c-4.409-6.57-12.416-10.318-20.685-8.885c-8.263,1.435-14.543,7.653-16.481,15.318
		c-7.103-3.477-15.908-2.704-22.348,2.668c-5.395,4.501-7.9,11.211-7.31,17.742l-8.025-5.286L345.608,153.02z M325.632,118.365
		l6.442-1.119l-6.361,7.341C325.759,122.51,325.727,120.435,325.632,118.365z M330.697,109.365l-5.784,1.004
		c-0.212-1.568-0.465-3.131-0.758-4.688L330.697,109.365z M152.654,9.087l50.152,28.243c-15.817,5.897-29.641,16.079-40.095,29.676
		c-14.422-9.277-30.871-14.202-47.755-14.421L152.654,9.087z M45.751,95.806c12.757-18.123,31.808-30.191,53.644-33.982
		c21.836-3.792,43.841,1.149,61.959,13.912h0c1.806,1.272,4.302,0.839,5.573-0.967l0,0c12.763-18.126,31.813-30.195,53.639-33.984
		c21.835-3.795,43.84,1.149,61.965,13.914c25.912,18.246,38.973,48.878,34.28,80.16l-18.605,21.469
		c1.778-8.219,1.977-16.791,0.494-25.338c-3.022-17.41-12.622-32.585-27.027-42.729c-14.427-10.168-31.946-14.104-49.344-11.087
		c-17.387,3.02-32.562,12.633-42.727,27.068l-8.357,11.859l-11.863-8.346c-14.428-10.17-31.952-14.106-49.343-11.086
		c-17.392,3.02-32.563,12.633-42.717,27.066c-10.168,14.429-14.105,31.952-11.085,49.344c1.484,8.547,4.569,16.553,9.028,23.698
		l-24.764-13.948c-4.205-7.833-7.126-16.257-8.656-25.072C28.054,135.926,32.992,113.924,45.751,95.806z M242.525,185.524
		c-6.875-4.825-15.72-4.85-22.505-0.782c-2.572-7.48-9.342-13.16-17.702-13.899c-8.356-0.742-16.022,3.654-19.867,10.563
		c-5.969-5.186-14.678-6.706-22.282-3.169c-7.611,3.539-12.046,11.185-11.917,19.096c-7.766-1.516-16.072,1.509-20.892,8.38
		c-4.816,6.864-4.847,15.698-0.791,22.481c-1.068,0.365-2.104,0.827-3.103,1.364l-32.445-18.274
		c-0.806-0.454-1.589-0.948-2.345-1.481h0c-12.982-9.14-22.086-22.986-24.652-38.655c-2.473-15.099,1.01-30.279,9.839-42.807
		c8.925-12.687,22.259-21.136,37.544-23.789c15.287-2.654,30.687,0.806,43.369,9.744l15.135,10.648
		c1.806,1.27,4.299,0.837,5.57-0.967l10.661-15.128c8.936-12.69,22.273-21.14,37.556-23.793c15.283-2.656,30.686,0.806,43.367,9.744
		c26.184,18.437,32.486,54.738,14.051,80.922v0c-0.818,1.161-1.693,2.28-2.623,3.353l-23.916,27.597
		c-1.212-0.198-2.435-0.3-3.653-0.279c0.139-0.707,0.24-1.422,0.304-2.141C251.876,196.918,248.541,189.741,242.525,185.524z
		 M137.142,228.02c-0.103-0.083-0.21-0.16-0.321-0.232c-5.554-4.038-6.867-11.843-2.912-17.48c3.451-4.918,9.815-6.618,15.159-4.415
		c1.182,0.487,2.211,1.286,3.032,2.266l11.924,14.239c-6.324,6.344-10.496,14.388-12.035,23.227l-18.695-10.529
		c0.281,0.001,0.562,0.002,0.844,0.021l0.017,0.002c1.131,0.129,2.301-0.177,3.136-0.95
		C139.248,232.357,138.987,229.495,137.142,228.02z M163.542,185.49c6.259-2.909,13.739-0.231,16.728,5.975
		c0.645,1.339,1.939,2.31,3.423,2.389c2.221,0.118,4.03-1.525,4.225-3.625c0.642-6.907,6.787-12.025,13.695-11.418
		c6.757,0.597,11.817,6.462,11.5,13.183l-6.915,18.954c-2.39-0.632-4.835-1.081-7.316-1.297
		c-10.298-0.913-20.352,1.781-28.726,7.606l-11.723-13.999c-1.082-1.292-1.836-2.845-2.073-4.513
		C155.595,193.374,158.38,187.891,163.542,185.49z M172.112,225.816c7.305-6.124,16.561-9.038,26.072-8.193
		c3.126,0.271,6.185,0.951,9.105,2.025c8.884,3.228,16.09,9.873,20.088,18.412l-29.132,33.616l-38.754-21.827
		C160.376,240.421,164.85,231.893,172.112,225.816z M213.718,213.681l6.167-16.903c0.7-1.918,1.932-3.621,3.616-4.776
		c4.226-2.898,9.996-3.04,14.431,0.071c3.684,2.582,5.726,6.979,5.328,11.476c-0.192,2.176-0.923,4.204-2.172,6.026
		c-0.835,1.218-1.007,2.821-0.335,4.136c1.012,1.979,3.341,2.721,5.253,1.839c0.432-0.199,0.874-0.363,1.32-0.511l-14.311,16.514
		C228.573,223.761,221.836,217.51,213.718,213.681z M28.671,176.168l-8.477-4.775l6.431-1.116
		C27.234,172.267,27.927,174.227,28.671,176.168z M23.766,157.808c0.07,0.44,0.12,0.88,0.196,1.32
		c0.196,1.132,0.421,2.256,0.658,3.376l-5.795,1.006L23.766,157.808z M13.84,176.997L197.165,280.25
		c0.616,0.347,1.292,0.515,1.961,0.515c1.13,0,2.243-0.479,3.025-1.381l137.791-159.003l3.9,22.462L203.909,304.312L17.738,199.449
		L13.84,176.997z M19.505,209.626l107.713,60.67l-78.943,105.04L19.505,209.626z M55.18,379.465l79.069-105.208l68.581,38.629
		c0.616,0.347,1.292,0.515,1.961,0.515c1.13,0,2.243-0.479,3.025-1.381l51.55-59.484l7.091,4.671
		c-4.975,2.181-9.099,6.286-11.109,11.765c-2.891,7.881-0.632,16.427,5.045,21.938c-6.574,4.408-10.326,12.413-8.89,20.681
		c1.435,8.27,7.665,14.543,15.339,16.478c-0.243,0.494-0.473,0.993-0.675,1.503l-8.599,1.492
		c-13.337,2.316-25.167,9.112-33.79,19.129L55.18,379.465z M205.949,383.715c7.355-5.02,13.527-11.751,17.972-19.808
		c7.316-13.269,20.079-22.366,35.016-24.96l5.806-1.008c0.111,3.224,0.967,6.433,2.603,9.351
		c-7.127,5.711-12.747,12.99-16.469,21.203C236.89,376.009,221.625,381.169,205.949,383.715z M244.75,411.364
		c4.962-7.394,8.21-15.961,9.339-25.135c1.6-12.994,8.265-24.772,18.445-32.849c5.249,4.149,12.17,5.448,18.464,3.666
		c0.163,2.396,0.75,4.73,1.702,6.902C280.618,383.512,264.266,399.66,244.75,411.364z M307.235,367.554
		c-6.46-2.372-9.835-9.522-7.591-16.005c0.573-1.655,0.183-3.55-1.187-4.641c-1.565-1.247-3.7-1.134-5.114,0.072
		c-5.346,4.379-13.276,3.634-17.713-1.68c-1.525-1.827-2.443-3.964-2.777-6.163c-0.809-5.325,2.271-10.492,7.158-12.756l15.137-7.01
		c6.403,11.016,17.391,18.753,29.92,21.066l-1.496,16.582c-0.516,5.718-4.837,10.552-10.539,11.22
		C311.13,368.462,309.15,368.256,307.235,367.554z M380.808,354.781c-5.301,4.421-13.22,3.748-17.703-1.484
		c-0.967-1.129-2.468-1.734-3.922-1.426c-2.176,0.46-3.499,2.512-3.149,4.591c1.156,6.842-3.466,13.374-10.304,14.562
		c-0.28,0.048-0.559,0.087-0.838,0.117c-7.659,0.807-14.029-5.906-13.338-13.576l1.48-16.405c2.441-0.005,4.915-0.215,7.4-0.646
		c10.456-1.816,19.401-7.231,25.789-14.749l13.66,9.618c4.411,3.106,6.519,8.755,4.755,13.852
		C383.912,351.33,382.628,353.261,380.808,354.781z M406.533,284.677c1.188,6.839-3.406,13.391-10.242,14.605
		c-1.468,0.261-2.666,1.318-3.113,2.74s-0.065,2.977,0.989,4.03c0.406,0.407,0.896,0.721,1.435,0.921
		c6.504,2.418,9.851,9.686,7.46,16.202c-2.336,6.365-9.31,9.723-15.71,7.68l-16.522-11.633c4.924-8.548,7.008-18.794,5.193-29.25
		c-0.429-2.469-1.07-4.866-1.889-7.182l18.328-8.487C399.124,273.449,405.374,278.001,406.533,284.677z M390.002,239.356
		c-4.645-2.372-10.052-2.917-15.07-1.5c-0.047-0.722-0.133-1.44-0.256-2.154c-0.399-2.298-1.184-4.477-2.286-6.464l0.162-0.76
		c3.156-14.826,12.731-27.237,26.271-34.052c8.26-4.157,15.232-10.104,20.521-17.272
		C414.819,199.948,404.836,221.146,390.002,239.356z"/>
</g>
<g>
</g>
<g>
</g>
<g>
</g>
<g>
</g>
<g>
</g>
<g>
</g>
<g>
</g>
<g>
</g>
<g>
</g>
<g>
</g>
<g>
</g>
<g>
</g>
<g>
</g>
<g>
</g>
<g>
</g>
</svg>
