<?xml version="1.0" encoding="iso-8859-1"?>
<!-- Generator: Adobe Illustrator 18.0.0, SVG Export Plug-In . SVG Version: 6.00 Build 0)  -->
<!DOCTYPE svg PUBLIC "-//W3C//DTD SVG 1.1//EN" "http://www.w3.org/Graphics/SVG/1.1/DTD/svg11.dtd">
<svg version="1.1" id="Capa_1" xmlns="http://www.w3.org/2000/svg" xmlns:xlink="http://www.w3.org/1999/xlink" x="0px" y="0px"
	 viewBox="0 0 479.701 479.701" style="enable-background:new 0 0 479.701 479.701;" xml:space="preserve">
<g>
	<path d="M250.466,167.555c-12.847-9.211-30.791-6.255-40.002,6.589c-4.463,6.222-6.235,13.81-4.991,21.366
		s5.356,14.174,11.579,18.637c5.049,3.62,10.884,5.361,16.668,5.361c8.934,0,17.743-4.154,23.335-11.951
		C266.267,194.713,263.311,176.767,250.466,167.555z M250.553,202.896c-6.641,9.261-19.579,11.391-28.839,4.75
		c-4.485-3.217-7.45-7.989-8.348-13.436c-0.896-5.447,0.381-10.917,3.599-15.403c4.031-5.622,10.382-8.615,16.822-8.615
		c4.169,0,8.378,1.255,12.017,3.865C255.064,180.697,257.194,193.635,250.553,202.896z"/>
	<path d="M446.047,252.268c-12.104-37.542-37.652-65.428-75.932-82.884c-4.884-2.23-10.005-4.271-15.269-6.129
		c8.017-6.777,12.101-16.949,10.949-27.53c-1.226-11.263-8.071-20.846-18.391-25.67l-0.579-0.268
		c-25.928-12.143-49.12-28.776-68.883-49.382c-0.251-0.273-0.501-0.531-0.733-0.771c-7.761-8.104-18.945-11.501-29.925-9.083
		c-10.853,2.389-19.474,10.063-23.063,20.528c-4.886,14.264-7.148,31.708-8.159,49.502l-13.303-85.978
		c2.852-1.29,5.339-3.294,7.216-5.903c2.826-3.928,3.954-8.722,3.175-13.498c-0.779-4.775-3.372-8.962-7.3-11.788
		c-3.927-2.825-8.722-3.954-13.496-3.174c-9.859,1.608-16.571,10.937-14.964,20.796c0.779,4.776,3.371,8.962,7.3,11.789
		c3.028,2.179,6.572,3.338,10.224,3.402l14.921,96.434L187.629,98.04c0.644-0.657,1.257-1.352,1.804-2.112
		c2.826-3.928,3.954-8.721,3.175-13.497s-3.371-8.962-7.299-11.789s-8.724-3.953-13.497-3.174
		c-9.859,1.608-16.571,10.937-14.964,20.796c1.448,8.876,9.153,15.202,17.87,15.201c0.965,0,1.943-0.078,2.927-0.238
		c1.123-0.183,2.211-0.475,3.259-0.853l23.343,36.389c-17.052-15.473-35.515-30.283-53.012-38.353
		c-10.075-4.641-21.612-3.686-30.863,2.554c-9.394,6.336-14.681,16.863-14.142,28.158c0.002,0.039,0.004,0.078,0.007,0.116
		c0.009,0.109,0.012,0.219,0.016,0.327l0.013,0.277c1.36,28.601-2.536,56.877-11.581,84.044c-0.013,0.038-0.025,0.076-0.036,0.115
		c-0.081,0.269-0.169,0.533-0.27,0.828c-3.548,10.643-1.335,22.119,5.921,30.699c0.194,0.229,0.398,0.446,0.597,0.669
		c-6.366,5.869-20.705,20.467-34.645,44.215C49.46,321.022,30.22,368.856,33.923,434.268c0.117,2.073,1.802,3.712,3.877,3.772
		c1.762,0.051,3.516,0.076,5.262,0.076c44.062,0,83.385-16.246,117.075-48.348c2.514,29.889,11.63,59.401,27.198,87.853
		c0.722,1.32,2.089,2.081,3.511,2.081c0.54,0,1.088-0.109,1.61-0.34c82.824-36.484,91.402-125.948,90.873-165.766
		c12.048-4.502,24.49-8.012,37.27-10.48l0.405-0.078c0.19-0.036,0.381-0.071,0.512-0.099c11.017-2.117,19.939-9.668,23.868-20.2
		c1.132-3.034,1.769-6.152,1.956-9.263c5.213,0.433,10.438,0.655,15.674,0.655c26.832,0,53.918-5.674,80.774-16.946
		C445.703,256.38,446.685,254.245,446.047,252.268z M185.289,19.749c-0.898-5.505,2.85-10.715,8.355-11.613
		c0.551-0.09,1.103-0.134,1.65-0.134c2.102,0,4.146,0.655,5.886,1.907c2.193,1.578,3.641,3.916,4.075,6.583c0,0,0,0,0,0
		c0.436,2.667-0.193,5.343-1.771,7.536c-1.579,2.194-3.916,3.641-6.584,4.076c-2.663,0.436-5.342-0.194-7.536-1.772
		C187.171,24.754,185.724,22.416,185.289,19.749z M231.791,73.673c2.675-7.802,9.11-13.525,17.214-15.309
		c8.232-1.813,16.612,0.731,22.442,6.82c0.206,0.212,0.411,0.424,0.671,0.704c20.498,21.375,44.492,38.583,71.362,51.167
		l0.245,0.114c0.149,0.07,0.296,0.139,0.368,0.169c7.688,3.595,12.828,10.793,13.749,19.253c0.901,8.294-2.482,16.252-9.05,21.288
		c-17.66,13.524-44.315,23.873-71.186,32.969c-0.005-2.364-0.191-4.744-0.582-7.122c-1.163-7.061-3.971-13.583-8.146-19.148
		l21.117-14.686c1.813-1.261,2.261-3.754,1-5.567s-3.754-2.262-5.568-1l-21.969,15.279c-1.306-1.198-2.683-2.334-4.146-3.383
		c-1.46-1.047-2.974-1.985-4.524-2.837l13.874-39.994c0.724-2.087-0.381-4.366-2.469-5.09c-2.086-0.724-4.366,0.382-5.09,2.468
		l-13.671,39.409c-6.624-2.182-13.719-2.755-20.801-1.59c-1.123,0.185-2.227,0.424-3.321,0.69
		C223.416,122.492,224.728,94.292,231.791,73.673z M239.585,226.223c-9.448,1.557-18.937-0.66-26.718-6.24
		s-12.924-13.857-14.48-23.305s0.66-18.937,6.241-26.718c5.58-7.781,13.856-12.923,23.305-14.479
		c1.971-0.325,3.943-0.485,5.902-0.485c7.431,0,14.657,2.31,20.815,6.726c7.781,5.581,12.924,13.857,14.48,23.305
		c1.557,9.448-0.66,18.937-6.24,26.718c-0.001,0-0.001,0-0.001,0C257.31,219.524,249.033,224.667,239.585,226.223z M176.358,95.332
		c-5.517,0.896-10.716-2.851-11.612-8.355c-0.898-5.505,2.85-10.715,8.355-11.613c0.551-0.09,1.103-0.134,1.65-0.134
		c2.102,0,4.146,0.655,5.886,1.907c2.193,1.578,3.641,3.916,4.075,6.583v0c0.436,2.667-0.193,5.343-1.771,7.536
		S179.024,94.897,176.358,95.332z M101.959,219.384c0.118-0.345,0.229-0.683,0.333-1.024c9.345-28.089,13.37-57.326,11.963-86.905
		l-0.009-0.203c-0.007-0.185-0.016-0.372-0.028-0.558c-0.387-8.461,3.583-16.346,10.627-21.097
		c6.913-4.664,15.525-5.382,23.042-1.921c20.168,9.302,42.136,28.437,61.46,46.736c-4.305,2.888-8.108,6.546-11.219,10.885
		c-0.292,0.407-0.566,0.823-0.843,1.238l-29.71-12.957c-2.022-0.883-4.382,0.042-5.265,2.067c-0.884,2.025,0.042,4.382,2.067,5.266
		l29.072,12.679c-2.642,6.135-3.835,12.779-3.476,19.511l-31.71,6.959c-2.158,0.474-3.523,2.607-3.05,4.765
		c0.41,1.869,2.065,3.144,3.903,3.144c0.284,0,0.572-0.031,0.861-0.094l31.143-6.835c1.798,7.573,5.518,14.425,10.823,19.994
		c-25.493,13.484-51.766,25.946-73.969,29.413c-8.146,1.272-16.211-1.75-21.567-8.083
		C100.969,235.932,99.31,227.333,101.959,219.384z M41.725,430.111c-2.668-61.333,15.412-106.255,31.234-133.322
		c13.905-23.786,28.498-38.26,34.021-43.297c5.111,3.408,11.096,5.243,17.3,5.243c1.632,0,3.28-0.126,4.93-0.384
		c22.697-3.545,48.882-15.741,74.348-29.126c-7.281,28.802-13.236,57.988-11.385,81.157c0.486,6.068,2.666,11.688,6.175,16.359
		c-10.985,19.5-23.643,36.725-37.662,51.218C126.869,412.923,86.869,430.458,41.725,430.111z M192.594,470.508
		c-15.11-28.632-23.486-58.302-24.946-88.265c13.528-14.209,25.798-30.855,36.531-49.569c1.64,1.275,3.419,2.406,5.33,3.366
		c4.6,2.311,9.536,3.46,14.459,3.46c5.918,0,11.817-1.661,17.083-4.961l0.549-0.346c10.811-6.767,22.083-12.588,33.75-17.451
		C275.372,355.645,265.981,435.931,192.594,470.508z M337.888,279.943c-2.944,7.894-9.629,13.553-17.94,15.151l-0.405,0.078
		c-0.19,0.036-0.381,0.071-0.516,0.1c-29.101,5.621-56.578,16.435-81.728,32.178l-0.558,0.352
		c-7.192,4.507-16.028,4.915-23.64,1.091c-7.452-3.745-12.296-10.903-12.955-19.148c-1.809-22.647,4.37-51.97,11.754-80.886
		c5.988,3.459,12.625,5.422,19.458,5.783l-3.459,27.663c-0.274,2.192,1.28,4.191,3.473,4.466c0.168,0.021,0.336,0.031,0.501,0.031
		c1.988,0,3.711-1.48,3.964-3.504l3.624-28.976c0.475-0.063,0.951-0.127,1.426-0.205c5.064-0.834,9.853-2.511,14.209-4.932
		l15.306,21.757c0.778,1.107,2.017,1.699,3.275,1.699c0.795,0,1.598-0.237,2.298-0.729c1.807-1.271,2.241-3.766,0.97-5.573
		l-15.25-21.677c2.873-2.382,5.464-5.142,7.696-8.256c1.879-2.619,3.434-5.401,4.678-8.292
		c22.511,14.574,46.507,31.551,60.306,49.067C339.475,263.658,340.788,272.168,337.888,279.943z M346.77,265.379
		c-0.962-4.71-3.009-9.209-6.11-13.148c-13.667-17.347-36.35-33.867-58.222-48.212l30.868,6.838
		c0.036,5.577,2.612,11.067,7.465,14.581c3.124,2.263,6.802,3.447,10.586,3.447c0.962,0,1.932-0.077,2.9-0.231
		c4.778-0.765,8.974-3.344,11.812-7.264c5.858-8.09,4.043-19.439-4.048-25.298s-19.439-4.042-25.299,4.047
		c-0.672,0.928-1.231,1.903-1.703,2.903l-29.344-6.5c22.465-7.776,44.449-16.552,61.199-27.526
		c6.925,2.215,13.625,4.772,19.919,7.647c34.943,15.934,58.631,41.008,70.457,74.557
		C407.068,263.322,376.662,268.066,346.77,265.379z M323.201,204.831c1.977-2.729,5.071-4.179,8.208-4.179
		c2.056,0,4.131,0.624,5.92,1.919c4.517,3.271,5.53,9.608,2.259,14.126c-1.584,2.188-3.927,3.629-6.595,4.056
		c-2.668,0.43-5.343-0.21-7.53-1.795c-0.001,0-0.001,0-0.001,0C320.944,215.686,319.931,209.349,323.201,204.831z"/>
</g>
<g>
</g>
<g>
</g>
<g>
</g>
<g>
</g>
<g>
</g>
<g>
</g>
<g>
</g>
<g>
</g>
<g>
</g>
<g>
</g>
<g>
</g>
<g>
</g>
<g>
</g>
<g>
</g>
<g>
</g>
</svg>
