<?xml version="1.0" encoding="iso-8859-1"?>
<!-- Generator: Adobe Illustrator 18.0.0, SVG Export Plug-In . SVG Version: 6.00 Build 0)  -->
<!DOCTYPE svg PUBLIC "-//W3C//DTD SVG 1.1//EN" "http://www.w3.org/Graphics/SVG/1.1/DTD/svg11.dtd">
<svg version="1.1" id="Capa_1" xmlns="http://www.w3.org/2000/svg" xmlns:xlink="http://www.w3.org/1999/xlink" x="0px" y="0px"
	 viewBox="0 0 450.155 450.155" style="enable-background:new 0 0 450.155 450.155;" xml:space="preserve">
<g>
	<path d="M271.1,200.069c-2.208,0.044-3.963,1.87-3.919,4.079c0.044,2.209,1.844,3.991,4.079,3.919
		c1.427-0.028,3.385-0.058,5.632-0.082l1.233,2.123c2.314,3.984,6.615,6.46,11.223,6.46c4.373,0,8.422-2.179,10.832-5.828
		l1.531-2.319c0.328,0.034,0.636,0.069,0.903,0.107c0.192,0.027,0.382,0.041,0.571,0.041c1.958-0.001,3.67-1.44,3.955-3.436
		c0.312-2.187-1.208-4.213-3.394-4.525c-0.313-0.045-0.668-0.085-1.042-0.125l-0.666-2.19c-0.633-2.084-2.354-3.644-4.491-4.068
		c-2.137-0.429-4.323,0.355-5.707,2.038l-0.158,0.192c-0.923-1.073-2.13-1.887-3.523-2.345c-2.337-0.767-4.848-0.419-6.888,0.957
		l-7.339,4.954C272.333,200.045,271.296,200.065,271.1,200.069z M291.652,207.995c-0.701,0.366-1.486,0.572-2.304,0.572
		c-0.846,0-1.662-0.223-2.384-0.617C288.55,207.958,290.129,207.972,291.652,207.995z"/>
	<path d="M284.675,184.068c0.165,0,0.333-0.01,0.501-0.031l4-0.5c2.192-0.273,3.747-2.272,3.473-4.465
		c-0.273-2.191-2.264-3.749-4.465-3.473l-4,0.5c-2.192,0.273-3.747,2.272-3.473,4.465
		C280.963,182.587,282.687,184.068,284.675,184.068z"/>
	<path d="M297.391,183.146l2,1c0.575,0.287,1.185,0.423,1.786,0.423c1.467,0,2.88-0.811,3.581-2.212
		c0.988-1.977,0.187-4.379-1.789-5.367l-2-1c-1.976-0.986-4.379-0.187-5.367,1.789C294.614,179.755,295.415,182.158,297.391,183.146
		z"/>
	<path d="M233.467,154.146c0.363-0.181,0.708-0.385,1.036-0.611c6.272,5.223,13.422,7.077,20.214,7.077
		c8.871-0.001,17.133-3.164,22.029-6.119c1.136-0.686,1.858-1.89,1.928-3.215c0.02-0.383,0.42-9.468-6.052-15.986
		c-4.468-4.5-10.903-6.6-19.125-6.22c-17.604,0.801-20.482,9.555-22.201,14.784c-0.271,0.822-0.525,1.599-0.791,2.195
		c-0.001,0.001-0.001,0.002-0.002,0.004c0,0,0,0.001-0.001,0.001c-0.001,0.003-0.002,0.005-0.003,0.008
		c-0.002,0.006-0.005,0.012-0.008,0.018c-0.155,0.355-0.385,0.801-0.6,0.908c-1.977,0.987-2.778,3.39-1.791,5.366
		C229.088,154.331,231.492,155.133,233.467,154.146z M238.816,146.598c0.96-0.854,3.462-2.695,8.076-3.774
		c-0.134,0.56-0.212,1.142-0.212,1.743c0,4.142,3.358,7.5,7.5,7.5s7.5-3.358,7.5-7.5c0-0.727-0.109-1.427-0.301-2.091
		c2.362,0.321,4.937,0.819,7.739,1.536c0.842,1.704,1.238,3.421,1.418,4.709c-2.283,1.088-6.242,2.712-10.879,3.482
		c-8.324,1.386-15.332-0.478-20.862-5.538C238.801,146.644,238.809,146.621,238.816,146.598z"/>
	<path d="M411.049,67.23c-25.205-25.215-58.73-39.102-94.399-39.102c-1.362,0-2.691,0.028-3.999,0.069
		c-4.798-4.85-10.537-8.894-17.16-12.081c-10.07-4.846-21.748-7.508-34.708-7.912c-26.291-0.827-55.075,7.737-81.054,24.099
		c-1.374,0.865-2.724,1.755-4.065,2.653c-22.826-7.586-47.272-8.896-70.843-3.733c-24.894,5.45-47.62,17.901-65.72,36.007
		C13.886,92.445,0,125.969,0,161.628c0,35.658,13.886,69.183,39.101,94.397L225.07,442.005l185.978-185.979
		c25.219-25.214,39.107-58.738,39.107-94.398S436.267,92.443,411.049,67.23z M405.392,72.887
		c7.032,7.031,13.118,14.753,18.213,23.007c-3.589,2.259-7.765,3.494-12.065,3.494c-8.879,0-16.949-5.32-20.596-13.239
		c3.61-2.521,6.535-6.035,8.33-10.28c0.86-2.035-0.091-4.382-2.125-5.242c-2.036-0.863-4.382,0.092-5.243,2.125
		c-2.495,5.896-8.243,9.707-14.645,9.707c-1.708,0-3.361-0.267-4.942-0.785c0.041-0.664,0.081-1.329,0.081-2.006
		c0-5.233-1.297-10.431-3.751-15.032c-1.039-1.95-3.461-2.688-5.412-1.647c-1.949,1.039-2.687,3.462-1.647,5.411
		c1.838,3.447,2.81,7.344,2.81,11.269c0,1.338-0.105,2.636-0.318,3.887c-1.891,11.619-11.821,20.053-23.612,20.053
		c-4.691,0-9.174-1.353-13.056-3.895c-0.685-2.172-1.43-4.24-2.227-6.175c6.454-20.648,4.732-40.403-4.942-55.77
		c-0.342-0.543-0.694-1.078-1.053-1.608C351.771,36.802,382.297,49.782,405.392,72.887z M332.072,128.542l3.703,7.385
		c1.349,2.499,1.411,5.397,0.173,7.952c-1.083,2.233-2.988,3.849-5.318,4.547C331.805,141.878,332.24,135.143,332.072,128.542z
		 M332.139,169.331l1.862,3.351c0.666,1.198,0.746,2.611,0.221,3.878c-0.525,1.266-1.582,2.206-2.9,2.581l-0.239,0.068
		C331.687,175.938,332.056,172.642,332.139,169.331z M204.102,199.357c0.495,0.99,11.869,22.853,53.072,37.039
		c-6.702,6.114-18.002,17.306-24.604,28.681c-1.292-0.848-2.619-1.65-3.996-2.374c-4.481-2.356-9.179-3.911-13.923-4.679
		c-0.008-0.002-0.015-0.007-0.023-0.009c-2.173-0.666-12.119-3.802-23.28-8.728c-13.515-5.971-23.31-12.191-28.559-18.026
		c16.595-10.394,20.187-23.433,20.839-30.372c9.588-1.356,15.989-7.487,20.061-13.597c5.817,2.355,11.963,2.151,17.019-0.691
		c6-3.372,9.449-9.731,9.472-17.457c0.003-0.977-0.321-1.953-0.964-2.688c-1.276-1.458-3.311-1.775-4.918-0.919
		c-3.241,1.729-7.013,2.041-8.969,0.745c-1.347-0.894-1.907-2.695-1.666-5.354c0.737-8.104,2.635-14.552,3.417-16.949
		c3.299-2.704,13.339-11.864,16-25.128c1.761,0.319,3.952,0.667,6.429,0.962c-3.096,1.793-6.107,4.304-8.915,7.707
		c-1.406,1.704-1.164,4.226,0.54,5.632c0.745,0.614,1.647,0.914,2.543,0.914c1.153,0,2.297-0.496,3.088-1.454
		c13.885-16.834,32.807-3.842,33.605-3.279c1.799,1.271,4.291,0.848,5.569-0.948c1.28-1.801,0.859-4.298-0.942-5.578
		c-2.127-1.512-4.944-3.069-8.198-4.313c3.215-0.922,6.269-2.211,8.979-3.986c5.651-3.701,9.126-8.98,10.33-15.691
		c0.193-1.077-0.032-2.219-0.684-3.098c-1.266-1.707-3.509-2.106-5.23-1.125c-1.336,0.765-3.662,1.03-5.843-0.103
		c-2.644-1.371-4.318-4.419-4.713-8.583c-0.268-2.825,1.098-5.605,3.675-7.165c1.47-0.89,3.215-1.199,4.927-1.049
		c6.49,0.572,15.359,1.709,22.832,3.945c-0.084,1.096-0.576,1.896-1.026,2.409c-1.31,1.493-3.532,1.98-5.354,1.057
		c-0.899-0.455-1.919-0.678-2.897-0.435c-2.353,0.586-3.51,2.859-2.982,4.918c1.81,7.252,8.039,12.141,15.511,12.165
		c0.02,0,0.039,0,0.059,0c5.279,0,9.953-2.413,12.915-6.384c0.004,0,0.004,0,0.008,0.001c2.757,6.238,4.882,14.287,5.976,23
		c-8.801-1.458-16.274,3.141-19.462,6.396c-1.539,1.572-1.511,4.082,0.051,5.631c0.778,0.771,1.794,1.154,2.812,1.154
		c1.027,0,2.054-0.391,2.837-1.171c0.279-0.278,6.442-6.279,14.465-3.61c0.14,3.184,0.134,6.405-0.032,9.615
		c-5.037-1.883-9.826-2.026-14.292-0.403c-10.377,3.772-14.592,15.777-14.766,16.286c-0.689,2.012,0.317,4.211,2.289,5.006
		c2.521,1.016,11.413,4.346,19.591,4.346c2.396,0,4.728-0.292,6.823-1.006c1.262,7.427,0.56,14.973-1.682,22.967
		c-0.032,0.092-0.054,0.187-0.079,0.282c-2.775,9.751-7.814,20.171-14.35,31.862c-7.628,13.657-23.486,20.222-38.561,15.971
		c-45.324-12.794-57.562-35.71-57.669-35.92c-0.989-1.977-3.392-2.777-5.367-1.788C203.915,194.979,203.114,197.381,204.102,199.357
		z M141.508,145.24c-1.631-1.631-2.852-6.063-1.903-11.062c0.528-2.778,2.161-7.765,7.169-9.942
		c1.737-0.755,2.706-2.624,2.322-4.479c-1.701-8.219-0.367-16.508,3.567-22.172c3.258-4.691,8.178-7.572,14.624-8.564
		c1.665-0.256,2.991-1.528,3.316-3.181c5.114-25.998,30.938-33.863,44.089-33.863c0.771,0,1.501,0.027,2.179,0.079
		c1.926,0.148,3.683-1.102,4.175-2.971c0.122-0.461,1.88-2.536,8.264-4.263c12.065-3.258,30.04-2.426,36.039,3.573
		c1.218,1.219,3.078,1.52,4.618,0.75c8.488-4.249,30.017-3.217,39.189,13.819c3.798,7.049,5.054,14.8,3.63,22.415
		c-0.001,0.006-0.002,0.013-0.003,0.02l0,0.002l-0.001,0.005c-0.144,0.796-0.335,1.6-0.48,2.184
		c-1.158,4.548-4.845,6.166-7.921,6.166c-0.01,0-0.02,0-0.029,0c-1.189-0.004-2.471-0.254-3.657-0.828
		c2.046-0.702,3.903-1.935,5.368-3.605c2.349-2.681,3.383-6.118,2.911-9.687c-0.079-0.589-0.172-1.176-0.284-1.743
		c-0.001-0.005,0-0.01-0.001-0.015c-0.001-0.007-0.003-0.013-0.004-0.021c-0.001-0.005-0.001-0.01-0.002-0.015
		c-0.001-0.005-0.003-0.01-0.004-0.015c-0.328-1.698-0.788-3.196-1.372-4.45c-0.933-2.003-3.313-2.868-5.315-1.937
		c-0.79,0.368-1.394,0.964-1.79,1.67c-7.446-1.888-15.52-2.889-21.546-3.41c-4.671-0.398-9.242,1.276-12.544,4.605
		c-3.254,3.282-4.871,7.786-4.436,12.358c0.892,9.394,6.018,13.386,8.994,14.929c1.705,0.885,3.54,1.418,5.382,1.601
		c-1.147,1.806-2.693,3.338-4.654,4.622c-10.717,7.019-30.678,4.787-40.783,2.361c-1.149-0.276-2.363-0.029-3.314,0.675
		c-0.95,0.704-1.541,1.792-1.612,2.973c-0.871,14.366-14.245,24.422-14.373,24.517c-0.627,0.46-1.107,1.093-1.38,1.821
		c-0.13,0.347-3.202,8.636-4.238,20.042c-0.693,7.622,2.967,11.256,5.21,12.744c2.747,1.822,6.349,2.47,10.107,1.962
		c-0.917,2.039-2.354,3.665-4.225,4.717c-3.557,1.999-8.241,1.633-12.529-0.978c-0.933-0.567-2.057-0.729-3.112-0.447
		c-1.055,0.281-1.949,0.982-2.474,1.939c-4.593,8.365-11.009,12.873-18.554,13.034c-9.199,0.179-19.481-6.047-25.019-15.183
		c-0.662-1.093-1.807-1.803-3.079-1.912c-7.693-0.659-11.996-6.83-13.457-12.385c-1.383-5.256-0.384-10.441,2.374-12.329
		c0.982-0.672,1.614-1.746,1.724-2.931C142.772,147.253,142.35,146.08,141.508,145.24z M317.28,147.452
		c1.683,0.102,3.447,0.366,5.235,0.861c-0.219,1.116-0.456,2.225-0.725,3.32c-0.093,0.379-0.125,0.765-0.104,1.15
		c-1.483,0.732-3.751,0.927-6.377,0.746c1.26-1.342,2.038-3.142,2.038-5.128C317.346,148.079,317.319,147.764,317.28,147.452z
		 M183.991,39.073c24.646-15.52,51.822-23.64,76.542-22.872c24.128,0.753,42.93,9.926,52.941,25.828
		c5.6,8.896,8.087,19.597,7.436,31.182c-0.717-4.824-2.291-9.552-4.709-14.04c-11.093-20.6-34.866-22.708-47.317-18.239
		c-10.295-7.498-30.388-6.881-41.66-3.832c-6.086,1.646-10.244,3.954-12.42,6.887c-15.121,0.051-44.212,8.91-51.455,37.653
		c-7.319,1.711-13.248,5.61-17.256,11.382c-4.746,6.833-6.637,15.96-5.338,25.409c-4.617,3.038-7.837,8.079-9.009,14.255
		c-1.02,5.372-0.32,10.874,1.732,14.88c-1.789,2.318-2.929,5.3-3.348,8.617c-9.446-15.788-9.41-36.323,0.15-57.977
		C140.265,75.589,159.339,54.589,183.991,39.073z M44.758,72.886c17.017-17.021,38.377-28.726,61.773-33.849
		c20.224-4.428,41.133-3.797,60.942,1.766c-20.055,15.203-35.629,34.05-44.512,54.172c-0.305,0.69-0.599,1.379-0.886,2.068
		c-1.949-0.144-3.829-0.631-5.595-1.497c-3.322-1.629-5.946-4.402-7.388-7.808c-0.861-2.034-3.208-2.987-5.243-2.124
		c-2.034,0.861-2.985,3.209-2.124,5.243c1.709,4.036,4.519,7.475,8.064,9.974c-3.544,7.619-11.327,12.729-19.887,12.729
		c-9.834,0-18.34-6.508-21.032-15.759c4.484-3.999,7.91-9.039,9.978-14.715c0.756-2.075-0.313-4.371-2.389-5.128
		c-2.077-0.755-4.372,0.313-5.127,2.39c-1.849,5.076-5.09,9.502-9.38,12.806c-5.014,3.882-11.032,5.934-17.401,5.934
		c-6.013,0-11.807-1.891-16.632-5.366C32.723,86.283,38.347,79.297,44.758,72.886z M14.906,202.858
		C10.369,189.774,8,175.884,8,161.628c0-21.711,5.483-42.578,15.781-61.029c6.072,4.208,13.289,6.489,20.768,6.489
		c6.224,0,12.185-1.536,17.514-4.468c4.42,11.248,15.348,18.941,27.839,18.941c11.654,0,22.253-6.941,27.108-17.297
		c0.729,0.202,1.465,0.373,2.21,0.502c-2.748,8.491-4.136,16.842-4.123,24.928c0.019,11.752,2.989,22.412,8.83,31.688
		c2.841,4.502,6.296,8.554,10.266,12.062c2.55,4.025,6.309,7.553,11.417,9.38c-4.29,6.7-11.754,10.828-19.743,10.828
		c-9.813,0-18.664-6.191-22.022-15.407c-0.756-2.076-3.051-3.149-5.128-2.389c-2.076,0.756-3.145,3.052-2.389,5.127
		c1.76,4.831,4.656,9.029,8.303,12.368c-2.302,7.364-9.144,12.516-17.044,12.516c-6.804,0-13.011-3.955-15.997-9.906
		c2.844-2.115,5.149-4.975,6.594-8.391c0.86-2.035-0.091-4.382-2.125-5.242c-2.034-0.863-4.382,0.092-5.243,2.125
		c-1.934,4.571-6.39,7.525-11.353,7.525c-1.133,0-2.232-0.165-3.295-0.459c0.015-0.368,0.028-0.737,0.028-1.109
		c0-4.419-1.095-8.803-3.167-12.677c-1.042-1.948-3.467-2.684-5.414-1.641c-1.948,1.042-2.683,3.466-1.641,5.414
		c1.453,2.717,2.221,5.796,2.221,8.903c0,10.431-8.486,18.916-18.917,18.916c-5.264,0-10.152-2.109-13.764-5.939
		C15.327,203.186,15.122,203.011,14.906,202.858z M54.212,259.824l-9.454-9.455c-10.243-10.243-18.493-21.948-24.565-34.64
		c2.894,1.04,5.967,1.596,9.086,1.596c11.691,0,21.66-7.494,25.368-17.928c1.572,0.383,3.191,0.58,4.815,0.58
		c1.675,0,3.311-0.214,4.888-0.604c4.294,8.702,13.332,14.492,23.237,14.492c10.575,0,19.839-6.386,23.811-15.781
		c4.387,2.283,9.325,3.566,14.469,3.566c10.579,0,20.477-5.391,26.263-14.174c6.218,7.26,14.819,12.188,23.459,13.404
		c-0.678,5.322-3.803,15.284-17.013,23.583c-0.422-0.681-1.038-1.228-1.783-1.556c-1.013-0.446-2.167-0.452-3.185-0.019
		c-20.296,8.673-38.01,19.5-53.034,32.332c-0.466-0.247-0.926-0.505-1.374-0.771l-8.27-4.971c-1.268-0.762-2.855-0.761-4.123,0.001
		l-8.258,4.971C72.264,258.228,63.26,260.199,54.212,259.824z M61.989,267.602c7.725-0.704,14.961-2.856,20.683-6.296l6.199-3.73
		l5.428,3.263c-6.801,6.4-12.98,13.256-18.518,20.556L61.989,267.602z M81.497,287.11c17.328-23.181,41.421-41.783,71.742-55.328
		c4.265,7.192,13.363,14.285,27.121,21.173c-29.251,15.062-48.642,40.323-57.753,75.266L81.497,287.11z M244.292,411.469
		l-19.222,19.222l-58.872-58.875c-0.024-0.111-0.046-0.223-0.07-0.333c7.017-5.989,36.102-28.501,78.761-30.917
		c-0.18,16.131-0.708,69.719-0.71,69.978C244.178,410.863,244.223,411.17,244.292,411.469z M163.906,362.914
		c-3.322-10.816-7.366-16.788-10.477-20.009c-1.752-1.813-4.613-1.759-6.121,0.262c-1.205,1.615-1.038,3.804,0.303,5.166
		c1.698,1.725,4.324,5.196,6.886,11.781l-25.27-25.271c8.519-37.313,28.87-63.379,60.525-77.525c1.78,0.767,3.521,1.49,5.2,2.163
		c-1.616,0.523-3.21,1.144-4.77,1.871c-1.924,0.896-2.994,3.1-2.259,5.091c0.824,2.232,3.358,3.235,5.466,2.241
		c6.155-2.909,12.766-3.868,19.35-2.906c0.161,0.035,0.323,0.06,0.487,0.074c3.922,0.63,7.831,1.937,11.623,3.932
		c10.826,5.693,18.664,16.089,20.458,27.146c1.848,12.445,4.776,24.074,8.702,34.563l0.327,0.874
		C208.284,331.643,175.819,353.424,163.906,362.914z M256.191,340.395c-0.48,2.163-1.861,3.813-3.38,5.035
		c0.022-1.701,0.045-3.397,0.069-5.076C253.979,340.359,255.077,340.362,256.191,340.395z M252.228,403.532
		c0.073-10.001,0.228-29.252,0.467-48.707c5.391-2.472,12.098-7.93,11.668-16.755c-0.061-1.246-0.362-2.467-0.786-3.64
		c-0.772-2.139-2.076-5.743-2.076-5.743c-3.729-9.962-6.515-21.043-8.276-32.9c-0.004-0.028-0.019-0.127-0.024-0.155
		c-1.548-9.541-6.746-18.643-14.261-25.578c0.561-1.018,1.17-2.04,1.821-3.062c3.385,0.593,6.846,0.887,10.29,0.887
		c9.651,0,19.143-2.282,26.281-6.573l6.197-3.73l6.198,3.73c14.47,8.704,38.014,8.703,52.482,0.001l6.208-3.731l6.199,3.73
		c9.081,5.465,21.869,7.552,33.75,6.087L252.228,403.532z M405.391,250.369l-5.823,5.823c-10.357,4.606-24.624,4.795-35.302,0.854
		l9.377-34.673l18.085,3.617c0.265,0.054,0.529,0.079,0.789,0.079c1.868,0,3.538-1.315,3.918-3.217
		c0.433-2.166-0.972-4.273-3.138-4.706l-17.561-3.512l5.98-22.113l14.012,2.802c0.265,0.054,0.529,0.079,0.789,0.079
		c1.868,0,3.538-1.315,3.918-3.217c0.433-2.166-0.972-4.273-3.138-4.706l-13.488-2.698l4.645-17.177l10.514,2.365
		c0.295,0.066,0.591,0.099,0.882,0.099c1.829,0,3.48-1.264,3.898-3.123c0.485-2.155-0.869-4.296-3.024-4.78l-10.179-2.29
		l1.829-6.763c0.577-2.132-0.685-4.328-2.817-4.905c-2.134-0.578-4.329,0.685-4.906,2.817l-1.918,7.094l-8.676-1.952
		c-2.153-0.482-4.296,0.869-4.78,3.024c-0.485,2.155,0.869,4.296,3.024,4.78l8.341,1.877l-4.695,17.362l-15.316-3.063
		c-2.166-0.44-4.273,0.972-4.707,3.138c-0.433,2.166,0.972,4.273,3.138,4.706l14.793,2.958l-5.98,22.113l-21.243-4.249
		c-2.169-0.438-4.273,0.971-4.707,3.138c-0.433,2.166,0.972,4.273,3.138,4.706l20.72,4.144l-8.812,32.583l-6.487-3.904
		c-1.27-0.764-2.856-0.764-4.123-0.001l-8.271,4.972c-11.988,7.213-32.246,7.212-44.235,0l-8.26-4.971
		c-1.27-0.764-2.856-0.762-4.125,0l-8.258,4.971c-7.036,4.23-17.303,6.1-27.126,5.183c7.384-9.203,16.4-17.326,19.992-20.437
		c0.23,0.066,0.447,0.135,0.679,0.201c3.799,1.072,7.639,1.589,11.424,1.589c14.8,0,28.775-7.896,36.293-21.356
		c5.503-9.844,11.021-20.463,14.398-31.473l4.642-1.321c3.681-1.048,6.633-3.676,8.1-7.211s1.242-7.482-0.617-10.828l-7.213-12.983
		c4.09-1.459,7.42-4.432,9.366-8.444c2.374-4.897,2.253-10.452-0.331-15.241l-11.857-21.98c3.048,0.953,6.24,1.459,9.51,1.459
		c14.09,0,26.182-9.033,30.366-22.039c2.086,0.581,4.25,0.89,6.425,0.89c2.221,0,4.385-0.318,6.454-0.896
		c4.955,10.668,15.846,17.825,27.825,17.825c5.706,0,11.262-1.594,16.059-4.543c9.509,17.89,14.555,37.948,14.555,58.783
		C442.155,195.152,429.099,226.666,405.391,250.369z"/>
</g>
<g>
</g>
<g>
</g>
<g>
</g>
<g>
</g>
<g>
</g>
<g>
</g>
<g>
</g>
<g>
</g>
<g>
</g>
<g>
</g>
<g>
</g>
<g>
</g>
<g>
</g>
<g>
</g>
<g>
</g>
</svg>
