<?xml version="1.0" encoding="iso-8859-1"?>
<!-- Generator: Adobe Illustrator 18.0.0, SVG Export Plug-In . SVG Version: 6.00 Build 0)  -->
<!DOCTYPE svg PUBLIC "-//W3C//DTD SVG 1.1//EN" "http://www.w3.org/Graphics/SVG/1.1/DTD/svg11.dtd">
<svg version="1.1" id="Capa_1" xmlns="http://www.w3.org/2000/svg" xmlns:xlink="http://www.w3.org/1999/xlink" x="0px" y="0px"
	 viewBox="0 0 482.04 482.04" style="enable-background:new 0 0 482.04 482.04;" xml:space="preserve">
<g>
	<path d="M447.003,247.115l33.734-30.796c1.219-1.113,1.629-2.861,1.032-4.4c-0.597-1.539-2.078-2.554-3.729-2.554H407.55
		c15.386-10.363,27.877-24.685,35.9-41.465c3.873-8.107,6.696-16.75,8.391-25.69c0.412-2.17-1.014-4.263-3.185-4.675
		c-9.149-1.735-18.419-2.218-27.646-1.487c5.19-14.017,7.488-28.764,6.827-43.937c-0.046-1.061-0.512-2.059-1.294-2.776
		c-0.782-0.716-1.814-1.089-2.878-1.046c-31.561,1.392-61.026,15.949-81.305,40.059c-13.694-10.18-30.224-15.683-47.599-15.683
		c-20.063,0-38.995,7.333-53.74,20.734c-14.745-13.401-33.678-20.735-53.74-20.735c-17.375,0-33.905,5.503-47.6,15.683
		c-20.279-24.11-49.744-38.667-81.305-40.059c-1.059-0.042-2.095,0.33-2.878,1.046c-0.783,0.717-1.249,1.715-1.294,2.776
		c-0.66,15.172,1.637,29.92,6.826,43.937c-9.226-0.73-18.496-0.248-27.645,1.487c-2.17,0.412-3.596,2.504-3.185,4.675
		c1.694,8.939,4.517,17.583,8.391,25.691c8.022,16.779,20.513,31.101,35.899,41.464H4c-1.651,0-3.132,1.015-3.729,2.554
		c-0.597,1.54-0.187,3.287,1.033,4.4l33.734,30.796L1.303,277.91c-1.219,1.113-1.629,2.861-1.033,4.4
		c0.597,1.539,2.079,2.554,3.729,2.554h89.027v31.996c0,2.209,1.791,4,4,4h47.712c-2.364,8.437-3.579,17.11-3.579,25.864
		c0,15.564,3.894,31.094,11.26,44.912c0.499,0.936,1.35,1.636,2.365,1.945c0.381,0.116,0.773,0.173,1.165,0.173
		c0.65,0,1.297-0.159,1.882-0.471c26.158-13.95,44.098-38.882,49.18-67.751l34.009,34.009l34.009-34.009
		c5.08,28.869,23.02,53.802,49.18,67.752c0.584,0.312,1.231,0.471,1.882,0.471c0.392,0,0.784-0.058,1.165-0.173
		c1.015-0.309,1.865-1.009,2.364-1.945c7.367-13.817,11.261-29.347,11.261-44.912c0-8.754-1.215-17.428-3.579-25.864h47.711
		c2.209,0,4-1.791,4-4v-31.996h89.027c1.651,0,3.133-1.015,3.729-2.554c0.597-1.54,0.187-3.287-1.032-4.4L447.003,247.115z
		 M443.136,144.718c-1.593,6.841-3.909,13.462-6.904,19.731c-9.311,19.475-25.135,35.378-44.618,44.916h-18.608
		c1.148-5.432,1.754-11.018,1.754-16.7c0-9.806-1.773-19.334-5.129-28.244c13.294-10.472,29.076-17.289,45.745-19.718
		C424.599,143.362,433.921,143.368,443.136,144.718z M127.113,245.363H106.75l11.801-11.696
		C121.019,237.788,123.89,241.694,127.113,245.363z M138.156,245.363l-1.787-1.787c-1.665-1.665-3.236-3.399-4.715-5.192
		l18.057-16.059c25.485-22.664,62.33-28.917,93.862-15.932c31.188,12.842,66.239,8.872,93.765-10.625l27.537-19.506
		c1.234,5.317,1.886,10.809,1.886,16.403c0,19.232-7.49,37.313-21.089,50.912l-1.787,1.787H138.156z M363.489,233.667l11.801,11.696
		h-20.364C358.149,241.694,361.021,237.788,363.489,233.667z M419.945,96.539c0.084,14.062-2.593,27.695-7.965,40.613
		c-16.547,2.784-32.226,9.543-45.663,19.705c-3.802-7.579-8.819-14.59-14.99-20.761c-0.913-0.913-1.846-1.798-2.794-2.661
		C366.496,112.112,392.199,98.846,419.945,96.539z M238.191,141.753l2.829,2.828l2.828-2.828
		c13.6-13.599,31.68-21.088,50.912-21.088c19.231,0,37.312,7.489,50.911,21.088c7.593,7.593,13.276,16.585,16.82,26.392
		l-29.779,21.094c-25.272,17.901-57.457,21.548-86.093,9.756c-16.971-6.988-35.507-9.057-53.601-5.987
		c-18.095,3.072-34.909,11.142-48.624,23.338l-17.493,15.557c-7.556-11.575-11.622-25.092-11.622-39.238
		c0-19.232,7.489-37.313,21.089-50.912c13.599-13.6,31.679-21.089,50.911-21.089S224.592,128.154,238.191,141.753z M133.506,133.434
		c-0.948,0.863-1.881,1.749-2.794,2.661c-6.17,6.17-11.187,13.181-14.989,20.761c-13.437-10.161-29.115-16.92-45.663-19.705
		c-5.372-12.918-8.049-26.551-7.965-40.613C89.841,98.846,115.543,112.112,133.506,133.434z M45.808,164.45
		c-2.996-6.271-5.312-12.892-6.905-19.732c9.216-1.351,18.535-1.356,27.759-0.016c16.669,2.43,32.452,9.246,45.746,19.718
		c-3.357,8.91-5.129,18.438-5.129,28.244c0,5.682,0.606,11.268,1.754,16.7H90.426C70.943,199.827,55.119,183.923,45.808,164.45z
		 M14.315,276.865l29.352-26.796c0.83-0.758,1.303-1.83,1.303-2.954s-0.473-2.196-1.303-2.954l-29.352-26.796h96.856
		c0.982,3.038,2.138,6.013,3.479,8.906l-20.424,20.242c-0.738,0.726-1.197,1.733-1.197,2.85v27.501H14.315z M157.637,384.214
		c-5.557-11.715-8.478-24.591-8.478-37.49c0-8.77,1.323-17.455,3.91-25.864h46.577C196,347.351,180.62,370.561,157.637,384.214z
		 M213.653,320.86h54.735l-27.367,27.368L213.653,320.86z M332.88,346.724c0,12.899-2.921,25.776-8.479,37.49
		c-22.983-13.653-38.362-36.864-42.008-63.354h46.576C331.557,329.27,332.88,337.955,332.88,346.724z M381.012,312.86H101.027
		v-59.497h279.985V312.86z M389.012,276.865v-27.501c0-1.114-0.457-2.119-1.191-2.845l-20.43-20.247
		c1.341-2.894,2.496-5.869,3.479-8.906h96.855l-29.353,26.796c-0.83,0.758-1.303,1.83-1.303,2.954s0.473,2.196,1.303,2.954
		l29.353,26.796H389.012z"/>
	<path d="M139.376,303.775h20.904c2.209,0,4-1.791,4-4v-6.5c0-2.209-1.791-4-4-4s-4,1.791-4,4v2.5h-12.904v-28c0-2.209-1.791-4-4-4
		s-4,1.791-4,4v32C135.376,301.984,137.167,303.775,139.376,303.775z"/>
	<path d="M206.516,303.775c11.028,0,20-8.972,20-20s-8.972-20-20-20s-20,8.972-20,20S195.488,303.775,206.516,303.775z
		 M206.516,271.775c6.617,0,12,5.383,12,12s-5.383,12-12,12s-12-5.383-12-12S199.899,271.775,206.516,271.775z"/>
	<path d="M318.376,303.775h20.904c2.209,0,4-1.791,4-4v-4.5c0-2.209-1.791-4-4-4s-4,1.791-4,4v0.5h-12.904v-8h9.904
		c2.209,0,4-1.791,4-4s-1.791-4-4-4h-9.904v-8h12.904v0.5c0,2.209,1.791,4,4,4s4-1.791,4-4v-4.5c0-2.209-1.791-4-4-4h-20.904
		c-2.209,0-4,1.791-4,4v32C314.376,301.984,316.167,303.775,318.376,303.775z"/>
	<path d="M247.78,271.775h2.908l14.895,29.789c0.678,1.355,2.063,2.211,3.578,2.211s2.9-0.856,3.578-2.211l14.895-29.789h2.446
		c2.209,0,4-1.791,4-4s-1.791-4-4-4h-10.5c-2.209,0-4,1.791-4,4c0,1.919,1.353,3.518,3.155,3.907l-9.574,19.149l-9.636-19.273
		c1.596-0.526,2.755-2.011,2.755-3.782c0-2.209-1.791-4-4-4h-10.5c-2.209,0-4,1.791-4,4S245.571,271.775,247.78,271.775z"/>
</g>
<g>
</g>
<g>
</g>
<g>
</g>
<g>
</g>
<g>
</g>
<g>
</g>
<g>
</g>
<g>
</g>
<g>
</g>
<g>
</g>
<g>
</g>
<g>
</g>
<g>
</g>
<g>
</g>
<g>
</g>
</svg>
