<?xml version="1.0" encoding="iso-8859-1"?>
<!-- Generator: Adobe Illustrator 18.0.0, SVG Export Plug-In . SVG Version: 6.00 Build 0)  -->
<!DOCTYPE svg PUBLIC "-//W3C//DTD SVG 1.1//EN" "http://www.w3.org/Graphics/SVG/1.1/DTD/svg11.dtd">
<svg version="1.1" id="Capa_1" xmlns="http://www.w3.org/2000/svg" xmlns:xlink="http://www.w3.org/1999/xlink" x="0px" y="0px"
	 viewBox="0 0 446.425 446.425" style="enable-background:new 0 0 446.425 446.425;" xml:space="preserve">
<g>
	<path d="M402.553,26.65c-9.854-22.47-36.156-32.731-58.626-22.879c-22.472,9.855-32.735,36.155-22.88,58.626
		c13.804,31.472,21.1,68.119,21.1,105.983c0,53.339-14.145,102.927-39.829,139.627c-22.301,31.867-50.395,49.417-79.105,49.417
		s-56.804-17.55-79.105-49.417c-25.684-36.7-39.829-86.288-39.829-139.627c0-37.862,7.296-74.511,21.099-105.983
		c9.855-22.471-0.409-48.771-22.879-58.626C91.614-1.003,79.521-1.252,68.447,3.069C57.373,7.39,48.645,15.765,43.871,26.651
		c-18.706,42.652-28.593,91.661-28.593,141.729c0,71.427,19.856,139.137,55.911,190.656c18.587,26.562,40.588,47.629,65.391,62.62
		c27.193,16.435,56.34,24.768,86.632,24.768c30.293,0,59.441-8.333,86.632-24.768c24.803-14.991,46.804-36.059,65.391-62.619
		c36.055-51.52,55.911-119.23,55.911-190.657C431.146,118.312,421.259,69.303,402.553,26.65z M347.14,11.097
		c18.434-8.083,40.003,0.336,48.087,18.766c2.583,5.889,4.973,11.915,7.209,18.04l-10.758,5.498
		c-2.283-6.349-4.771-12.63-7.442-18.722c-3.909-8.907-12.723-14.662-22.453-14.662c-3.383,0-6.688,0.694-9.826,2.066
		c-12.373,5.428-18.023,19.908-12.596,32.283c3.041,6.918,5.799,14.161,8.255,21.555l-10.814,5.527
		c-2.482-7.646-5.281-15.09-8.428-22.264C320.29,40.753,328.708,19.181,347.14,11.097z M354.821,72.238
		c-2.438-7.227-5.155-14.308-8.136-21.088c-3.655-8.333,0.151-18.086,8.479-21.739c2.118-0.925,4.345-1.395,6.618-1.395
		c6.556,0,12.494,3.877,15.127,9.876c2.733,6.233,5.268,12.674,7.582,19.181L354.821,72.238z M339.189,89.212l65.922-33.692
		c6.678,19.843,11.546,40.749,14.53,62.243l-69.869,35.701C348.667,131.209,345.079,109.536,339.189,89.212z M308.872,312.596
		c26.616-38.033,41.274-89.25,41.274-144.215c0-2.033-0.033-4.061-0.073-6.087l51.571-26.351
		c0.992,10.749,1.499,21.632,1.499,32.434c0,65.75-18.058,127.76-50.848,174.605c-16.343,23.347-35.497,41.754-56.942,54.717
		c-0.677,0.413-1.366,0.804-2.051,1.202c-8.521-1.992-17.435-3.629-26.721-4.87c-16.855-2.247-31.327-11.863-39.722-26.415
		l-1.317-2.235C256.111,364.477,285.621,345.819,308.872,312.596z M137.552,312.596c23.251,33.223,52.759,51.88,83.327,52.786
		l-1.332,2.266c-8.377,14.52-22.849,24.137-39.705,26.384c-9.285,1.241-18.199,2.878-26.72,4.87
		c-0.69-0.401-1.384-0.796-2.061-1.208c-21.435-12.957-40.59-31.364-56.933-54.711C61.34,296.136,43.283,234.126,43.283,168.377
		c0-10.802,0.507-21.685,1.499-32.434l51.57,26.351c-0.041,2.026-0.074,4.054-0.074,6.087
		C96.278,223.346,110.936,274.562,137.552,312.596z M96.652,153.464l-69.869-35.701c2.984-21.494,7.853-42.4,14.53-62.243
		l65.922,33.692C101.346,109.536,97.758,131.209,96.652,153.464z M61.934,57.074c2.313-6.502,4.847-12.943,7.581-19.181
		c2.634-6,8.572-9.877,15.127-9.877c2.275,0,4.497,0.469,6.604,1.394c4.031,1.767,7.136,5.004,8.742,9.117
		c1.606,4.112,1.517,8.595-0.249,12.62c-2.983,6.789-5.701,13.87-8.137,21.091L61.934,57.074z M71.355,10.521
		c4.304-1.68,8.795-2.518,13.28-2.518c4.979,0,9.952,1.033,14.649,3.094c18.431,8.084,26.85,29.655,18.767,48.087
		c-3.146,7.174-5.945,14.618-8.427,22.264L98.81,75.921c2.454-7.388,5.212-14.632,8.256-21.558
		c2.625-5.985,2.759-12.643,0.375-18.746s-6.994-10.91-12.981-13.534c-3.125-1.371-6.429-2.066-9.817-2.066
		c-9.729,0-18.543,5.755-22.454,14.664c-2.672,6.095-5.159,12.376-7.441,18.721l-10.758-5.499c2.235-6.124,4.626-12.15,7.208-18.039
		C55.114,20.935,62.272,14.066,71.355,10.521z M77.744,354.451c-35.123-50.188-54.465-116.27-54.465-186.07
		c0-14.195,0.837-28.293,2.434-42.182l11.413,5.832c-1.217,12.023-1.842,24.235-1.842,36.346
		c0,67.375,18.571,131.014,52.293,179.193c15.827,22.609,34.244,40.787,54.79,54.108c-4.985,1.409-9.809,2.953-14.461,4.63
		C109.234,392.787,92.405,375.402,77.744,354.451z M305.706,414.81c-25.925,15.669-53.68,23.614-82.494,23.614
		c-28.813,0-56.568-7.945-82.495-23.615c-1.543-0.932-3.073-1.892-4.593-2.873c13.596-4.456,28.608-7.814,44.777-9.976
		c17.31-2.308,32.437-11.405,42.313-25.238c9.888,13.842,25.008,22.932,42.309,25.238c16.17,2.161,31.181,5.52,44.778,9.976
		C308.78,412.918,307.249,413.878,305.706,414.81z M368.681,354.451c-14.661,20.951-31.49,38.336-50.161,51.857
		c-4.652-1.678-9.476-3.221-14.461-4.63c20.551-13.326,38.966-31.501,54.791-54.108c33.722-48.179,52.293-111.817,52.293-179.193
		c0-12.112-0.625-24.323-1.842-36.346l11.413-5.832c1.597,13.889,2.433,27.987,2.433,42.182
		C423.146,238.182,403.804,304.263,368.681,354.451z"/>
	<path d="M89.925,183.408c0-8.524-6.935-15.459-15.458-15.459c-8.523,0-15.458,6.935-15.458,15.459
		c0,8.523,6.935,15.458,15.458,15.458C82.99,198.866,89.925,191.931,89.925,183.408z M74.466,190.866
		c-4.112,0-7.458-3.346-7.458-7.458c0-4.113,3.346-7.459,7.458-7.459c4.113,0,7.458,3.346,7.458,7.459
		C81.925,187.52,78.579,190.866,74.466,190.866z"/>
	<path d="M76.292,271.512c0,8.523,6.935,15.458,15.458,15.458s15.458-6.935,15.458-15.458s-6.935-15.458-15.458-15.458
		S76.292,262.988,76.292,271.512z M99.209,271.512c0,4.112-3.346,7.458-7.458,7.458s-7.458-3.346-7.458-7.458
		s3.346-7.458,7.458-7.458S99.209,267.399,99.209,271.512z"/>
	<path d="M147.306,370.304c8.523,0,15.458-6.935,15.458-15.459c0-8.523-6.935-15.458-15.458-15.458
		c-8.524,0-15.458,6.935-15.458,15.458C131.848,363.369,138.782,370.304,147.306,370.304z M147.306,347.387
		c4.112,0,7.458,3.346,7.458,7.458c0,4.113-3.346,7.459-7.458,7.459c-4.113,0-7.458-3.346-7.458-7.459
		C139.848,350.732,143.193,347.387,147.306,347.387z"/>
	<path d="M371.959,198.866c8.523,0,15.458-6.935,15.458-15.458c0-8.524-6.935-15.459-15.458-15.459
		c-8.524,0-15.459,6.935-15.459,15.459C356.5,191.931,363.434,198.866,371.959,198.866z M371.959,175.949
		c4.112,0,7.458,3.346,7.458,7.459c0,4.112-3.346,7.458-7.458,7.458c-4.113,0-7.459-3.346-7.459-7.458
		C364.5,179.295,367.846,175.949,371.959,175.949z"/>
	<path d="M354.675,286.97c8.523,0,15.458-6.935,15.458-15.458s-6.935-15.458-15.458-15.458s-15.458,6.935-15.458,15.458
		S346.151,286.97,354.675,286.97z M354.675,264.054c4.112,0,7.458,3.346,7.458,7.458s-3.346,7.458-7.458,7.458
		s-7.458-3.346-7.458-7.458S350.562,264.054,354.675,264.054z"/>
	<path d="M299.119,370.304c8.523,0,15.458-6.935,15.458-15.459c0-8.523-6.935-15.458-15.458-15.458s-15.458,6.935-15.458,15.458
		C283.661,363.369,290.596,370.304,299.119,370.304z M299.119,347.387c4.112,0,7.458,3.346,7.458,7.458
		c0,4.113-3.346,7.459-7.458,7.459s-7.458-3.346-7.458-7.459C291.661,350.732,295.007,347.387,299.119,347.387z"/>
	<path d="M92.111,103.445l-10.246-6.444l-0.5-12.093c-0.063-1.521-0.984-2.875-2.376-3.492c-1.394-0.618-3.014-0.391-4.183,0.586
		l-9.294,7.753l-11.656-3.261c-1.466-0.415-3.039,0.047-4.055,1.181c-1.017,1.133-1.302,2.745-0.736,4.158l4.501,11.235
		l-6.704,10.077c-0.843,1.269-0.894,2.904-0.13,4.222s2.225,2.078,3.728,1.985l12.077-0.809l7.513,9.489
		c0.768,0.97,1.929,1.517,3.136,1.517c0.278,0,0.56-0.029,0.838-0.089c1.489-0.319,2.667-1.456,3.04-2.932l2.962-11.736
		l11.346-4.212c1.427-0.53,2.43-1.824,2.587-3.339C94.117,105.727,93.4,104.256,92.111,103.445z M75.271,108.025
		c-1.234,0.458-2.164,1.494-2.486,2.771l-1.493,5.917l-3.788-4.784c-0.762-0.962-1.918-1.517-3.136-1.517
		c-0.089,0-0.178,0.003-0.268,0.009l-6.088,0.408l3.379-5.08c0.729-1.097,0.872-2.481,0.382-3.703l-2.269-5.664l5.876,1.644
		c1.268,0.354,2.629,0.063,3.64-0.78l4.685-3.908l0.252,6.096c0.054,1.315,0.752,2.521,1.867,3.221l5.165,3.249L75.271,108.025z"/>
	<path d="M352.465,107.242c0.156,1.515,1.159,2.809,2.586,3.339l11.348,4.212l2.962,11.735c0.372,1.477,1.551,2.613,3.039,2.933
		c0.279,0.06,0.561,0.089,0.839,0.089c1.207,0,2.368-0.547,3.136-1.517l7.514-9.489l12.076,0.809
		c1.528,0.104,2.965-0.668,3.729-1.985s0.713-2.953-0.131-4.222l-6.703-10.077l4.501-11.235c0.566-1.413,0.281-3.025-0.735-4.158
		c-1.019-1.135-2.591-1.596-4.056-1.181l-11.655,3.261l-9.294-7.753c-1.168-0.975-2.79-1.203-4.183-0.586s-2.313,1.971-2.377,3.492
		l-0.5,12.093l-10.246,6.444C353.025,104.256,352.308,105.727,352.465,107.242z M370.6,102.653c1.114-0.7,1.813-1.905,1.867-3.221
		l0.252-6.096l4.685,3.908c1.011,0.844,2.372,1.136,3.641,0.78l5.875-1.644l-2.269,5.664c-0.49,1.222-0.347,2.606,0.383,3.703
		l3.379,5.08l-6.088-0.408c-1.318-0.088-2.587,0.477-3.403,1.508l-3.788,4.784l-1.493-5.916c-0.321-1.277-1.252-2.313-2.485-2.771
		l-5.721-2.123L370.6,102.653z"/>
</g>
<g>
</g>
<g>
</g>
<g>
</g>
<g>
</g>
<g>
</g>
<g>
</g>
<g>
</g>
<g>
</g>
<g>
</g>
<g>
</g>
<g>
</g>
<g>
</g>
<g>
</g>
<g>
</g>
<g>
</g>
</svg>
