<?xml version="1.0" encoding="iso-8859-1"?>
<!-- Generator: Adobe Illustrator 18.0.0, SVG Export Plug-In . SVG Version: 6.00 Build 0)  -->
<!DOCTYPE svg PUBLIC "-//W3C//DTD SVG 1.1//EN" "http://www.w3.org/Graphics/SVG/1.1/DTD/svg11.dtd">
<svg version="1.1" id="Capa_1" xmlns="http://www.w3.org/2000/svg" xmlns:xlink="http://www.w3.org/1999/xlink" x="0px" y="0px"
	 viewBox="0 0 480.999 480.999" style="enable-background:new 0 0 480.999 480.999;" xml:space="preserve">
<path d="M368.655,409.609c-1.96-1.223-4.515-0.544-5.621,1.449l-14.224,25.629l-0.992-0.615c0.082-1.46-0.216-2.921-0.875-4.266
	l15.406-48.614c0.658-2.108-0.517-4.352-2.625-5.011c-2.109-0.659-4.353,0.517-5.012,2.625l-14.418,46.137
	c-1.078-0.149-2.196-0.117-3.313,0.155l-19.219,4.675c-3.119,0.759-6.323-1.027-7.247-4.101
	c-6.311-20.999-7.041-43.394-2.111-64.758l3.397-14.722c7.959-34.487-1.322-70.371-24.843-96.629l2.111-3.389
	c11.024-17.69,10.644-39.739-0.436-56.856c6.641-1.221,13.141-3.393,19.281-6.555c3.855-1.988,8.412-1.894,12.185,0.247l2.585,1.468
	c6.51,3.696,14.562,4.837,21.326,1.631c0.725-0.344,1.293-0.053,1.56,0.145c0.259,0.192,0.683,0.625,0.604,1.373l-1.116,10.608
	c-0.107,1.021,0.104,2.077,0.709,2.907c0.799,1.097,2.018,1.667,3.252,1.667c0.544,0,1.09-0.11,1.604-0.335
	c5.492-2.403,9.721-6.802,11.905-12.385c1.742-4.453,2.019-9.235,0.839-13.776c1.98-1.662,3.334-4.005,3.75-6.662
	c0.505-3.225-0.465-6.418-2.544-8.813l2.925-23.399c0.29-2.32-1.469-4.425-3.864-4.495c-2.088-0.061-3.836,1.6-4.095,3.673
	l-2.156,17.247c-1.227-1.741-2.873-3.143-4.812-4.108l4.88-32.206c0.325-2.144-0.994-4.305-3.119-4.736
	c-2.264-0.459-4.417,1.068-4.758,3.32l-4.908,32.391c-1.876,0.3-3.691,1.004-5.326,2.125l-7.45,5.106
	c-0.033,0.023-0.066,0.046-0.1,0.071c-1.69,1.236-3.561,2.175-5.56,2.79c-4.131,1.271-8.692,0.284-12.205-2.64
	c-8.25-6.866-19.431-9.6-29.907-7.312c-1.024,0.222-2.105-0.027-2.976-0.684c-1.485-1.12-1.957-3.134-1.097-4.684
	c7.46-13.449,5.503-29.947-3.882-41.377c0.536-8.042,9.251-13.141,11.823-14.475c0.012-0.001,0.023-0.003,0.035-0.004
	c3.62-0.403,6.967,1.986,7.859,5.518l1.447,5.733c2.244,8.891,8.584,15.004,16.556,16.289c1.127,0.182,2.243,0.27,3.345,0.27
	c6.973,0,13.311-3.557,17.011-9.725l2.489-4.149c0.684-1.139,1.114-2.428,1.158-3.756c0.083-2.489-0.973-4.262-2.444-5.473
	c0.098-3.227-1.27-6.385-4.021-8.626c-1.886-1.537-4.296-2.191-6.729-2.256c-1.668-0.044-3.189-0.763-4.29-2.033
	c-0.981-1.132-1.551-3.339-1.363-4.824l0.807-6.385l0.421-0.033c3.212,3.566,7.511,5.89,12.335,6.604
	c0.322,0.048,0.643,0.074,0.964,0.107c-0.011,1.026-0.237,2.262-0.992,3.459c-1.018,1.614-0.992,3.742,0.337,5.111
	c0.82,0.845,1.869,1.244,2.899,1.244c1.293,0,2.562-0.625,3.332-1.782c1.978-2.968,2.512-6.13,2.405-8.777
	c2.394-0.713,4.668-1.85,6.716-3.42l0.653-0.5c0.058,0.008,0.116,0.011,0.174,0.018c-0.001,1.918-0.393,4.123-1.917,5.123
	c-1.251,0.82-1.906,2.365-1.614,3.832c0.436,2.187,2.191,3.394,3.988,3.394c0.792,0,1.592-0.235,2.29-0.724
	c4.566-3.196,5.502-8.811,5.214-13.166c2.166-1.247,3.986-3.161,5.202-5.646c2.85-5.826,1.287-12.341-3.89-16.211
	c-6.221-4.653-12.908-7.48-16.378-8.763c-1.657-6.798-6.962-12.298-13.853-14.092l-39.573-10.306L274.572,4.001
	c-0.901-0.74-2.068-1.138-3.221-0.964c-1.945,0.293-3.327,1.89-3.425,3.752l-0.817,15.539l-16.133-2.896
	c-1.839-0.328-3.714,0.65-4.445,2.504c-0.371,0.942-0.318,2.008,0.038,2.956c1.471,3.913,2.911,7.254,4.294,10.106l-2.73,1.599
	l-6.498-5.468c-1.022-2.873-3.231-5.142-6.14-6.242c-3.601-1.362-7.673-0.497-10.648,1.947l-4.341,3.566
	c-0.925-0.255-1.874-0.395-2.828-0.423l-1.15-26.155c-0.097-2.207-1.941-3.904-4.172-3.82c-2.207,0.097-3.917,1.965-3.82,4.172
	l1.252,28.469c-1.849,1.489-3.232,3.495-3.927,5.829c-1.344,4.514-3.149,8.444-5.365,11.683c-1.249,1.825-6.625,7.188-29.535,17.558
	c-10.818,4.897-16.902,16.185-15.18,27.829l-9.205,16.569c-1.697,3.054-2.132,6.718-0.921,9.996
	c1.617,4.378,5.529,7.306,10.065,7.685c1.19,0.099,2.193,0.181,3.051,0.249c-0.772,3.844-1.285,7.759-1.515,11.725
	c-1.411,24.328,7.778,48.046,25.211,65.072c4.795,4.682,7.934,10.583,9.147,17.022c-9.809-4.355-20.73-5.964-31.693-4.471
	l-8.944,1.219c-1.677,0.229-3.029,1.488-3.375,3.145l-1.472,7.052c-4.815,23.063-1.506,47.322,9.051,68.236l-6.362-2.726
	l-2.005-2.745c-2.073-2.838-5.405-4.61-8.915-4.423c-3.422,0.182-6.394,1.991-8.118,4.741c-0.826,0.192-1.611,0.481-2.366,0.823
	l-8.981-32.61c-0.555-2.014-2.523-3.408-4.581-3.047c-2.36,0.414-3.799,2.75-3.178,5.005l10.289,37.361
	c-1.333,3.278-1.229,6.879,0.218,10.014c-3.618,9.594-0.876,20.56,7.045,27.308l2.1,1.789c0.889,0.757,2.051,1.175,3.208,1.02
	c1.951-0.261,3.359-1.835,3.487-3.695l0.154-2.228c0.101-1.471,1.164-2.075,1.616-2.267c0.452-0.192,1.626-0.536,2.754,0.416
	c1.35,1.139,3.229,1.326,4.691,0.336c6.945-4.697,16.323-4.225,22.761,1.13l11.669,9.704c2.291,1.905,5.032,2.864,7.784,2.864
	c2.513,0,5.035-0.8,7.228-2.411c4.596-3.374,6.229-9.184,4.063-14.458l-11.2-27.288c-2.247-5.475-0.559-11.815,3.994-15.479
	l15.895,15.488c2.757,2.687,6.366,4.075,10.009,4.075c1.44,0,2.884-0.225,4.284-0.665c-0.63,6.652-2.69,13.162-6.139,18.999
	c-5.539,9.372-8.466,20.09-8.466,30.995c0,8.577,1.757,16.885,5.224,24.698l9.289,25.998c0.039,0.097,0.078,0.195,0.117,0.292
	c4.591,10.307,3.688,22.13-2.378,31.572c-0.118,0.177-0.255,0.366-0.419,0.567c-2.581,3.156-6.427,4.871-10.57,4.705
	c-4.281-0.171-8.133-2.277-10.578-5.78c-3.246-4.932-9.953-6.425-14.985-3.326c-3.097,1.907-5.323,5.038-6.107,8.589
	c-0.782,3.542-0.12,7.147,1.866,10.15c6.215,9.404,16.217,15.463,27.431,16.622c1.212,0.127,2.5,0.192,3.829,0.192
	c11.535,0,22.632-5.453,29.688-14.588c7.354-9.538,11.083-20.843,11.083-33.602c0-9.709-2.164-19.798-6.428-29.98
	c-0.541-1.296-1.202-2.642-2.082-4.236c-2.475-4.477-14.439-27.655-6.873-44.381c0.052-0.131,0.103-0.262,0.155-0.393l6.587-19.66
	l0.513,2.865c2.211,12.341,9.482,22.911,20.102,29.369c1.092,10.332,1.521,24.177,0.149,42.179
	c-0.413,5.423,1.363,10.788,4.898,14.921l0.234,0.274c8.184,9.573,13.272,21.285,14.717,33.87
	c0.944,8.242,8.178,14.398,16.464,14.016l20.773-0.958l0.608,1.123c2.67,4.929,7.647,7.767,12.866,7.863l-1.289,5.932
	c-0.329,1.512,0.125,3.145,1.323,4.125c0.751,0.615,1.652,0.913,2.544,0.913c0.994,0,1.979-0.37,2.74-1.084l8.132-7.641
	c3.111-2.923,5.153-6.88,5.421-11.141c0.187-2.981-0.423-5.88-1.739-8.453c1.439-1.556,2.379-3.555,2.64-5.777
	c0.122-1.035,0.083-2.054-0.092-3.037l15.945-28.731C370.972,413.24,370.493,410.755,368.655,409.609z M324.862,91.269
	c1.133,0,1.789,0.654,2.08,1.043c0.093,0.125,0.201,0.299,0.294,0.508l-7.728,0.493c-2.466,0.161-4.626-1.651-4.893-4.119
	l-0.302-2.791c0.044,0.052,0.081,0.108,0.126,0.159C317.077,89.553,320.876,91.269,324.862,91.269z M320.04,52.1
	c-1.245,2.201-3.738,3.305-6.205,2.749c-3.026-0.684-4.96-3.708-4.31-6.742l0.287-1.339c0.712,0.269,1.417,0.569,2.116,0.9
	l-0.16,1.741c-0.202,2.2,1.417,4.147,3.616,4.35c0.125,0.012,0.249,0.018,0.372,0.018c1.707,0,3.192-1.095,3.75-2.664
	c0.308,0.105,0.617,0.202,0.928,0.292L320.04,52.1z M339.406,47.469c1.157,0.433,2.725,1.064,4.517,1.899l-2.505,0.836
	c-1.47,0.49-2.523,1.785-2.706,3.323s0.539,3.043,1.853,3.864l1.135,0.709c3.375,2.109,7.254,3.186,11.15,3.186
	c0.773,0,1.545-0.056,2.315-0.141c-0.031,0.069-0.06,0.14-0.093,0.207c-0.872,1.784-2.84,3.409-5.731,2.613l-0.121-0.034
	c-1.256-0.414-2.637-0.182-3.688,0.624l-2.13,1.633c-2.763,2.117-6.179,3.002-9.622,2.493c-3.442-0.51-6.455-2.347-8.485-5.174
	l-2.213-3.083c1.567-1.132,2.916-2.606,3.922-4.384l2.298-4.062C332.954,51.421,336.454,49.901,339.406,47.469z M275.498,15.115
	l1.845,1.516c-0.694,0.27-1.35,0.565-1.971,0.877L275.498,15.115z M156.384,121.82c-1.293-0.108-2.385-0.826-2.996-1.971
	c-0.61-1.144-0.6-2.449,0.03-3.582l10.043-18.079c0.465-0.836,0.614-1.812,0.421-2.749c-1.746-8.478,2.521-16.882,10.376-20.438
	c27.422-12.413,31.499-18.371,32.838-20.329c2.685-3.924,4.848-8.607,6.429-13.917c0.459-1.542,1.616-2.215,2.265-2.479
	c1.141-0.466,2.414-0.39,3.489,0.208c1.436,0.796,3.212,0.637,4.482-0.406l6.464-5.31c0.972-0.799,1.993-0.557,2.388-0.416
	c0.395,0.141,1.339,0.602,1.585,1.834c0.178,0.89,0.653,1.692,1.347,2.276l5.259,4.425l-6.561,3.843
	c-8.172,4.787-15.443,10.779-21.628,17.693l-22.789,17.601c-13.97,10.792-24.045,25.571-29.078,42.144
	C159.696,122.091,158.288,121.979,156.384,121.82z M346.122,445.969c-0.048,0.418-0.287,1.417-1.432,1.85
	c-0.841,0.318-1.631,0.811-2.134,1.556c-1.086,1.61-0.872,3.647,0.348,4.979c0.736,0.803,1.41,1.674,1.77,2.702
	c1.021,2.912,0.515,5.863-1.168,8.069c0.113-1.66-0.819-3.282-2.47-3.975c-1.079-0.452-2.32-0.358-3.371,0.155
	c-3.379,1.648-7.407,0.359-9.201-2.951l-1.804-3.329c-0.73-1.35-2.178-2.167-3.701-2.09l-23.28,1.074
	c-4.094,0.188-7.68-2.857-8.147-6.936c-1.626-14.173-7.361-27.368-16.592-38.166l-0.221-0.259c-2.159-2.533-3.254-5.885-3.002-9.197
	c3.884-51.104-6.397-70.871-6.838-71.687c-1.045-1.944-3.47-2.673-5.418-1.625c-1.945,1.047-2.673,3.473-1.625,5.418
	c0.046,0.085,2.224,4.292,4.097,13.925c-5.48-5.133-9.211-11.91-10.574-19.52l-2.689-15.011c5.255-8.002,13.691-13.676,23.276-15.35
	c2.025-0.354,3.57-2.156,3.437-4.207c-0.156-2.411-2.346-4.099-4.668-3.699c-14.728,2.521-27.279,12.715-32.756,26.605
	c-0.025,0.065-0.049,0.13-0.071,0.196l-9.027,26.942c-8.761,19.67,3.318,44.281,7.238,51.372c0.734,1.33,1.274,2.425,1.703,3.452
	c3.854,9.204,5.81,18.253,5.81,26.895c0,10.95-3.169,20.612-9.416,28.714c-5.55,7.186-14.281,11.476-23.354,11.476
	c-1.05,0-2.056-0.05-2.999-0.149c-8.83-0.912-16.699-5.678-21.588-13.076c-0.78-1.181-1.039-2.606-0.728-4.014
	c0.324-1.469,1.209-2.713,2.49-3.502c1.408-0.868,3.217-0.459,4.119,0.929c0.022,0.034,0.044,0.067,0.067,0.1
	c3.886,5.611,10.032,8.986,16.862,9.259c6.661,0.272,12.895-2.515,17.088-7.641c0.317-0.39,0.603-0.777,0.913-1.243
	c7.54-11.735,8.676-26.332,3.051-39.078l-9.29-26c-0.04-0.1-0.08-0.199-0.12-0.299c-3.043-6.817-4.586-14.073-4.586-21.565
	c0-9.475,2.543-18.785,7.353-26.925c7.511-12.708,9.468-28.128,5.369-42.309l-1.622-5.595c-0.582-2.007-2.569-3.373-4.621-2.984
	c-2.355,0.446-3.761,2.801-3.11,5.047l1.669,5.757c0.778,2.691,1.285,5.436,1.555,8.195c-0.345,0.184-0.667,0.369-0.946,0.54
	c-2.478,1.526-5.665,1.171-7.75-0.859l-35.417-34.509c-1.777-1.732-4.756-1.477-6.178,0.73c-1.034,1.605-0.695,3.742,0.673,5.074
	l13.7,13.349c-6.716,5.937-9.119,15.665-5.651,24.115l11.2,27.288c1.155,2.813-0.778,4.517-1.397,4.972
	c-0.62,0.454-2.826,1.787-5.162-0.156l-11.669-9.704c-8.436-7.017-20.422-8.136-29.978-3.04c-2.651-1.177-5.702-1.23-8.467-0.057
	c-1.997,0.847-3.637,2.243-4.77,3.978c-3.667-4.901-4.384-11.565-1.571-17.237c0.627-1.264,0.396-2.728-0.426-3.874
	c-1.003-1.396-1.158-3.129-0.407-4.704c0.654-1.372,1.997-2.291,3.493-2.558l1.219-0.218c1.483-0.265,2.637-1.359,3.128-2.783
	c0.381-1.105,1.321-1.373,1.712-1.437c0.4-0.063,1.403-0.11,2.117,0.868l2.84,3.887c0.423,0.579,0.995,1.034,1.654,1.317
	l18.483,7.921c1.89,0.809,4.138,0.065,5.137-1.85c0.692-1.327,0.501-2.94-0.327-4.186c-14.105-21.24-19.205-47.721-13.993-72.682
	l0.895-4.287l6.146-0.838c14.002-1.913,27.94,2.036,38.795,10.875c1.645,1.34,4.028,1.233,5.485-0.309v0
	c1.61-1.705,1.397-4.403-0.423-5.883c-1.52-1.236-3.092-2.389-4.71-3.46c-0.346-10.414-4.602-20.109-12.092-27.425
	c-15.775-15.407-24.091-36.87-22.814-58.885c1.277-22.022,12.021-42.387,29.478-55.873l3.888-3.003
	c-3.365,6.967-5.856,14.398-7.35,22.142c-4.917,25.493,1.389,51.88,17.303,72.395c22.747,29.323,34.078,65.872,31.909,102.919
	c-0.127,2.167,1.483,4.092,3.648,4.254c0.118,0.009,0.233,0.014,0.347,0.014c2.102,0,3.864-1.64,3.989-3.765
	c2.292-38.993-9.631-77.463-33.572-108.325c-14.503-18.696-20.25-42.743-15.769-65.976c4.481-23.233,18.761-43.417,39.178-55.377
	l16.421-9.62c4.196,6.675,7.434,8.709,8.669,9.279c2.447,1.131,5.453-0.426,5.688-3.444c0.129-1.654-0.904-3.11-2.391-3.846
	c-2.094-1.036-6.096-6.896-9.931-15.408l11.305,2.029l2.813,6.469c0.655,1.506,2.126,2.406,3.67,2.406
	c0.755,0,1.529-0.215,2.228-0.68c1.632-1.085,2.162-3.251,1.381-5.049l-2.861-6.579c1.763-1.647,5.473-4.297,10.861-4.061
	l39.981,10.412c3.918,1.02,6.954,4.092,8.007,7.917c-3.812,3.011-9.022,3.644-13.512,1.495l-5.133-2.459
	c-14.313-6.854-31.101-3.569-41.772,8.172c-1.486,1.634-1.365,4.164,0.27,5.65c0.767,0.697,1.729,1.04,2.689,1.04
	c1.088,0,2.172-0.441,2.961-1.31c5.864-6.45,14.109-9.59,22.365-8.994l-0.295,1.375c-1.556,7.258,3.036,14.489,10.247,16.188
	l-1.385,0.109c-1.969,0.154-3.884-0.435-5.402-1.611c-0.477-0.37-0.915-0.798-1.303-1.279c0,0-0.351-0.394-0.56-0.567
	c-1.696-1.41-4.221-1.176-5.632,0.524l-1.747,2.105c-2.203,2.655-3.244,6.15-2.601,9.539c0.83,4.371,4.007,7.761,8.2,8.902
	c2.515,0.684,4.392,2.777,4.672,5.368c0.24,2.222,0.47,4.346,0.47,4.346c0.728,6.735,6.576,11.667,13.355,11.243l8.978-0.573
	l-1.612,2.687c-3.039,5.064-8.216,6.266-12.048,5.699c-3.831-0.566-8.439-3.21-9.886-8.938l-1.993-7.896
	c-1.818-7.208-8.745-11.85-16.102-10.8c-7.949,1.136-15.724-3.221-18.904-10.595l-4.936-11.443
	c-0.828-1.919-2.969-3.027-4.958-2.385c-2.281,0.736-3.383,3.248-2.456,5.396l5.005,11.601c2.894,6.709,8.416,11.688,14.975,14.06
	c-2.626,2.441-5.153,5.595-6.627,9.474c-0.409-0.298-0.821-0.592-1.245-0.874l-8.768-5.845c-1.589-1.059-3.75-0.943-5.102,0.404
	c-1.86,1.853-1.488,4.817,0.577,6.194l8.855,5.904c12.439,8.293,16.518,25.007,9.282,38.051c-2.782,5.018-1.374,11.445,3.276,14.952
	c2.734,2.063,6.196,2.834,9.499,2.112c8.088-1.763,16.715,0.345,23.083,5.645c5.597,4.659,12.95,6.206,19.675,4.138
	c2.831-0.872,5.481-2.198,7.878-3.941l7.235-4.959c1.299-0.89,2.936-1.243,4.446-0.798c1.629,0.48,2.871,1.691,3.391,3.289
	c0.252,0.773,0.681,1.477,1.336,1.958l5.19,3.806c1.288,0.945,1.235,2.27,1.153,2.795c-0.083,0.526-0.438,1.804-1.954,2.309
	c-1.066,0.355-1.934,1.143-2.391,2.17c-0.456,1.027-0.46,2.199-0.009,3.229c1.546,3.535,1.624,7.46,0.218,11.054
	c-0.29,0.743-0.637,1.453-1.035,2.125l0.058-0.549c0.35-3.326-0.915-6.69-3.547-8.755c-2.827-2.218-6.535-2.67-9.808-1.19
	c-4.291,1.941-9.298,1.45-13.394-0.875l-3.306-1.876c-6.04-3.429-13.438-3.705-19.601-0.502c-16.02,8.325-34.819,9.194-51.532,2.392
	c-0.538-0.219-0.898-0.738-0.924-1.318l-0.189-4.164c-0.514-11.316-4.558-22.098-11.123-31.329
	c-7.728-10.867-9.844-24.899-5.675-37.557c0.666-2.021-0.277-4.328-2.254-5.118c-2.159-0.863-4.564,0.274-5.289,2.446
	c-5.003,15.01-2.565,31.665,6.518,44.61c5.899,8.408,9.419,18.25,9.886,28.51l0.135,2.966c0.167,3.679,2.44,6.953,5.849,8.343
	c9.549,3.895,19.7,5.563,29.744,5.057c11.628,14.911,12.768,35.379,2.689,51.555l-3.723,5.974c-0.963,1.545-0.761,3.546,0.491,4.867
	c23.214,24.486,32.544,58.732,24.957,91.609l-3.397,14.722c-5.238,22.694-4.469,46.482,2.225,68.792
	c2.152,7.175,9.543,11.407,16.818,9.638l19.219-4.675c0.121-0.029,0.483-0.117,0.784,0.277c0.301,0.395,0.119,0.721,0.06,0.829
	c-1.037,1.866-0.427,4.216,1.387,5.342l3.964,2.459C346.171,444.464,346.173,445.539,346.122,445.969z M311.706,70.662l-0.628,4.971
	c-0.073,0.579-0.098,1.158-0.099,1.736c-1.86-2.264-4.401-3.965-7.334-4.742c-1.613-0.427-2.182-1.705-2.351-2.235
	c-0.127-0.395-0.313-1.26,0.044-2.208c2.544,1.653,5.526,2.567,8.612,2.567c0.411,0,0.825-0.016,1.239-0.048L311.706,70.662z"/>
<g>
</g>
<g>
</g>
<g>
</g>
<g>
</g>
<g>
</g>
<g>
</g>
<g>
</g>
<g>
</g>
<g>
</g>
<g>
</g>
<g>
</g>
<g>
</g>
<g>
</g>
<g>
</g>
<g>
</g>
</svg>
