<?xml version="1.0" encoding="iso-8859-1"?>
<!-- Generator: Adobe Illustrator 18.0.0, SVG Export Plug-In . SVG Version: 6.00 Build 0)  -->
<!DOCTYPE svg PUBLIC "-//W3C//DTD SVG 1.1//EN" "http://www.w3.org/Graphics/SVG/1.1/DTD/svg11.dtd">
<svg version="1.1" id="Capa_1" xmlns="http://www.w3.org/2000/svg" xmlns:xlink="http://www.w3.org/1999/xlink" x="0px" y="0px"
	 viewBox="0 0 475.005 475.005" style="enable-background:new 0 0 475.005 475.005;" xml:space="preserve">
<g>
	<path d="M297.644,275.587c7.881,0,15.697-2.148,22.629-6.36l5.18-3.146c3.668-2.228,8.122-2.772,12.218-1.493
		c4.097,1.28,7.449,4.263,9.196,8.184c0.899,2.018,3.263,2.925,5.282,2.026c2.018-0.899,2.925-3.264,2.026-5.282
		c-2.682-6.019-7.828-10.599-14.118-12.563c-6.289-1.965-13.127-1.13-18.758,2.292l-5.18,3.146
		c-9.177,5.575-20.247,6.723-30.373,3.149c-10.125-3.574-18.022-11.417-21.666-21.517c-3.775-10.464-4.372-21.708-1.725-32.513
		c5.372-21.93-0.962-44.545-16.942-60.497s-38.609-22.245-60.527-16.832l-61.154,15.097c-2.145,0.529-3.455,2.697-2.925,4.842
		c0.529,2.145,2.697,3.456,4.842,2.925l61.154-15.097c19.182-4.734,38.977,0.771,52.958,14.727
		c13.982,13.956,19.523,33.744,14.823,52.931c-3.022,12.341-2.341,25.181,1.97,37.131c4.462,12.367,14.131,21.97,26.529,26.346
		C287.833,274.759,292.75,275.587,297.644,275.587z"/>
	<path d="M272.014,211.721c0.467,5.554,2.322,10.957,5.365,15.626l6.962,10.681c3.971,6.091,10.401,9.972,17.641,10.647
		c0.749,0.07,1.495,0.104,2.237,0.104c6.436,0,12.559-2.597,17.068-7.306l4.311-4.502c8.148-8.51,19.09-13.874,30.808-15.103
		c2.197-0.23,3.792-2.198,3.561-4.395c-0.23-2.198-2.205-3.795-4.395-3.561c-13.599,1.426-26.295,7.65-35.752,17.526l-4.311,4.502
		c-0.334,0.349-0.69,0.666-1.049,0.98l-1.396-7.261c-0.752-3.914,0.14-7.832,2.515-11.032c2.374-3.201,5.865-5.193,9.828-5.609
		c2.802-0.293,5.379-1.753,7.072-4.005c1.692-2.251,2.378-5.133,1.882-7.906l-4.404-24.598c0.793-0.124,1.585-0.291,2.373-0.505
		c6.597-1.786,11.865-6.438,14.454-12.761l0.899-2.195c0.837-2.044-0.141-4.38-2.186-5.218c-2.045-0.838-4.38,0.142-5.218,2.186
		l-0.899,2.195c-1.638,4-4.969,6.941-9.141,8.071c-4.173,1.131-8.533,0.27-11.964-2.357c-1.762-1.349-4.087-1.784-6.218-1.166
		l-16.377,4.76c-15.391,4.473-25.588,19.312-24.247,35.284L272.014,211.721z M297.912,177.201l15.903-4.622
		c2.427,1.773,5.132,2.993,7.962,3.643l4.708,26.294c0.145,0.812-0.189,1.407-0.402,1.689c-0.212,0.283-0.691,0.77-1.511,0.856
		c-6.129,0.643-11.749,3.85-15.42,8.799c-3.671,4.949-5.108,11.258-3.945,17.309l1.795,9.335c-1.393,0.253-2.826,0.341-4.277,0.205
		c-4.794-0.447-9.052-3.017-11.682-7.05l-6.962-10.68c-2.323-3.564-3.739-7.689-4.096-11.928l-0.581-6.918
		C278.381,191.942,286.164,180.615,297.912,177.201z"/>
	<path d="M474.317,411.866l-12.277-30.298c-1.397-3.397-4.656-5.703-8.299-5.875l-39.02-1.86c-0.062-0.003-0.124-0.004-0.186-0.004
		l-11.032-10.144c3.723-5.777,4.853-12.745,3.085-19.525l-1.604-6.147c2.521-4.866,10.383-20.95,10.567-32.545
		c0.026-1.623-0.931-3.101-2.423-3.74c-2.087-0.895-4.819-1.903-7.494-2.837c2.262-1.09,4.203-2.074,5.73-2.895
		c1.492-0.802,2.316-2.458,2.059-4.131c-3.257-21.163-19.504-40.667-23.868-45.586l-1.063-44.378
		c-0.028-1.154-0.552-2.239-1.439-2.978c-0.887-0.738-2.051-1.055-3.189-0.876c-12.016,1.915-23.456-5.895-26.053-17.778
		l-1.226-5.609l2.324-0.727c5.579-1.745,10.084-5.833,12.362-11.216c2.256-5.332,2.078-11.349-0.483-16.535
		c-2.085-5.087-4.42-10.048-6.976-14.878l22.13-24.883c0.329-0.377,0.823-0.559,1.315-0.478l23.099,3.629
		c4.108,0.647,8.105-1.434,9.947-5.186l7.241-14.832c0.987-2.025,1.217-4.355,0.637-6.602l-6.294-23.41
		c-1.04-3.951-4.479-6.77-8.572-7.016l-12.318-0.701l-8.528-20.298c-1.986-4.75-7.482-7.04-12.253-5.104l-30.298,12.277
		c-3.397,1.396-5.704,4.655-5.875,8.299l-1.86,39.02c-0.003,0.062-0.004,0.124-0.004,0.186l-6.178,6.717
		c-12.734-13.21-27.627-24.397-44.174-32.995c-36.252-18.836-78.157-23.95-117.997-14.406c-22.81,5.465-43.46,15.377-61.256,28.593
		L101.21,63.053c-3.244-3.136-4.629-7.642-3.706-12.05l3.102-14.737c1.088-5.216-1.313-10.448-5.97-13.018l-12.444-6.882
		c-2.051-1.131-4.367-1.64-6.698-1.477l-32.366,2.319c-4.887,0.345-9.045,3.579-10.596,8.245l-3.469,10.499L7.84,43.872
		c-6.172,2.306-9.366,9.215-7.122,15.396L12.892,92.97c1.717,4.704,6.231,7.894,11.237,7.938l43.468,0.33
		c4.254,0.024,8.282,1.656,11.375,4.626l0.607,0.57c-30.348,39.068-43.622,90.945-31.727,142.596
		c5.611,24.363,16.195,46.648,31.459,66.237c6.203,7.961,13.615,14.562,21.811,19.71l-26.651,20.381
		c-3.573,2.749-8.235,3.46-12.466,1.908l-14.122-5.211c-4.996-1.841-10.522-0.23-13.753,4.007l-8.628,11.31
		c-1.412,1.863-2.252,4.076-2.431,6.408l-2.42,32.353c-0.375,4.891,2.22,9.479,6.614,11.69l9.874,4.958l4.74,22.157
		c1.209,5.635,6.246,9.531,11.809,9.531c0.789,0,1.588-0.079,2.388-0.241l35.114-7.133c4.906-1.014,8.72-5.017,9.493-9.964
		l6.66-42.953c0.648-4.205,2.853-7.951,6.241-10.575l45.856-36.345c8.877-1.296,17.661-3.998,26.018-8.187l64.051-32.464
		c2.261,6.21,3.492,12.873,3.487,19.76c-0.018,23.061,18.002,42.184,41.024,43.535l49.964,2.932l50.336,44.758
		c0.377,0.329,0.556,0.821,0.478,1.314l-3.63,23.1c-0.646,4.109,1.435,8.105,5.187,9.946l14.832,7.241
		c1.292,0.629,2.707,0.951,4.146,0.951c0.817,0,1.642-0.104,2.456-0.313l23.409-6.294c3.951-1.04,6.771-4.479,7.016-8.572
		l0.701-12.318l20.298-8.528C473.963,422.133,476.252,416.636,474.317,411.866z M399.439,331.191
		c-1.105-0.196-2.303-0.386-3.604-0.565l5.76-24.668c1.935,0.662,3.96,1.38,5.759,2.067
		C406.386,315.824,402.121,325.622,399.439,331.191z M335.88,332.504l-4.9-9.269c3.494-0.582,6.988-1.261,10.462-2.022l1.477,10.364
		C340.645,331.854,338.292,332.166,335.88,332.504z M387.849,275.487c2.397,4.676,6.6,13.263,8.248,19.022
		c-1.145,0.514-2.327,1.038-3.572,1.577c-2.072-6.203-6.078-14.125-8.61-18.874C385.306,276.615,386.621,276.038,387.849,275.487z
		 M376.481,280.276c3.164,5.895,7.032,13.828,8.643,18.897c-1.741,0.701-3.546,1.408-5.405,2.118
		c-2.677-5.698-6.901-13.421-9.752-18.517C372.257,281.925,374.427,281.091,376.481,280.276z M362.322,285.501
		c2.68,4.768,7.096,12.772,9.862,18.564c-3.308,1.17-6.743,2.323-10.27,3.432c-0.779-6.646-2.968-15.411-4.314-20.423
		C359.209,286.55,360.792,286.025,362.322,285.501z M349.956,289.466c1.772,6.649,3.742,15.268,4.163,20.359
		c-6.05,1.713-12.283,3.246-18.552,4.483c-1.38-3.968-2.625-12.278-3.229-20.057C338.58,292.728,344.463,291.114,349.956,289.466z
		 M324.452,296.082c0.459,5.599,1.396,13.761,3.211,19.614c-2.234,0.343-4.463,0.641-6.682,0.889
		c-2.944-5.31-4.384-13.501-4.948-18.76C318.899,297.268,321.706,296.686,324.452,296.082z M350.875,330.706l-1.616-11.342
		c3.229-0.82,6.418-1.698,9.554-2.617l-0.616,13.332C355.85,330.251,353.411,330.458,350.875,330.706z M366.937,314.242
		c2.095-0.679,4.149-1.37,6.165-2.069l-1.367,17.268c-1.765,0.033-3.6,0.09-5.508,0.171L366.937,314.242z M381.363,309.188
		c4.466-1.682,8.636-3.359,12.422-4.963l-5.973,25.578c-2.447-0.174-5.135-0.298-8.053-0.36L381.363,309.188z M403.407,291.083
		c-2.013-6.289-5.932-14.349-8.308-18.997c0.825-0.406,1.549-0.771,2.2-1.103c3.279,5.85,6.225,12.496,7.7,19.306
		C404.495,290.544,403.962,290.81,403.407,291.083z M380.754,212.921l0.605,25.24l-4.727,5.486
		c-1.722,1.999-4.216,3.015-6.845,2.783c-2.628-0.23-4.909-1.662-6.258-3.929c-1.733-2.911-1.46-6.633,0.68-9.261L380.754,212.921z
		 M348.264,91.406c0.033-0.036,0.064-0.072,0.096-0.108c1.208-1.414,1.851-3.199,1.822-5.048l1.854-38.873
		c0.026-0.556,0.389-1.058,0.907-1.271l30.281-12.271c0.726-0.296,1.563,0.053,1.869,0.783l7.017,16.699l-4.96-0.282
		c-2.213-0.13-4.096,1.56-4.222,3.765c-0.126,2.206,1.56,4.096,3.765,4.222l26.158,1.489c0.621,0.038,1.144,0.466,1.308,1.086
		l6.29,23.391c0.067,0.259,0.105,0.653-0.092,1.056l-7.236,14.822c-0.279,0.568-0.901,0.899-1.518,0.801l-23.102-3.63
		c-3.228-0.506-6.437,0.661-8.559,3.093l-20.271,22.792c-5.306-8.916-11.409-17.317-18.23-25.096L348.264,91.406z M84.481,100.064
		c-4.545-4.366-10.525-6.79-16.831-6.825l-43.455-0.33c-1.685-0.015-3.208-1.092-3.783-2.669L8.24,56.544
		c-0.754-2.079,0.322-4.402,2.398-5.178l15.206-5.674l-4.012,12.141c-0.693,2.098,0.445,4.36,2.542,5.053
		c2.101,0.694,4.36-0.445,5.053-2.542L40.126,27.97c0.523-1.573,1.922-2.665,3.57-2.781l32.366-2.319
		c0.783-0.055,1.569,0.118,2.262,0.5l12.444,6.882c1.542,0.851,2.367,2.652,2.008,4.374l-3.101,14.734
		c-1.491,7.118,0.743,14.388,5.965,19.437l10.568,10.285c-7.83,6.416-15.036,13.5-21.563,21.138L84.481,100.064z M108.651,377.306
		c-4.98,3.855-8.252,9.415-9.214,15.65l-6.659,42.945c-0.26,1.667-1.549,3.017-3.194,3.357l-35.101,7.13
		c-2.172,0.437-4.317-0.962-4.781-3.127l-3.396-15.878l11.43,5.739c0.576,0.289,1.188,0.426,1.792,0.426
		c1.465,0,2.875-0.808,3.578-2.206c0.991-1.974,0.194-4.378-1.78-5.37l-30.466-15.299c-1.481-0.745-2.356-2.288-2.23-3.938
		l2.42-32.353c0.061-0.79,0.348-1.543,0.822-2.169l8.621-11.301c1.087-1.427,2.945-1.972,4.624-1.353l14.125,5.212
		c6.828,2.509,14.347,1.358,20.099-3.067l29.395-22.48c11.416,5.64,23.978,8.685,36.713,8.915L108.651,377.306z M260.995,326.374
		c0.007-9.459-2.023-18.551-5.709-26.806c-0.042-0.104-0.069-0.21-0.12-0.312c-0.024-0.048-0.059-0.087-0.085-0.133
		c-7.965-17.488-23.41-31.142-42.834-36.355c-2.137-0.572-4.328,0.692-4.9,2.827c-0.573,2.133,0.693,4.327,2.826,4.9
		c15.882,4.263,28.738,14.947,36.085,28.793l-64.401,32.641c-33.096,16.585-73.569,7.512-96.236-21.578
		c-14.542-18.663-24.626-39.897-29.974-63.115C35.769,160.921,89.622,73.922,175.695,53.301c37.965-9.097,77.9-4.222,112.444,13.725
		c34.103,17.719,60.846,46.954,75.302,82.321c0.04,0.097,0.083,0.193,0.131,0.288c1.572,3.117,1.693,6.748,0.333,9.963
		s-4.051,5.656-7.383,6.698l-5.82,1.821c-1.979,0.619-3.156,2.646-2.714,4.671l2.007,9.187
		c2.835,12.974,13.491,22.343,26.042,24.069l-18.033,22.145c-4.253,5.223-4.795,12.619-1.351,18.405
		c2.681,4.504,7.214,7.35,12.437,7.807c0.487,0.042,0.971,0.063,1.452,0.063c4.35,0,8.414-1.74,11.458-4.874
		c0.176,0.366,0.395,0.713,0.678,1.014c0.099,0.105,5.087,5.467,10.424,13.518c-10.314,5.16-41.183,19.262-84.187,26.895
		c-2.175,0.386-3.625,2.462-3.239,4.638c0.247,1.391,1.19,2.475,2.403,2.982c0.48,4.523,1.644,12.171,4.367,18.646
		c-2.741,0.136-5.454,0.191-8.117,0.133c-2.205-0.048-4.038,1.704-4.086,3.912s1.704,4.038,3.912,4.086
		c5.97,0.128,12.155-0.245,18.409-0.98l4.937,9.337c-6.761,1.089-13.997,2.411-21.773,4.022c-4.636,0.961-9.47-0.87-12.322-4.661
		l-16.75-22.269c-1.328-1.766-3.837-2.12-5.601-0.792c-1.766,1.328-2.12,3.836-0.792,5.601l16.75,22.269
		c3.873,5.148,9.965,8.103,16.268,8.103c1.354,0,2.718-0.136,4.071-0.417c17.86-3.701,61.126-11.47,89.592-6.745l1.903,7.296
		c1.362,5.224,0.18,10.614-3.245,14.788c-3.424,4.174-8.485,6.39-13.87,6.07l-87.243-5.119
		C275.693,360.814,260.981,345.202,260.995,326.374z M466.12,416.741l-16.699,7.017l0.282-4.961c0.126-2.206-1.56-4.096-3.765-4.222
		c-2.21-0.128-4.096,1.56-4.222,3.765l-1.489,26.159c-0.037,0.62-0.465,1.143-1.086,1.307l-23.39,6.289
		c-0.26,0.068-0.654,0.106-1.057-0.091l-14.823-7.236c-0.568-0.279-0.898-0.903-0.801-1.518l3.63-23.102
		c0.506-3.229-0.661-6.438-3.094-8.559l-42.734-37.998l24.389,1.431c0.502,0.029,1.002,0.044,1.5,0.044
		c5.69,0,11.058-1.918,15.395-5.428l11.174,10.275c0.036,0.033,0.072,0.065,0.108,0.096c1.414,1.208,3.184,1.882,5.048,1.822
		l38.873,1.854c0.564,0.026,1.054,0.381,1.271,0.907l12.271,30.281C467.198,415.599,466.849,416.436,466.12,416.741z"/>
</g>
<g>
</g>
<g>
</g>
<g>
</g>
<g>
</g>
<g>
</g>
<g>
</g>
<g>
</g>
<g>
</g>
<g>
</g>
<g>
</g>
<g>
</g>
<g>
</g>
<g>
</g>
<g>
</g>
<g>
</g>
</svg>
