<?xml version="1.0" encoding="iso-8859-1"?>
<!-- Generator: Adobe Illustrator 18.0.0, SVG Export Plug-In . SVG Version: 6.00 Build 0)  -->
<!DOCTYPE svg PUBLIC "-//W3C//DTD SVG 1.1//EN" "http://www.w3.org/Graphics/SVG/1.1/DTD/svg11.dtd">
<svg version="1.1" id="Capa_1" xmlns="http://www.w3.org/2000/svg" xmlns:xlink="http://www.w3.org/1999/xlink" x="0px" y="0px"
	 viewBox="0 0 465.191 465.191" style="enable-background:new 0 0 465.191 465.191;" xml:space="preserve">
<g>
	<path d="M395.602,235.707c-0.714-7.53-1.452-15.316-2.101-23.088c-0.143-1.711-1.362-3.141-3.03-3.551
		c-1.669-0.409-3.411,0.289-4.332,1.738c-12.225,19.236-23.91,33.333-53.855,56.997c-10.583,8.369-16.319,17.94-17.05,28.449
		c-0.94,13.529,6.703,25.994,14.444,34.978c-2.038,1.503-4.115,2.967-6.238,4.383c-21.398,14.278-45.477,7.278-58.939-6.992
		l3.156-2.548c6.221-5.022,7.195-14.169,2.174-20.391c-2.432-3.013-5.892-4.898-9.743-5.31c-2.665-0.284-5.286,0.177-7.651,1.282
		c-0.105-1.145-0.184-2.296-0.207-3.453l-0.799-39.969c7.274-0.092,13.165-6.03,13.165-13.325c0-7.352-5.981-13.333-13.334-13.333
		h-0.36l-0.598-30.051l37.077-37.077c11.067-11.066,14.414-26.965,10.061-40.964c8.347-0.615,16.735-1.356,25.054-2.215
		c2.205,4.329,6.696,7.307,11.877,7.307c6.382,0,11.725-4.509,13.026-10.507c7.128-2.261,12.192-8.96,12.192-16.693v-3.376
		c0-7.702-5.039-14.391-12.14-16.674c-1.207-6.119-6.61-10.75-13.078-10.75c-5.268,0-9.818,3.079-11.982,7.524
		c-18.385-1.889-37.018-3.213-55.563-3.939C273.535,66.3,277.596,56.118,277.596,45c0-24.813-20.187-45-45-45s-45,20.187-45,45
		c0,11.117,4.061,21.298,10.765,29.158c-18.47,0.719-37.102,2.044-55.561,3.942c-2.164-4.445-6.715-7.524-11.982-7.524
		c-6.467,0-11.869,4.63-13.077,10.748c-7.105,2.279-12.15,8.971-12.15,16.677v3.374c0,7.717,5.041,14.406,12.2,16.687
		c1.298,6.001,6.643,10.514,13.027,10.514c5.182,0,9.672-2.978,11.878-7.307c8.312,0.857,16.7,1.599,25.054,2.214
		c-4.354,14-1.006,29.899,10.06,40.965l37.068,37.067l-0.598,30.061h-0.35c-7.352,0-13.333,5.981-13.333,13.333
		c0,7.293,5.886,13.229,13.156,13.325l-0.79,39.971c-0.023,1.158-0.101,2.308-0.206,3.452c-2.364-1.104-4.985-1.565-7.65-1.283
		c-3.852,0.411-7.312,2.297-9.744,5.311c-5.021,6.222-4.047,15.368,2.174,20.391l3.156,2.548
		c-13.464,14.269-37.543,21.27-58.94,6.992c-2.118-1.414-4.199-2.875-6.24-4.382c7.742-8.983,15.386-21.448,14.446-34.979
		c-0.729-10.509-6.467-20.081-17.051-28.451c-29.944-23.663-41.63-37.76-53.854-56.996c-0.921-1.449-2.661-2.147-4.332-1.738
		c-1.668,0.41-2.888,1.84-3.03,3.551c-0.648,7.771-1.387,15.558-2.101,23.088c-3.3,34.823-6.15,64.898,0.153,82.841
		c5.676,16.157,13.261,26.21,22.545,29.879c2.891,1.142,5.746,1.582,8.442,1.582c5.292,0,9.955-1.695,13.032-3.101
		c14.59,21.392,34.112,39.342,57.183,52.02l13.211,7.26c10.84,5.955,20.238,13.883,27.935,23.563
		c7.685,9.667,13.287,20.61,16.651,32.527c0.486,1.724,2.06,2.913,3.85,2.913c1.791,0,3.363-1.19,3.85-2.914
		c6.705-23.761,22.959-44.204,44.597-56.09l13.209-7.26c20.216-11.101,37.612-26.028,51.707-44.369
		c1.919-2.499,3.754-5.046,5.518-7.631c3.077,1.402,7.721,3.081,12.99,3.081c2.695-0.001,5.554-0.44,8.443-1.583
		c9.284-3.669,16.869-13.721,22.544-29.878C401.752,300.605,398.902,270.53,395.602,235.707z M329.394,361.697
		c-1.494,1.591-3.022,3.144-4.576,4.668c-1.773-4.741-5.299-11.275-12.202-17.04c1.816-0.516,3.609-1.128,5.372-1.839
		C326.406,352.443,328.771,359.082,329.394,361.697z M221.753,258.242h21.677l0.802,40.118c0.057,2.923,0.348,5.826,0.854,8.665
		l-12.49,10.083l-12.488-10.081c0.505-2.836,0.795-5.739,0.852-8.665L221.753,258.242z M281.725,158.791l-41.459,41.458
		l11.392-42.983c0.318-1.2,0.062-2.479-0.696-3.464c-0.757-0.984-1.929-1.561-3.17-1.561h-26.305l14.552-40.337
		c12.809-12.167,33.122-11.978,45.686,0.584C294.49,125.255,294.49,146.025,281.725,158.791z M351.591,97.999v3.376
		c0,3.123-1.521,5.928-3.884,7.671V90.334C350.07,92.078,351.591,94.882,351.591,97.999z M329.041,83.908
		c0-2.94,2.393-5.333,5.333-5.333c2.941,0,5.334,2.393,5.334,5.333v31.334c0,2.94-2.393,5.333-5.334,5.333
		c-2.94,0-5.333-2.393-5.333-5.333V83.908z M232.596,8c20.402,0,37,16.598,37,37s-16.598,37-37,37s-37-16.598-37-37
		S212.194,8,232.596,8z M113.591,101.374V98c0-3.126,1.529-5.937,3.894-7.678v18.731
		C115.116,107.312,113.591,104.502,113.591,101.374z M136.151,115.242c0,2.94-2.393,5.333-5.333,5.333s-5.333-2.393-5.333-5.333
		V83.908c0-2.94,2.393-5.333,5.333-5.333s5.333,2.393,5.333,5.333V115.242z M144.151,113.375V86.003
		c20.845-2.13,41.908-3.521,62.697-4.13C214.149,86.987,223.025,90,232.596,90c9.571,0,18.446-3.013,25.748-8.126
		c20.885,0.621,41.948,2.011,62.697,4.13v27.371c-8.952,0.917-17.982,1.698-26.947,2.329c-1.782-3.178-4.012-6.171-6.712-8.871
		C272.41,91.859,248.584,91,232.596,104.256c-15.987-13.255-39.812-12.397-54.786,2.577c-2.7,2.7-4.93,5.692-6.712,8.87
		C162.125,115.072,153.094,114.29,144.151,113.375z M183.466,112.489c6.383-6.383,14.767-9.573,23.151-9.573
		c7.604,0,15.204,2.634,21.315,7.885l-15.904,44.083c-0.442,1.226-0.26,2.59,0.489,3.656s1.971,1.701,3.273,1.701h26.802
		l-12.083,45.591l-47.044-47.042C170.702,146.025,170.702,125.255,183.466,112.489z M222.723,209.359l7.045,7.045
		c0.781,0.781,1.805,1.172,2.828,1.172s2.048-0.391,2.828-1.172l7.035-7.035l0.442,22.206h-20.62L222.723,209.359z M208.596,244.908
		c0-2.94,2.393-5.333,5.333-5.333h37.333c2.941,0,5.334,2.393,5.334,5.333c0,2.941-2.393,5.334-5.334,5.334h-37.333
		C210.989,250.242,208.596,247.85,208.596,244.908z M201.586,310.709c1.091-1.352,2.642-2.196,4.368-2.381
		c0.234-0.024,0.469-0.037,0.702-0.037c1.479,0,2.903,0.501,4.07,1.443l19.356,15.626c1.467,1.184,3.559,1.184,5.025,0
		l19.356-15.626c1.351-1.091,3.039-1.594,4.773-1.405c1.726,0.184,3.277,1.029,4.367,2.38c2.251,2.789,1.813,6.89-0.975,9.141
		l-25.953,20.95c-2.303,1.861-5.86,1.861-8.165,0l-25.952-20.95C199.773,317.599,199.335,313.498,201.586,310.709z M176.68,350.447
		c11.691-2.182,22.287-8.098,30.249-16.79l16.558,13.367c2.57,2.075,5.805,3.218,9.109,3.218s6.539-1.143,9.108-3.218l16.559-13.367
		c7.962,8.692,18.558,14.608,30.249,16.79c4.253,0.794,8.537,1.058,12.773,0.811c12.63,6.933,16.147,17.286,17.042,21.121
		c-4.207,3.681-8.606,7.136-13.194,10.353c-0.871-0.66-1.852-1.175-2.93-1.501c-0.109-0.036-0.219-0.069-0.331-0.101
		c-8.364-2.441-15.329-7.192-20.718-14.146c-0.076-0.103-0.152-0.202-0.231-0.298c-2.109-2.686-5.269-3.935-8.921-3.506
		c-3.866,0.45-7.923,2.79-11.339,6.278c-0.897-4.684-2.918-8.791-5.811-11.309c-2.777-2.419-6.092-3.191-9.344-2.184
		c-0.142,0.039-0.281,0.082-0.416,0.13c-8.301,2.632-16.705,2.588-24.982-0.136c-0.029-0.01-0.07-0.024-0.1-0.033
		c-0.068-0.027-0.139-0.053-0.209-0.075c-3.276-1.082-6.629-0.344-9.437,2.072c-2.879,2.478-4.901,6.548-5.812,11.204
		c-3.304-3.259-7.175-5.443-10.887-5.911c-3.661-0.462-6.854,0.752-8.994,3.421c-0.096,0.113-0.181,0.221-0.257,0.324
		c-5.41,6.802-12.413,11.443-20.817,13.801c-0.104,0.021-0.208,0.045-0.311,0.073c-1.275,0.355-2.408,0.961-3.387,1.762
		c-4.71-3.324-9.221-6.897-13.518-10.695c1.068-4.169,4.802-14.022,17.001-20.686C167.791,351.519,172.252,351.275,176.68,350.447z
		 M219.86,404.474c-0.831-2.231-1.594-4.354-2.296-6.4c-0.012-0.041-0.027-0.081-0.04-0.122c-1.066-3.982-2.199-7.732-3.371-11.152
		c-0.776-2.957-1.395-5.77-1.838-8.36c-1.083-6.352,0.813-12.336,3.271-14.452c0.845-0.727,1.347-0.65,1.639-0.562
		c0.153,0.059,0.303,0.11,0.387,0.135c9.938,3.271,20.031,3.313,29.997,0.131c0.022-0.007,0.044-0.015,0.065-0.021
		c0.06-0.017,0.119-0.034,0.178-0.053c0.262-0.084,0.803-0.256,1.749,0.566c2.485,2.164,4.385,8.21,3.263,14.579
		c-1.26,7.108-3.749,15.553-7.561,25.702C236.995,402.617,228.22,402.613,219.86,404.474z M146.847,347.347
		c1.733,0.713,3.495,1.327,5.28,1.851c-6.779,5.609-10.335,11.97-12.176,16.704c-1.572-1.553-3.111-3.138-4.615-4.755
		C136.137,358.241,138.742,352.022,146.847,347.347z M138.725,343.165c-4.786,3.676-7.634,7.791-9.313,11.241
		c-10.071-12.125-18.334-25.732-24.431-40.377c2.439,2.782,4.973,5.48,7.594,8.084c7.475,7.408,15.797,14.19,24.735,20.156
		C137.777,342.579,138.252,342.869,138.725,343.165z M95.227,340.986c-7.029-2.778-13.064-11.22-17.938-25.091
		c-5.721-16.284-2.813-46.958,0.265-79.434c0.368-3.881,0.742-7.829,1.107-11.812c10.795,15.361,23.769,29.265,49.283,49.429
		c8.744,6.914,13.465,14.561,14.032,22.729c0.767,11.043-5.996,21.715-12.788,29.506c-3.836-3.139-7.506-6.438-10.979-9.88
		c-8.011-7.958-15.158-16.837-21.246-26.392c-1.052-1.651-3.146-2.297-4.947-1.528c-1.801,0.771-2.778,2.733-2.31,4.635
		c4.116,16.699,10.795,32.513,19.639,46.942C105.265,341.782,100.209,342.956,95.227,340.986z M167.824,387.836
		c9.177-2.986,16.881-8.353,22.923-15.981c0.026-0.033,0.052-0.066,0.077-0.101c0.026-0.032,0.053-0.063,0.078-0.097
		c0.169-0.213,0.521-0.663,1.764-0.502c3.268,0.412,8.215,4.379,10.836,10.302c1.008,2.283,1.988,4.794,2.993,7.669
		c0.935,3.545,2.074,7.313,3.371,11.149c0.561,2.117,1.121,4.37,1.675,6.716c-2.467,0.961-4.858,2.104-7.169,3.393
		c-2.437-2.051-4.974-3.982-7.603-5.796c1.169-1.872,1.833-4.057,1.833-6.347c0-6.617-5.383-12-12-12
		c-4.574,0-8.555,2.573-10.579,6.346l-1.223-0.672C172.432,390.616,170.11,389.25,167.824,387.836z M183.045,396.448
		c0.66-1.303,1.998-2.206,3.556-2.206c2.206,0,4,1.794,4,4c0,0.756-0.216,1.477-0.596,2.095c-0.666-0.386-1.32-0.79-1.996-1.161
		L183.045,396.448z M232.602,448.997c-2.87-6.966-6.517-13.554-10.885-19.719c3.475-1.191,7.114-1.806,10.875-1.806
		c3.785,0,7.444,0.621,10.938,1.824C239.183,435.425,235.496,442.028,232.602,448.997z M248.634,422.685
		c-5.069-2.125-10.448-3.214-16.042-3.214c-5.575,0-10.939,1.084-15.996,3.199c-1.905-2.268-3.895-4.445-5.976-6.523
		c2.199-1.077,4.468-2.012,6.806-2.755l1.076-0.321c9.156-2.673,19.098-2.657,28.138-0.013c0.412,0.121,0.823,0.242,1.229,0.372
		c2.316,0.743,4.564,1.673,6.742,2.74C252.525,418.256,250.53,420.428,248.634,422.685z M273.268,401.452
		c-1.01-0.741-1.62-1.928-1.62-3.21c0-2.206,1.794-4,4-4c2.05,0,3.724,1.555,3.954,3.605l-2.417,1.328
		C275.86,399.904,274.556,400.666,273.268,401.452z M290.394,391.916l-3.578,1.966c-1.749-4.465-6.09-7.64-11.168-7.64
		c-6.617,0-12,5.383-12,12c0,2.886,1.049,5.605,2.85,7.733c-1.933,1.41-3.802,2.9-5.627,4.441c-2.276-1.27-4.631-2.399-7.063-3.354
		c2.63-10.846,5.296-19.11,8.316-25.789c2.66-5.872,7.581-9.769,10.803-10.144c1.203-0.144,1.539,0.286,1.716,0.516
		c0.027,0.035,0.054,0.068,0.082,0.103l0.125,0.166c5.883,7.589,13.373,12.988,22.271,16.088
		C294.916,389.355,292.676,390.663,290.394,391.916z M339.609,349.685c-1.364,1.775-2.769,3.507-4.197,5.214
		c-1.614-3.484-4.419-7.726-9.272-11.527c0.584-0.359,1.166-0.72,1.74-1.102c12.15-8.102,22.983-17.577,32.388-28.314
		C355.005,326.674,348.097,338.632,339.609,349.685z M387.901,315.896c-4.872,13.87-10.906,22.312-17.937,25.09
		c-4.963,1.961-10,0.804-14.073-0.878c8.894-14.507,15.463-30.239,19.584-46.96c0.469-1.901-0.509-3.863-2.31-4.634
		c-1.803-0.771-3.896-0.125-4.947,1.527c-8.772,13.767-19.575,25.916-32.216,36.271c-6.792-7.792-13.555-18.464-12.788-29.507
		c0.568-8.167,5.289-15.814,14.031-22.727c25.516-20.165,38.489-34.068,49.284-49.43c0.365,3.982,0.739,7.931,1.107,11.812
		C390.715,268.938,393.623,299.611,387.901,315.896z"/>
	<path d="M232.596,75.291c16.702,0,30.29-13.589,30.29-30.291s-13.588-30.29-30.29-30.29S202.305,28.298,202.305,45
		S215.894,75.291,232.596,75.291z M232.596,22.71c12.291,0,22.29,9.999,22.29,22.29s-9.999,22.291-22.29,22.291
		s-22.291-10-22.291-22.291S220.305,22.71,232.596,22.71z"/>
	<path d="M244.597,386.242c0-6.617-5.383-12-12-12s-12,5.383-12,12s5.383,12,12,12S244.597,392.859,244.597,386.242z
		 M232.597,390.242c-2.206,0-4-1.794-4-4s1.794-4,4-4s4,1.794,4,4S234.803,390.242,232.597,390.242z"/>
</g>
<g>
</g>
<g>
</g>
<g>
</g>
<g>
</g>
<g>
</g>
<g>
</g>
<g>
</g>
<g>
</g>
<g>
</g>
<g>
</g>
<g>
</g>
<g>
</g>
<g>
</g>
<g>
</g>
<g>
</g>
</svg>
