<?xml version="1.0" encoding="iso-8859-1"?>
<!-- Generator: Adobe Illustrator 18.0.0, SVG Export Plug-In . SVG Version: 6.00 Build 0)  -->
<!DOCTYPE svg PUBLIC "-//W3C//DTD SVG 1.1//EN" "http://www.w3.org/Graphics/SVG/1.1/DTD/svg11.dtd">
<svg version="1.1" id="Capa_1" xmlns="http://www.w3.org/2000/svg" xmlns:xlink="http://www.w3.org/1999/xlink" x="0px" y="0px"
	 viewBox="0 0 444.892 444.892" style="enable-background:new 0 0 444.892 444.892;" xml:space="preserve">
<g>
	<path d="M155.412,320.059c4.218,1.396,8.493,2.061,12.693,2.061c16.311,0,31.455-10.031,37.421-26.222l0.048-0.13
		c0-0.001,0.038-0.106,0.039-0.107c4.409-12.194-2.031-25.809-14.357-30.35l-43.341-15.968c-1.262-0.465-2.675-0.264-3.76,0.537
		c-6.295,4.651-11.052,10.999-13.757,18.356c-3.663,9.96-3.049,21.301,1.685,31.115
		C136.821,309.172,145.324,316.721,155.412,320.059z M137.906,270.995c1.92-5.221,5.131-9.807,9.346-13.372l41.238,15.193
		c8.212,3.025,12.519,12.052,9.611,20.09l-0.078,0.215c-6.005,16.3-23.623,24.793-40.098,19.342
		c-8.042-2.661-14.835-8.708-18.637-16.59C135.491,288,134.987,278.933,137.906,270.995z"/>
	<path d="M255.563,295.767l0.045,0.121c5.968,16.2,21.113,26.232,37.425,26.232c4.198,0,8.476-0.665,12.692-2.061
		c10.088-3.338,18.591-10.886,23.329-20.709c4.733-9.814,5.348-21.155,1.685-31.115c-2.705-7.357-7.462-13.705-13.757-18.356
		c-1.083-0.801-2.496-1.001-3.76-0.537l-43.341,15.968c-12.326,4.542-18.767,18.156-14.357,30.35
		C255.528,295.67,255.559,295.756,255.563,295.767z M272.647,272.816l41.238-15.193c4.215,3.565,7.426,8.151,9.346,13.372
		c2.919,7.938,2.415,17.006-1.383,24.879c-3.802,7.882-10.595,13.929-18.637,16.59c-16.478,5.453-34.093-3.043-40.128-19.427
		l-0.036-0.098C260.128,284.868,264.435,275.841,272.647,272.816z"/>
	<path d="M225.293,339.01h10.55c6.066,0,11.498-3.136,14.531-8.39s3.033-11.526,0-16.78l-16.342-28.305
		c-0.714-1.238-2.035-2-3.464-2s-2.75,0.762-3.464,2l-16.343,28.305c-3.033,5.253-3.033,11.526,0,16.779
		C213.795,335.874,219.227,339.01,225.293,339.01z M217.69,317.841l12.879-22.305l12.878,22.305c1.587,2.749,1.587,6.031,0,8.78
		s-4.43,4.39-7.604,4.39h-10.55c-3.174,0-6.016-1.641-7.604-4.39C216.103,323.872,216.103,320.589,217.69,317.841z"/>
	<path d="M372.719,218.422c-2.682-8.061-6.031-15.895-10.052-23.382c-0.696-1.297-2.051-2.107-3.523-2.107h-8.387l4.085-27.965
		c0.168-1.149-0.172-2.315-0.932-3.194s-1.864-1.384-3.026-1.384h-12.295v-9.434h3.555c2.209,0,4-1.791,4-4s-1.791-4-4-4h-3.555
		v-29.192h4.316c17.691,0,32.085-14.394,32.085-32.085V32.085C374.991,14.394,360.597,0,342.906,0
		c-12.077,0-22.612,6.709-28.086,16.593C309.346,6.709,298.81,0,286.734,0c-12.076,0-22.612,6.709-28.086,16.593
		C253.174,6.709,242.639,0,230.563,0c-12.077,0-22.612,6.709-28.086,16.593C197.003,6.709,186.468,0,174.391,0
		c-17.692,0-32.086,14.394-32.086,32.085v6.269h-15.758c-2.209,0-4,1.791-4,4v19.245h-3.555c-2.209,0-4,1.791-4,4s1.791,4,4,4h3.555
		v36.165H99.816c-32.646,0-59.207,26.56-59.207,59.207c0,28.26,19.908,51.945,46.433,57.803
		c-4.167,13.924-6.336,28.464-6.336,43.082c0,25.029,6.075,43.688,18.573,57.042c10.287,10.994,25.146,18.413,45.351,22.628v5.471
		H73.851c-17.689,0-32.08,14.391-32.08,32.08v24.531L25.38,391.218c-1.563-1.562-4.096-1.562-5.656,0
		c-1.563,1.562-1.563,4.095,0,5.657l20.593,20.594l-20.593,20.594c-1.563,1.563-1.563,4.095,0,5.657
		c0.781,0.781,1.805,1.171,2.828,1.171s2.048-0.391,2.828-1.171l20.594-20.594l20.594,20.594c0.781,0.781,1.805,1.171,2.828,1.171
		s2.048-0.391,2.828-1.171c1.563-1.562,1.563-4.095,0-5.657l-20.593-20.594l20.593-20.594c1.563-1.563,1.563-4.095,0-5.657
		c-1.563-1.562-4.096-1.562-5.656,0l-16.797,16.797v-24.937c0-13.278,10.803-24.08,24.08-24.08h70.779v12.389
		c0,12.268,9.98,22.249,22.248,22.249h127.38c12.268,0,22.248-9.981,22.248-22.249v-12.389h38.423
		c39.376,0,71.41-32.035,71.41-71.411C426.339,254.352,403.516,226.347,372.719,218.422z M363.665,216.731
		c-2.866-0.351-5.777-0.553-8.736-0.553c0,0-256.531-0.025-257.236-0.054c1.937-5.19,4.176-10.265,6.714-15.191h252.321
		C359.365,206.05,361.677,211.33,363.665,216.731z M342.672,192.933H118.475l-3.594-24.543h231.376L342.672,192.933z
		 M218.235,46.354v15.245h-31.517V46.354H218.235z M218.235,69.599v73.357h-31.517V69.599H218.235z M274.418,46.354v15.245h-31.517
		V46.354H274.418z M274.418,69.599v73.357h-31.517V69.599H274.418z M282.418,160.39v-9.434h8.654v9.434H282.418z M186.718,160.39
		v-9.434h31.517v9.434H186.718z M226.235,150.956h8.667v9.434h-8.667V150.956z M242.902,150.956h31.517v9.434h-31.517V150.956z
		 M282.418,142.956V69.599h8.654v73.357H282.418z M234.902,142.956h-8.667V69.599h8.667V142.956z M178.718,142.956h-8.654V69.599
		h8.654V142.956z M178.718,150.956v9.434h-8.654v-9.434H178.718z M162.064,160.39h-31.517v-9.434h31.517V160.39z M330.589,160.39
		h-31.517v-9.434h31.517V160.39z M299.073,142.956V69.599h31.517v73.357H299.073z M330.589,46.354v15.245h-31.517V46.354H330.589z
		 M342.906,8c13.28,0,24.085,10.805,24.085,24.085v49.593c0,13.281-10.805,24.085-24.085,24.085h-4.316V69.599h3.555
		c2.209,0,4-1.791,4-4s-1.791-4-4-4h-3.555V42.354c0-2.209-1.791-4-4-4h-15.77v-6.269C318.82,18.805,329.624,8,342.906,8z
		 M286.734,8c13.281,0,24.086,10.805,24.086,24.085v6.269h-15.747c-2.209,0-4,1.791-4,4v19.245h-8.654V42.354c0-2.209-1.791-4-4-4
		h-15.771v-6.269C262.648,18.805,273.453,8,286.734,8z M230.563,8c13.28,0,24.085,10.805,24.085,24.085v6.269h-15.746
		c-2.209,0-4,1.791-4,4v19.245h-8.667V42.354c0-2.209-1.791-4-4-4h-15.758v-6.269C206.477,18.805,217.282,8,230.563,8z
		 M150.305,32.085C150.305,18.805,161.11,8,174.391,8s24.086,10.805,24.086,24.085v6.269h-15.759c-2.209,0-4,1.791-4,4v19.245
		h-8.654V42.354c0-2.209-1.791-4-4-4h-15.759V32.085z M130.547,46.354h31.517v15.245h-31.517V46.354z M162.064,69.599v73.357
		h-31.517V69.599H162.064z M48.609,164.971c0-28.236,22.972-51.207,51.207-51.207h22.731v29.192h-3.555c-2.209,0-4,1.791-4,4
		s1.791,4,4,4h3.555v9.434h-12.295c-1.162,0-2.267,0.505-3.026,1.384c-0.76,0.879-1.1,2.045-0.932,3.195l4.095,27.963h-8.397
		c-1.473,0-2.827,0.81-3.523,2.107c-3.474,6.468-6.447,13.195-8.924,20.102C66.215,210.373,48.609,189.69,48.609,164.971z
		 M88.706,265.857c0-14.226,2.157-28.376,6.32-41.89c1.582,0.127,259.903,0.21,259.903,0.21c3.95,0,7.812,0.381,11.564,1.076
		c3.908,13.124,5.937,26.828,5.937,40.603c0,41.221-16.799,62.832-55.923,71.479v-7.887c0-2.209-1.791-4-4-4s-4,1.791-4,4
		l-0.001,31.301c-1.402-0.352-2.857-0.532-4.345-0.532c-5.511,0-10.438,2.538-13.682,6.505c-3.245-3.964-8.173-6.499-13.684-6.499
		c-4.881,0-9.305,1.988-12.508,5.196c-3.531-5.974-10.02-10.001-17.447-10.001c-6.667,0-12.575,3.25-16.271,8.233
		c-3.697-4.983-9.604-8.233-16.271-8.233c-7.428,0-13.917,4.028-17.447,10.002c-3.203-3.208-7.628-5.196-12.509-5.196
		c-5.511,0-10.438,2.536-13.684,6.499c-3.245-3.967-8.172-6.505-13.682-6.505c-1.488,0-2.943,0.18-4.345,0.532v-31.301
		c0-2.209-1.791-4-4-4s-4,1.791-4,4v7.887C105.506,328.689,88.706,307.078,88.706,265.857z M194.026,385.636h-19.368v-7.729
		c0-5.339,4.344-9.684,9.684-9.684s9.685,4.344,9.685,9.684V385.636z M226.569,385.636h-24.543v-9.947
		c0-6.767,5.505-12.271,12.271-12.271s12.271,5.505,12.271,12.271V385.636z M259.112,385.636h-24.543v-9.947
		c0-6.767,5.505-12.271,12.271-12.271s12.271,5.505,12.271,12.271V385.636z M276.795,368.223c5.34,0,9.684,4.344,9.684,9.684v7.729
		h-19.367v-7.729C267.112,372.567,271.456,368.223,276.795,368.223z M152.63,371.387v-2.137c1.33-0.675,2.803-1.032,4.345-1.032
		c5.337,0,9.68,4.348,9.68,9.691v7.716C158.902,385.504,152.63,379.169,152.63,371.387z M294.482,385.625v-7.716
		c0-5.344,4.343-9.691,9.68-9.691c1.542,0,3.015,0.357,4.345,1.032v2.137C308.506,379.169,302.234,385.504,294.482,385.625z
		 M354.929,350.999h-38.423v-5.471c20.204-4.216,35.063-11.635,45.351-22.628c12.498-13.355,18.573-32.014,18.573-57.042
		c0-12.936-1.701-25.81-4.976-38.251c24.919,8.551,42.885,32.2,42.885,59.982C418.339,322.553,389.894,350.999,354.929,350.999z"/>
</g>
<g>
</g>
<g>
</g>
<g>
</g>
<g>
</g>
<g>
</g>
<g>
</g>
<g>
</g>
<g>
</g>
<g>
</g>
<g>
</g>
<g>
</g>
<g>
</g>
<g>
</g>
<g>
</g>
<g>
</g>
</svg>
