<?xml version="1.0" encoding="iso-8859-1"?>
<!-- Generator: Adobe Illustrator 18.0.0, SVG Export Plug-In . SVG Version: 6.00 Build 0)  -->
<!DOCTYPE svg PUBLIC "-//W3C//DTD SVG 1.1//EN" "http://www.w3.org/Graphics/SVG/1.1/DTD/svg11.dtd">
<svg version="1.1" id="Capa_1" xmlns="http://www.w3.org/2000/svg" xmlns:xlink="http://www.w3.org/1999/xlink" x="0px" y="0px"
	 viewBox="0 0 421.504 421.504" style="enable-background:new 0 0 421.504 421.504;" xml:space="preserve">
<path d="M417.275,153.48c-6.856-16.562-21.883-29.209-42.313-35.612c-26.225-8.201-55.446-3.087-78.102,13.254
	c20.996-24.281,27.626-57.683,17.302-87.181c-6.719-19.19-18.697-32.825-34.642-39.429c-19.138-7.934-41.354-4.632-62.814,9.267
	c-21.577-14.133-43.938-17.535-63.222-9.553c-16.561,6.85-29.209,21.876-35.614,42.313c-8.21,26.249-3.076,55.504,13.306,78.172
	l-0.042-0.036c-24.277-21.02-57.688-27.662-87.19-17.336c-19.19,6.719-32.824,18.697-39.428,34.642
	c-7.934,19.14-4.634,41.356,9.267,62.815c-14.134,21.576-17.536,43.938-9.554,63.222c6.857,16.578,21.885,29.227,42.313,35.614
	c8.284,2.591,16.863,3.853,25.445,3.853c18.594,0,37.181-5.931,52.688-17.124l-0.005,0.006
	c-21.014,24.276-27.651,57.688-17.323,87.197c6.717,19.191,18.694,32.825,34.638,39.428c19.14,7.935,41.354,4.634,62.814-9.267
	c13.936,9.129,28.195,13.78,41.746,13.779c7.431,0,14.648-1.399,21.478-4.227c16.572-6.863,29.219-21.893,35.609-42.319
	c8.207-26.231,3.085-55.468-13.277-78.132l0.015,0.013c16.703,14.462,37.731,22.114,58.843,22.113
	c9.563-0.001,19.147-1.572,28.349-4.792c19.188-6.719,32.822-18.697,39.427-34.642c7.934-19.141,4.633-41.357-9.267-62.814
	C421.856,195.126,425.257,172.764,417.275,153.48z M125.505,48.929c5.766-18.395,16.498-31.297,31.039-37.311
	c16.096-6.666,34.941-4.01,53.512,7.419c-7.389,7.31-20.938,25.634-15.842,58.479c0.307,1.976,2.01,3.388,3.948,3.388
	c0.204,0,0.41-0.016,0.618-0.048c2.183-0.339,3.678-2.384,3.34-4.566c-5.113-32.944,10.414-49.041,15.385-53.261
	c0.79-0.671,2.816-2.059,3.5-2.503c19.2-12.45,38.811-15.521,55.454-8.623c13.781,5.708,24.208,17.701,30.152,34.681
	c9.383,26.809,3.321,57.205-15.818,79.325l-34.931,40.335l-38.559,33.501c6.841-16.687,14.365-40.143,12.705-59.615
	c-0.188-2.202-2.126-3.832-4.325-3.646c-2.201,0.188-3.833,2.124-3.646,4.325c1.685,19.764-7.173,44.617-14.109,60.579l-3.123-3.595
	l-0.012,0.014l-62.558-72.004C123.74,104.522,117.33,75.065,125.505,48.929z M125.806,279.267
	c-21.281,18.494-50.736,24.905-76.876,16.729c-18.387-5.75-31.288-16.482-37.309-31.039c-6.659-16.085-4.013-34.91,7.39-53.463
	c6.368,6.305,20.408,16.618,44.153,16.618c4.272,0,8.86-0.334,13.771-1.085c2.083-0.319,3.718-2.103,3.594-4.206
	c-0.14-2.393-2.296-4.098-4.608-3.733c-29.407,4.563-45.38-7.31-51.473-13.447c-0.946-0.952-1.794-1.986-2.552-3.094
	c-13.586-19.849-17.134-40.271-9.99-57.506c5.708-13.781,17.7-24.208,34.68-30.152c26.806-9.383,57.197-3.314,79.312,15.834
	l40.381,34.952l28.375,32.659c-16.121-6.171-36.801-12.076-54.265-10.583c-2.201,0.188-3.833,2.124-3.646,4.325
	c0.188,2.202,2.138,3.84,4.325,3.646c17.683-1.509,39.437,5.425,55.256,11.869l-36.36,42.004L125.806,279.267z M295.997,372.569
	c-5.753,18.387-16.484,31.291-31.035,37.316c-16.11,6.67-34.968,4.004-53.548-7.442c7.433-7.449,20.678-25.743,15.631-58.271
	c-0.34-2.184-2.386-3.679-4.566-3.34c-2.183,0.339-3.678,2.384-3.34,4.566c4.576,29.489-7.382,45.476-13.504,51.531
	c-1.329,1.314-4.614,3.711-5.38,4.204c-19.122,12.317-38.638,15.333-55.209,8.465c-13.78-5.707-24.205-17.699-30.148-34.68
	c-9.384-26.811-3.321-57.204,15.821-79.318l72.504-83.756c-7.329,16.679-17.08,43.624-15.212,65.524
	c0.178,2.086,1.926,3.66,3.98,3.66c0.114,0,0.229-0.005,0.345-0.015c2.201-0.188,3.833-2.124,3.646-4.325
	c-1.687-19.77,7.178-44.634,14.115-60.596l6.504,7.475l0.001-0.001l62.673,72.133C297.765,316.983,304.173,346.437,295.997,372.569z
	 M409.598,276.456c-5.709,13.782-17.701,24.209-34.68,30.153c-26.811,9.385-57.202,3.323-79.313-15.819l-40.303-34.876
	l-31.926-36.745c14.404,5.513,32.444,10.812,48.586,10.812c1.918,0,3.812-0.075,5.666-0.233c2.201-0.188,3.833-2.124,3.646-4.325
	c-0.188-2.202-2.135-3.831-4.325-3.646c-18.672,1.595-41.91-6.234-57.882-12.954l4.39-3.824l-0.002-0.002l72.243-62.766
	c21.278-18.494,50.735-24.903,76.873-16.729c18.389,5.764,31.291,16.496,37.312,31.038c6.645,16.051,4.023,34.831-7.32,53.348
	c-7.015-7.268-25.339-21.374-58.651-16.279c-2.089,0.32-3.731,2.112-3.6,4.221c0.148,2.387,2.295,4.077,4.607,3.719
	c28.663-4.444,44.564,6.721,50.993,12.971c1.382,1.344,2.606,2.84,3.695,4.431C413.194,238.799,416.741,259.221,409.598,276.456z"/>
<g>
</g>
<g>
</g>
<g>
</g>
<g>
</g>
<g>
</g>
<g>
</g>
<g>
</g>
<g>
</g>
<g>
</g>
<g>
</g>
<g>
</g>
<g>
</g>
<g>
</g>
<g>
</g>
<g>
</g>
</svg>
