<?xml version="1.0" encoding="iso-8859-1"?>
<!-- Generator: Adobe Illustrator 18.0.0, SVG Export Plug-In . SVG Version: 6.00 Build 0)  -->
<!DOCTYPE svg PUBLIC "-//W3C//DTD SVG 1.1//EN" "http://www.w3.org/Graphics/SVG/1.1/DTD/svg11.dtd">
<svg version="1.1" id="Capa_1" xmlns="http://www.w3.org/2000/svg" xmlns:xlink="http://www.w3.org/1999/xlink" x="0px" y="0px"
	 viewBox="0 0 488.611 488.611" style="enable-background:new 0 0 488.611 488.611;" xml:space="preserve">
<g>
	<path d="M281.531,191.407c-9.942-9.943-23.162-15.419-37.224-15.419s-27.281,5.476-37.224,15.419
		c-9.943,9.943-15.42,23.163-15.42,37.224s5.477,27.281,15.42,37.224c10.263,10.263,23.743,15.394,37.224,15.394
		s26.961-5.131,37.224-15.394C302.056,245.33,302.056,211.933,281.531,191.407z M278.745,257.033
		c-0.101-0.127-0.191-0.26-0.308-0.378c-1.688-1.687-4.423-1.687-6.111,0c-1.688,1.687-1.688,4.423,0,6.111
		c0.117,0.117,0.25,0.207,0.377,0.308c-1.613,1.332-3.301,2.527-5.045,3.598c-1.695-1.316-4.134-1.214-5.691,0.343
		c-0.862,0.862-1.278,1.998-1.259,3.128c-4.302,1.692-8.813,2.688-13.365,2.996c0.005-0.005,0.011-0.008,0.016-0.013
		c1.687-1.687,1.687-4.423,0-6.111c-1.687-1.687-4.423-1.687-6.111,0c-1.687,1.687-1.687,4.423,0,6.111
		c0.005,0.005,0.011,0.008,0.016,0.013c-4.552-0.308-9.063-1.305-13.364-2.998c0.018-1.129-0.397-2.264-1.259-3.126
		c-1.556-1.556-3.993-1.659-5.688-0.345c-1.744-1.07-3.431-2.266-5.044-3.598c0.125-0.1,0.258-0.189,0.374-0.305
		c1.688-1.687,1.688-4.423,0-6.111c-1.687-1.687-4.423-1.687-6.111,0c-0.117,0.118-0.207,0.251-0.309,0.378
		c-1.326-1.603-2.526-3.287-3.604-5.037c1.324-1.695,1.225-4.141-0.335-5.7c-0.867-0.867-2.011-1.281-3.148-1.257
		c-1.676-4.244-2.693-8.75-3-13.397c0.014,0.015,0.023,0.032,0.038,0.046c1.688,1.687,4.423,1.687,6.111,0
		c1.688-1.687,1.688-4.423,0-6.111c-1.687-1.687-4.423-1.687-6.111,0c-0.014,0.015-0.024,0.032-0.038,0.047
		c0.307-4.647,1.324-9.153,2.999-13.397c1.137,0.025,2.282-0.389,3.15-1.256c1.56-1.56,1.659-4.007,0.333-5.703
		c1.079-1.749,2.278-3.434,3.604-5.037c0.102,0.128,0.192,0.262,0.311,0.38c1.688,1.687,4.423,1.687,6.111,0
		c1.688-1.687,1.688-4.423,0-6.111c-0.118-0.119-0.253-0.209-0.381-0.311c1.603-1.327,3.287-2.526,5.036-3.605
		c1.695,1.327,4.143,1.229,5.704-0.332c0.869-0.869,1.282-2.015,1.256-3.153c4.246-1.677,8.755-2.694,13.404-3.001
		c-0.017,0.016-0.037,0.027-0.053,0.043c-1.687,1.687-1.687,4.423,0,6.111s4.423,1.687,6.111,0s1.687-4.423,0-6.111
		c-0.017-0.017-0.037-0.028-0.054-0.044c4.649,0.307,9.159,1.323,13.405,2.999c-0.026,1.139,0.387,2.286,1.256,3.155
		c1.562,1.562,4.011,1.659,5.707,0.33c1.749,1.079,3.434,2.278,5.036,3.605c-0.129,0.103-0.265,0.194-0.384,0.314
		c-1.688,1.687-1.688,4.423,0,6.111c1.687,1.687,4.423,1.687,6.111,0c0.118-0.118,0.209-0.252,0.311-0.38
		c1.332,1.613,2.527,3.301,3.598,5.044c-1.319,1.695-1.219,4.137,0.339,5.695c0.864,0.864,2.002,1.279,3.134,1.258
		c1.694,4.304,2.69,8.819,2.997,13.374c-0.008-0.008-0.012-0.017-0.02-0.025c-1.688-1.687-4.423-1.687-6.111,0
		c-1.688,1.687-1.688,4.423,0,6.111c1.687,1.687,4.423,1.687,6.111,0c0.007-0.008,0.012-0.017,0.02-0.024
		c-0.307,4.555-1.304,9.069-2.998,13.373c-1.131-0.02-2.269,0.395-3.132,1.258c-1.557,1.557-1.659,3.998-0.341,5.693
		C281.273,253.733,280.077,255.42,278.745,257.033z"/>
	<path d="M486.72,365.099c-0.1-0.062-10.139-6.386-22.964-21.458c-4.825-5.653-9.502-11.92-13.897-18.625
		c-1.224-1.87-2.473-3.85-3.712-5.884c-4.111-6.757-9.244-13.382-15.258-19.693c-6.941-7.277-15.073-14.184-24.168-20.527
		c-7.353-5.137-13.846-8.868-18.132-11.157c1.248-2.284,2.221-4.743,2.829-7.351c0.022-0.095,0.041-0.191,0.056-0.287
		c1.938-8.698-0.121-17.672-5.673-24.664c-2.312-2.912-5.101-5.302-8.207-7.118c2.147-1.257,4.149-2.793,5.954-4.597
		c7.241-7.241,10.184-17.512,7.87-27.477c-2.294-9.847-9.316-17.59-18.537-20.936c4.431-8.985,4.06-19.858-1.362-28.567
		c-1.212-1.945-2.625-3.729-4.2-5.303c-7.596-7.598-18.483-10.122-28.281-7.554c2.568-9.798,0.044-20.685-7.554-28.282
		c-1.579-1.578-3.363-2.991-5.305-4.2c-8.709-5.422-19.585-5.793-28.566-1.362c-3.347-9.22-11.091-16.242-20.939-18.536
		c-9.961-2.311-20.232,0.629-27.473,7.87c-1.805,1.805-3.341,3.807-4.598,5.954c-1.816-3.106-4.207-5.896-7.119-8.207
		c-6.993-5.552-15.969-7.613-24.668-5.671c-0.095,0.015-0.188,0.033-0.282,0.055c-9.994,2.33-17.946,9.76-21.165,19.248
		c-8.882-4.156-19.321-3.65-27.912,1.689c-1.916,1.194-3.695,2.607-5.287,4.199c-7.576,7.576-10.105,18.489-7.544,28.301
		c-9.809-2.564-20.721-0.036-28.301,7.542c-1.595,1.596-3.008,3.375-4.201,5.291c-5.34,8.592-5.844,19.036-1.689,27.909
		c-9.487,3.22-16.915,11.171-19.245,21.165c-0.022,0.096-0.041,0.191-0.056,0.287c-1.938,8.697,0.121,17.67,5.672,24.662
		c2.312,2.912,5.102,5.303,8.208,7.119c-2.147,1.257-4.149,2.793-5.954,4.598c-7.241,7.241-10.184,17.512-7.87,27.477
		c0.569,2.442,1.443,4.746,2.554,6.896c-4.243,2.279-10.667,5.981-17.861,11.009c-9.121,6.373-17.25,13.283-24.157,20.536
		c-6.022,6.31-11.16,12.932-15.267,19.681c-1.255,2.058-2.505,4.039-3.712,5.884c-4.353,6.637-9.027,12.907-13.894,18.632
		C12.033,358.713,1.994,365.037,1.9,365.095c-1.269,0.782-1.997,2.206-1.89,3.693c0.107,1.487,1.033,2.791,2.401,3.383
		c0.721,0.312,17.927,7.652,43.122,9.766c4.385,0.365,8.763,0.547,13.105,0.547c4.135,0,8.237-0.166,12.275-0.496
		c2.228-0.179,4.451-0.413,6.655-0.696c-5.468,13.175-10.838,19.739-10.913,19.827c-0.959,1.141-1.205,2.721-0.637,4.099
		c0.568,1.378,1.856,2.327,3.341,2.459c0.228,0.021,2.195,0.188,5.485,0.188c6.52,0,18.23-0.655,31.876-4.403
		c18.421-5.06,43.823-16.931,61.779-44.762c3.064,1.034,6.257,1.561,9.449,1.56c4.489,0,8.959-1.039,13.043-3.052
		c3.346,9.221,11.09,16.245,20.941,18.54c2.238,0.52,4.491,0.774,6.723,0.774c7.701,0,15.138-3.03,20.751-8.645
		c1.805-1.805,3.341-3.807,4.598-5.954c1.816,3.106,4.207,5.896,7.119,8.208c5.271,4.185,11.666,6.385,18.222,6.385
		c2.144,0,4.306-0.235,6.449-0.714c0.093-0.015,0.186-0.033,0.278-0.055c9.996-2.331,17.948-9.761,21.167-19.251
		c3.918,1.834,8.134,2.779,12.368,2.779c3.306,0,6.618-0.568,9.798-1.698c17.991,28.627,43.816,40.758,62.481,45.885
		c13.646,3.749,25.357,4.403,31.876,4.403c3.289,0,5.258-0.167,5.485-0.188c1.484-0.133,2.772-1.081,3.341-2.459
		c0.568-1.378,0.322-2.958-0.637-4.099c-0.079-0.093-5.453-6.596-10.935-19.84c2.786,0.358,5.592,0.644,8.402,0.84
		c3.479,0.244,7.002,0.365,10.549,0.365c4.345,0,8.726-0.183,13.106-0.548c25.191-2.114,42.406-9.454,43.127-9.765
		c1.366-0.591,2.289-1.893,2.398-3.377C488.711,367.31,487.985,365.884,486.72,365.099z M442.025,358.594
		c0.063,0.024,0.123,0.049,0.187,0.074c11.237,4.338,21.548,7.754,29.067,10.09c-6.444,1.809-15.212,3.788-25.49,4.881
		L442.025,358.594z M467.081,359.005c-5.12-1.679-11.023-3.713-17.349-6.071l9.544-2.244
		C462.038,353.845,464.66,356.608,467.081,359.005z M453.552,343.817l-16.926,3.98c-5.722-2.362-11.574-4.943-17.334-7.727
		l25.562-8.138C447.661,336.08,450.571,340.053,453.552,343.817z M439.314,323.293c0.346,0.567,0.692,1.117,1.039,1.676
		l-31.183,9.928c-7.342-3.975-14.292-8.281-20.347-12.878l38.104-15.094C431.758,312.221,435.92,317.716,439.314,323.293z
		 M405.935,389.599c-4.307-3.216-9.322-7.089-14.755-11.512l9.807-0.651C402.612,382.053,404.301,386.108,405.935,389.599z
		 M382.296,370.659c-3.932-3.379-7.989-6.991-12.081-10.803l24.891-3.042c0.386,1.315,0.748,2.64,1.06,3.983
		c0.718,3.097,1.494,6.015,2.302,8.788L382.296,370.659z M376.254,375.995l-5.209,15.307c-6.272-2.597-12.131-5.726-17.549-9.403
		l9.005-18.329C367.153,367.974,371.778,372.129,376.254,375.995z M362.757,352.708c-3.394-3.348-6.773-6.82-10.09-10.402
		l33.539-5.658c2.257,3.855,4.381,8.03,6.184,12.438L362.757,352.708z M198.921,274.017c-25.025-25.026-25.025-65.746,0-90.771
		c12.514-12.513,28.95-18.77,45.387-18.77c16.436,0,32.872,6.256,45.386,18.77c25.025,25.025,25.025,65.746,0,90.771
		C264.669,299.043,223.949,299.046,198.921,274.017z M149.696,338.873c1.307,4.695,3.784,9.119,7.443,12.778
		c1.27,1.27,2.663,2.419,4.147,3.442c-1.261,1.922-2.575,3.782-3.938,5.584l-8.871-20.384
		C148.884,339.821,149.291,339.348,149.696,338.873z M148.819,327.356c-2.13,2.677-4.322,5.313-6.563,7.902l-35.185-5.935
		c4.745-6.888,9.453-12.256,12.468-15.452c0.558,0.666,1.135,1.314,1.749,1.929c5.687,5.687,13.215,8.537,20.751,8.537
		c2.536,0,5.072-0.331,7.54-0.978C149.233,324.676,148.979,326.011,148.819,327.356z M87.622,377.436l9.802,0.651
		c-5.43,4.421-10.443,8.292-14.748,11.508C84.309,386.104,85.997,382.051,87.622,377.436z M90.14,369.585
		c0.809-2.773,1.585-5.69,2.302-8.787c0.311-1.344,0.674-2.669,1.06-3.984l24.889,3.041c-4.092,3.812-8.15,7.425-12.083,10.804
		L90.14,369.585z M126.113,363.564l9.003,18.332c-5.419,3.679-11.28,6.809-17.554,9.406l-5.208-15.307
		C116.833,372.127,121.46,367.97,126.113,363.564z M125.849,352.707l-29.631-3.621c1.803-4.408,3.926-8.583,6.184-12.438
		l33.538,5.657C132.623,345.887,129.243,349.359,125.849,352.707z M92.914,281.175c4.685-2.975,8.693-5.214,11.471-6.681
		c3.108,3.311,6.981,5.867,11.342,7.45c-1.079,2.19-1.881,4.488-2.385,6.845L92.914,281.175z M190.511,276.756l-33.352,33.351
		c-0.093,0.093-0.183,0.19-0.273,0.286c-8.339,8.037-21.762,7.931-29.941-0.25c-1.165-1.165-2.196-2.464-3.064-3.857
		c-4.697-7.564-4.2-17.366,1.242-24.397c1.13-1.464,2.44-2.771,3.902-3.889l44.724-34.317
		C176.282,255.652,181.861,267.098,190.511,276.756z M314.909,243.482l43.629,33.482c1.637,1.261,3.057,2.713,4.233,4.334
		c5.201,7.081,5.562,16.484,0.919,23.953c-0.871,1.399-1.902,2.698-3.065,3.861c-8.073,8.073-21.399,8.271-29.741,0.451
		c-0.152-0.168-0.306-0.333-0.483-0.511l-32.297-32.297C306.801,267.043,312.395,255.524,314.909,243.482z M383.781,274.261
		c2.832,1.481,6.995,3.791,11.911,6.915l-21.17,7.891c-0.436-2.572-1.223-5.091-2.35-7.499
		C376.592,280.068,380.564,277.548,383.781,274.261z M337.902,337.676c0.738,0.877,1.481,1.749,2.23,2.616l-8.871,20.385
		c-1.646-2.177-3.213-4.445-4.709-6.796c1.386-0.977,2.689-2.072,3.886-3.27C334.126,346.923,336.612,342.439,337.902,337.676z
		 M338.694,325.97c-0.161-1.233-0.402-2.457-0.718-3.665c2.469,0.644,5.007,0.973,7.546,0.972c7.552,0,15.096-2.845,20.759-8.508
		c0.623-0.623,1.21-1.282,1.775-1.959c2.892,2.983,8.166,8.796,13.481,16.513l-35.185,5.935
		C343.726,332.224,341.164,329.125,338.694,325.97z M420.856,300.726l-39.028,15.46c-0.094-0.086-0.189-0.173-0.282-0.259
		c-4.008-4.919-7.408-8.408-9.139-10.104c1.186-2.672,1.952-5.463,2.303-8.288l29.121-10.854
		C410.037,291.12,415.739,295.823,420.856,300.726z M379.536,240.427c4.084,5.144,5.572,11.76,4.084,18.153
		c-0.02,0.081-0.035,0.162-0.049,0.244c-1.927,7.854-8.187,13.939-15.963,15.745c-1.252-1.43-2.648-2.756-4.193-3.948
		l-47.203-36.224c0.055-0.688,0.113-1.376,0.148-2.066h46.414C369.341,232.331,375.451,235.282,379.536,240.427z M383.627,198.072
		c1.684,7.254-0.46,14.733-5.734,20.008c-4.031,4.031-9.4,6.251-15.119,6.251h-46.457c-0.033-0.563-0.074-1.127-0.121-1.689
		l48.259-37.03c1.331-1.018,2.562-2.16,3.697-3.391C375.83,184.194,381.796,190.216,383.627,198.072z M361.665,147.111
		c1.145,1.144,2.176,2.448,3.064,3.874c4.703,7.556,4.205,17.357-1.245,24.396c-1.125,1.459-2.433,2.763-3.894,3.88l-44.726,34.319
		c-2.534-11.969-8.112-23.415-16.762-33.073l33.337-33.337c0.098-0.098,0.192-0.199,0.286-0.299
		C340.064,138.83,353.484,138.932,361.665,147.111z M321.952,108.208c1.424,0.887,2.729,1.919,3.877,3.067
		c8.178,8.177,8.28,21.601,0.235,29.939c-0.095,0.09-0.188,0.176-0.295,0.283l-33.337,33.338
		c-9.658-8.65-21.103-14.228-33.072-16.762l34.323-44.732c1.113-1.456,2.417-2.764,3.884-3.894
		C304.595,104.004,314.397,103.506,321.952,108.208z M254.858,95.047c5.274-5.275,12.752-7.418,20.005-5.735
		c7.859,1.831,13.881,7.797,15.855,15.475c-1.232,1.136-2.373,2.365-3.388,3.691l-37.035,48.266
		c-0.562-0.046-1.125-0.087-1.688-0.121v-46.457C248.607,104.446,250.827,99.077,254.858,95.047z M214.118,89.367
		c0.08-0.013,0.16-0.029,0.24-0.048c6.392-1.489,13.009,0,18.152,4.083c5.146,4.085,8.097,10.195,8.097,16.764v46.414
		c-0.689,0.035-1.378,0.093-2.066,0.148l-36.228-47.208c-1.189-1.544-2.517-2.941-3.944-4.191
		C200.177,97.551,206.261,91.292,214.118,89.367z M163.828,112.313c1.162-1.163,2.461-2.194,3.856-3.063
		c7.473-4.645,16.876-4.285,23.975,0.931c1.604,1.164,3.056,2.583,4.312,4.214l33.487,43.635
		c-12.042,2.513-23.562,8.107-33.273,16.805l-32.309-32.309c-0.156-0.155-0.315-0.307-0.48-0.453
		C155.553,133.728,155.737,120.403,163.828,112.313z M124.918,152.017c0.87-1.397,1.901-2.696,3.065-3.86
		c8.099-8.098,21.434-8.275,29.729-0.447c0.013,0.014,0.03,0.026,0.044,0.04c0.006,0.006,0.012,0.012,0.018,0.018
		c0.134,0.146,0.276,0.291,0.434,0.448l32.297,32.298c-8.697,9.713-14.29,21.233-16.802,33.276l-43.633-33.487
		c-1.636-1.26-3.056-2.711-4.232-4.334C120.635,168.889,120.275,159.486,124.918,152.017z M109.072,216.84
		c-4.084-5.144-5.571-11.759-4.083-18.152c0.02-0.082,0.035-0.164,0.049-0.245c1.927-7.854,8.186-13.938,15.963-15.744
		c1.253,1.43,2.648,2.757,4.194,3.948l47.207,36.23c-0.054,0.686-0.112,1.372-0.147,2.06h-46.418
		C119.266,224.937,113.157,221.985,109.072,216.84z M110.716,239.188c4.031-4.031,9.4-6.251,15.119-6.251h46.462
		c0.033,0.562,0.074,1.123,0.12,1.684l-48.257,37.028c-1.332,1.019-2.566,2.164-3.705,3.399
		c-7.678-1.974-13.644-7.995-15.474-15.852C103.299,251.943,105.442,244.463,110.716,239.188z M84.776,286.68l27.997,10.435
		c0.239,3.325,1.031,6.619,2.399,9.733c-1.885,1.909-4.79,5.003-8.11,9.078c-0.093,0.087-0.188,0.173-0.282,0.259l-39.02-15.456
		C72.862,295.839,78.561,291.134,84.776,286.68z M61.691,306.929l38.094,15.09c-6.054,4.597-13.005,8.903-20.347,12.878
		l-31.186-9.929c0.347-0.558,0.692-1.106,1.04-1.677C52.683,317.72,56.848,312.227,61.691,306.929z M43.728,331.924l25.588,8.146
		c-5.761,2.784-11.612,5.365-17.334,7.727l-16.934-3.982C38.043,340.028,40.939,336.043,43.728,331.924z M42.819,373.639
		c-10.28-1.094-19.047-3.073-25.489-4.882c7.519-2.336,17.829-5.752,29.067-10.09c0.063-0.024,0.123-0.049,0.186-0.073
		L42.819,373.639z M29.338,350.691l9.538,2.243c-6.322,2.356-12.222,4.389-17.339,6.068
		C23.956,356.606,26.577,353.845,29.338,350.691z M50.908,374.275l4.842-19.358c6.481-2.688,12.549-5.414,18.199-8.177
		l-6.561,27.478C61.974,374.549,56.456,374.562,50.908,374.275z M75.797,373.446l7.528-31.532c3.615-1.962,7.04-3.938,10.237-5.931
		c-3.727,6.912-6.983,14.678-8.913,23.01c-1.168,5.042-2.494,9.619-3.882,13.749C79.126,373.006,77.468,373.241,75.797,373.446z
		 M104.884,395.671c-8.466,2.349-16.208,3.414-22.229,3.87c6.014-4.367,14.112-10.495,23.138-17.99l4.268,12.542
		C108.361,394.652,106.64,395.184,104.884,395.671z M141.638,377.025l-9.484-19.311c3.521-3.49,7.024-7.112,10.458-10.847
		l9.011,20.707C148.512,370.984,145.182,374.135,141.638,377.025z M166.657,349.06c-1.4-0.872-2.699-1.904-3.862-3.066
		c-8.18-8.18-8.287-21.603-0.249-29.941c0.101-0.096,0.203-0.191,0.302-0.289l33.335-33.336c9.657,8.65,21.103,14.228,33.072,16.762
		l-34.321,44.729c-1.114,1.458-2.422,2.769-3.892,3.901C184.018,353.259,174.216,353.755,166.657,349.06z M233.751,362.222
		c-5.274,5.275-12.756,7.42-20.005,5.735c-7.86-1.832-13.881-7.797-15.856-15.475c1.235-1.138,2.379-2.37,3.396-3.699l37.032-48.263
		c0.561,0.046,1.122,0.087,1.683,0.12v46.462C240.002,352.821,237.782,358.191,233.751,362.222z M274.488,367.902
		c-0.079,0.013-0.158,0.029-0.237,0.047c-6.394,1.489-13.009,0-18.152-4.083c-5.146-4.085-8.097-10.195-8.097-16.764v-46.419
		c0.688-0.035,1.374-0.093,2.061-0.147l36.233,47.214c1.19,1.544,2.518,2.94,3.944,4.189
		C288.432,359.717,282.344,365.977,274.488,367.902z M296.949,347.087c-1.603-1.163-3.055-2.582-4.312-4.213l-33.49-43.638
		c12.043-2.512,23.564-8.105,33.277-16.802l32.289,32.289c0.165,0.166,0.333,0.331,0.504,0.491
		c7.833,8.334,7.643,21.662-0.436,29.741c-1.164,1.164-2.463,2.195-3.858,3.064C313.452,352.663,304.049,352.303,296.949,347.087z
		 M336.984,367.574l9.012-20.708c3.437,3.738,6.943,7.362,10.466,10.855l-9.486,19.309
		C343.429,374.139,340.098,370.986,336.984,367.574z M378.547,394.092l4.268-12.542c9.027,7.494,17.125,13.623,23.139,17.99
		c-6.022-0.456-13.763-1.521-22.23-3.869C381.968,395.184,380.247,394.652,378.547,394.092z M403.959,358.992
		c-1.931-8.332-5.187-16.097-8.913-23.01c3.222,2.008,6.675,4,10.321,5.977l8.907,31.65c-2.164-0.242-4.314-0.534-6.442-0.876
		C406.45,368.61,405.128,364.038,403.959,358.992z M422.773,374.279l-7.692-27.331c5.528,2.691,11.458,5.348,17.776,7.968
		l4.841,19.352C432.681,374.529,427.69,374.524,422.773,374.279z"/>
	<circle cx="265.022" cy="207.916" r="4.321"/>
	<circle cx="254.663" cy="218.275" r="4.321"/>
	<circle cx="244.304" cy="228.634" r="4.321"/>
	<circle cx="233.945" cy="238.993" r="4.321"/>
	<circle cx="223.586" cy="249.352" r="4.321"/>
	<circle cx="254.663" cy="197.557" r="4.321"/>
	<circle cx="244.304" cy="207.916" r="4.321"/>
	<circle cx="233.945" cy="218.275" r="4.321"/>
	<circle cx="223.586" cy="228.634" r="4.321"/>
	<circle cx="213.227" cy="238.993" r="4.321"/>
	<circle cx="233.945" cy="197.557" r="4.321"/>
	<circle cx="223.586" cy="207.916" r="4.321"/>
	<circle cx="213.227" cy="218.275" r="4.321"/>
	<circle cx="275.381" cy="218.275" r="4.321"/>
	<circle cx="265.022" cy="228.634" r="4.321"/>
	<circle cx="254.663" cy="238.993" r="4.321"/>
	<circle cx="244.304" cy="249.352" r="4.321"/>
	<circle cx="233.945" cy="259.711" r="4.321"/>
	<circle cx="275.381" cy="238.993" r="4.321"/>
	<circle cx="265.022" cy="249.352" r="4.321"/>
	<circle cx="254.663" cy="259.711" r="4.321"/>
</g>
<g>
</g>
<g>
</g>
<g>
</g>
<g>
</g>
<g>
</g>
<g>
</g>
<g>
</g>
<g>
</g>
<g>
</g>
<g>
</g>
<g>
</g>
<g>
</g>
<g>
</g>
<g>
</g>
<g>
</g>
</svg>
