<?xml version="1.0" encoding="iso-8859-1"?>
<!-- Generator: Adobe Illustrator 18.0.0, SVG Export Plug-In . SVG Version: 6.00 Build 0)  -->
<!DOCTYPE svg PUBLIC "-//W3C//DTD SVG 1.1//EN" "http://www.w3.org/Graphics/SVG/1.1/DTD/svg11.dtd">
<svg version="1.1" id="Capa_1" xmlns="http://www.w3.org/2000/svg" xmlns:xlink="http://www.w3.org/1999/xlink" x="0px" y="0px"
	 viewBox="0 0 463.593 463.593" style="enable-background:new 0 0 463.593 463.593;" xml:space="preserve">
<g>
	<path d="M454.234,166.387v-12.821c0.119-0.15,0.23-0.307,0.328-0.474c12.041-20.648,12.041-46.302,0-66.951
		c-0.717-1.229-2.032-1.985-3.455-1.985H434.34c-1.92-11.871-12.236-20.966-24.641-20.966h-8.387c-2.209,0-4,1.791-4,4
		c0,9.355-7.611,16.966-16.967,16.966h-103.95c-2.132-3.425-5.023-6.395-8.545-8.66c-7.962-5.121-17.855-5.831-26.466-1.906
		l-56.886,25.935h-8.826c-1.807,0-3.39,1.211-3.861,2.956c-0.391,1.444-0.812,2.877-1.254,4.303
		c-8.545-7.431-28.552-20.069-62.291-15.249c-1.603,0.229-2.909,1.401-3.31,2.969c-0.401,1.568,0.182,3.223,1.478,4.193l0.607,0.46
		c12.255,9.334,17.888,23.951,15.068,39.1c-2.82,15.151-13.337,26.765-28.132,31.065l-17.712,5.149
		c-1.355,0.394-2.403,1.473-2.757,2.84l-4.511,17.454c-18.148,6.812-34.298,18.543-46.318,33.849
		C7.593,247.822-0.455,271.857,0.02,296.289c0.544,28.006,12.052,54.232,32.403,73.847c20.25,19.518,46.902,30.267,75.047,30.267
		h16.72c6.526,0,12.38-3.368,15.66-9.008c3.278-5.637,3.31-12.386,0.085-18.053c-3.939-6.925-6.021-14.799-6.021-22.771
		c0-10.214,3.359-19.903,9.716-28.019c14.729-18.811,40.91-23.13,60.892-10.044l13.052,8.551
		c17.331,11.355,35.597,23.324,48.73,31.921c3.282,2.157,7.452,1.683,10.144-1.153c2.735-2.882,2.975-7.17,0.578-10.434l-0.47-0.637
		c-2.597-3.529-4.605-7.329-6.045-11.273c10.608-2.491,18.532-12.026,18.532-23.384v-31.477l13.843-11.779h78.508
		c2.209,0,4-1.791,4-4c0-8.066-1.672-15.873-4.825-23.045h70.538c1.423,0,2.738-0.756,3.455-1.985
		c12.041-20.649,12.041-46.303,0-66.951C454.464,166.694,454.353,166.537,454.234,166.387z M215.567,163.635
		c0-2.918,0.338-5.782,0.976-8.558h229.691v9.8H215.598C215.585,164.463,215.567,164.051,215.567,163.635z M448.757,147.077H219.362
		c1.826-3.754,4.279-7.22,7.319-10.26c0.771-0.771,1.571-1.505,2.396-2.202c6.519-5.499,14.93-8.239,23.459-8.141l0.017,0
		c0.109,0.001,0.218,0.002,0.327,0.002c5.642,0,11.024-1.683,15.587-4.809c7.137,4.806,16.69,4.247,23.241-1.718
		c2.022-1.838,4.633-2.85,7.35-2.85s5.327,1.012,7.35,2.85c3.498,3.179,8.02,4.93,12.73,4.93c4.628,0,9.072-1.69,12.545-4.764
		c0.068-0.055,0.136-0.112,0.2-0.171c4.188-3.819,10.502-3.819,14.689,0c3.489,3.182,8.012,4.935,12.735,4.935
		c4.7,0,9.201-1.735,12.684-4.888c1.398-1.265,3.093-2.2,4.932-2.616c3.573-0.808,7.194,0.184,9.809,2.569
		c0.063,0.058,0.128,0.113,0.195,0.167c3.599,3.195,8.075,4.792,12.551,4.792c4.551,0,9.102-1.651,12.729-4.954
		c2.022-1.838,4.633-2.85,7.35-2.85s5.327,1.012,7.35,2.85c3.498,3.179,8.02,4.93,12.73,4.93c4.628,0,9.072-1.69,12.545-4.764
		c0.068-0.055,0.135-0.111,0.2-0.171c0.935-0.852,2.007-1.525,3.161-2.004C455.829,127.943,453.585,138.003,448.757,147.077z
		 M404.992,71.19h4.707c7.976,0,14.665,5.538,16.47,12.966h-27.55C401.9,80.624,404.188,76.157,404.992,71.19z M448.757,92.156
		c2.971,5.584,4.955,11.543,5.99,17.631c-2.787,0.762-5.385,2.142-7.569,4.081c-0.064,0.052-0.128,0.106-0.189,0.162
		c-2.023,1.838-4.634,2.851-7.351,2.851s-5.327-1.012-7.35-2.85c-3.498-3.179-8.02-4.93-12.73-4.93s-9.232,1.751-12.732,4.932
		c-4.189,3.813-10.506,3.813-14.695,0c-0.062-0.056-0.125-0.111-0.19-0.163c-3.464-3.078-7.911-4.77-12.552-4.77
		c-4.724,0-9.246,1.752-12.735,4.935c-2.013,1.835-4.621,2.846-7.345,2.846s-5.333-1.011-7.345-2.846
		c-7.198-6.565-18.025-6.622-25.287-0.166c-0.063,0.051-0.127,0.105-0.188,0.161c-2.023,1.838-4.634,2.851-7.351,2.851
		s-5.327-1.012-7.35-2.85c-3.498-3.179-8.02-4.93-12.73-4.93s-9.232,1.751-12.732,4.932c-3.288,2.992-7.881,3.626-11.733,1.922
		c3.866-4.869,5.969-10.85,5.969-17.168c0-2.267-0.28-4.489-0.804-6.63H448.757z M244.702,80.869
		c6.125-2.791,13.16-2.285,18.819,1.355c5.661,3.64,9.04,9.832,9.04,16.562c0,5.302-2.077,10.275-5.848,14.003
		s-8.763,5.719-14.069,5.687l-63.286-0.727v-11.647L244.702,80.869z M181.359,184.349c-2.009,0.979-4.215,1.494-6.483,1.494
		c-8.199,0-14.869-6.67-14.869-14.87s6.67-14.87,14.869-14.87c2.268,0,4.475,0.515,6.483,1.494V184.349z M80.685,181.517
		l15.525-4.514c17.493-5.084,30.431-19.371,33.765-37.283c2.801-15.048-1.645-30.147-11.729-41.133
		c29.236-1.506,44.818,11.701,49.43,16.439c-6.369,16.385-16.164,31.332-28.777,43.756c-16.019,15.77-36.035,26.925-57.886,32.26
		c-1.006,0.246-2.001,0.525-2.997,0.799L80.685,181.517z M270.678,346.271c-0.001,0.003-0.002,0.006-0.004,0.009
		c-13.139-8.601-31.395-20.563-48.718-31.912l-13.052-8.552c-11.271-7.38-24.796-10.238-38.086-8.045
		c-13.289,2.192-25.182,9.241-33.488,19.848c-7.469,9.538-11.417,20.933-11.417,32.952c0,9.356,2.444,18.599,7.068,26.728
		c1.8,3.163,1.782,6.929-0.047,10.075c-1.832,3.149-5.101,5.03-8.745,5.03h-16.72c-26.063,0-50.744-9.954-69.496-28.027
		c-18.814-18.134-29.453-42.37-29.956-68.242c-0.438-22.592,7.003-44.817,20.953-62.58c13.516-17.21,32.672-29.548,53.94-34.741
		c23.253-5.677,44.554-17.548,61.602-34.331c16.046-15.805,27.822-35.445,34.184-56.958h2.662v41.52
		c-2.089-0.618-4.267-0.94-6.483-0.94c-12.61,0-22.869,10.259-22.869,22.87s10.259,22.87,22.869,22.87
		c2.217,0,4.395-0.323,6.483-0.941v45.163c0,2.209,1.791,4,4,4h39.374c-0.254,1.425-0.394,2.889-0.394,4.386
		c0,13.767,11.2,24.966,24.967,24.966c13.767,0,24.966-11.2,24.966-24.966c0-1.497-0.14-2.961-0.394-4.386h41.082l-36.43,30.997
		c-21.289,18.106-24.986,49.924-8.417,72.439l0.468,0.634C270.646,346.223,270.673,346.279,270.678,346.271z M232.339,246.452
		c0-9.355,7.611-16.966,16.967-16.966c9.355,0,16.966,7.611,16.966,16.966s-7.61,16.966-16.966,16.966
		C239.951,263.418,232.339,255.807,232.339,246.452z M268.446,321.746c-2.499-14.3,1.904-29.422,12.596-40.11v24.463
		C281.042,313.758,275.639,320.17,268.446,321.746z M312.288,254.843l16.137-13.731c1.277-1.086,1.741-2.854,1.162-4.427
		c-0.579-1.574-2.077-2.619-3.754-2.619h-54.864c-4.31-7.508-12.402-12.58-21.663-12.58c-9.261,0-17.354,5.072-21.664,12.58h-38.283
		V125.748l37.561,0.432c-2.083,1.483-4.057,3.142-5.895,4.98c-8.679,8.679-13.458,20.212-13.458,32.475
		c0,25.327,20.605,45.933,45.933,45.933h74.619c13.158,0,25.535,5.125,34.847,14.426c8.355,8.365,13.34,19.198,14.27,30.85H312.288z
		 M448.757,227.798h-72.499c-2.184-3.373-4.727-6.548-7.635-9.459c1.214-0.69,2.362-1.511,3.419-2.473
		c2.012-1.835,4.62-2.845,7.345-2.845s5.333,1.01,7.345,2.845c0.063,0.058,0.128,0.113,0.195,0.167
		c3.599,3.195,8.075,4.792,12.551,4.792c4.551,0,9.102-1.651,12.729-4.954c2.021-1.837,4.632-2.85,7.35-2.85s5.328,1.012,7.35,2.85
		c3.497,3.179,8.019,4.93,12.73,4.93c4.628,0,9.073-1.69,12.545-4.764c0.069-0.055,0.137-0.113,0.202-0.172
		c0.433-0.396,0.899-0.75,1.388-1.068C452.635,219.269,450.97,223.638,448.757,227.798z M455.335,205.554
		c-3.017,0.723-5.832,2.167-8.159,4.235c-0.063,0.051-0.127,0.105-0.188,0.161c-2.022,1.838-4.633,2.851-7.35,2.851
		c-2.718,0-5.328-1.012-7.35-2.85c-3.498-3.179-8.019-4.93-12.73-4.93s-9.232,1.75-12.732,4.932c-4.189,3.813-10.506,3.813-14.695,0
		c-0.062-0.056-0.125-0.11-0.19-0.163c-3.463-3.077-7.91-4.769-12.552-4.769c-4.724,0-9.246,1.752-12.733,4.932
		c-1.396,1.271-3.056,2.135-4.859,2.554c-9.73-7.098-21.409-10.939-33.678-10.939h-74.619c-17.729,0-32.651-12.228-36.789-28.691
		h232.047C454.155,183.023,456.33,194.401,455.335,205.554z"/>
	<path d="M249.306,109.978c6.83,0,12.387-5.557,12.387-12.387s-5.557-12.387-12.387-12.387c-6.83,0-12.387,5.557-12.387,12.387
		S242.476,109.978,249.306,109.978z M249.306,93.204c2.419,0,4.387,1.968,4.387,4.387s-1.968,4.387-4.387,4.387
		s-4.387-1.968-4.387-4.387S246.887,93.204,249.306,93.204z"/>
	<path d="M90.165,204.558c-41.312,8.411-71.296,45.114-71.296,87.273c0,52.907,43.043,95.95,95.95,95.95h5.543
		c1.992,0,3.682-1.466,3.961-3.439c0.279-1.973-0.937-3.851-2.851-4.403c-9.844-2.844-17.484-10.003-20.961-19.642
		s-2.166-20.026,3.596-28.5l35.751-52.575c11.297-16.613,11.4-37.324,0.269-54.048C128.996,208.449,109.852,200.551,90.165,204.558z
		 M133.243,274.724l-35.751,52.575c-7.22,10.617-8.862,23.634-4.506,35.712c2.28,6.32,5.987,11.789,10.772,16.078
		c-43.296-5.455-76.89-42.507-76.89-87.258c0-38.372,27.291-71.779,64.892-79.435c2.83-0.576,5.644-0.857,8.414-0.857
		c13.322,0,25.601,6.509,33.293,18.067C142.76,243.568,142.674,260.856,133.243,274.724z"/>
	<path d="M98.348,238.258c-8.563,0-15.531,6.967-15.531,15.532c0,8.564,6.968,15.531,15.531,15.531
		c8.564,0,15.532-6.967,15.532-15.531C113.88,245.226,106.912,238.258,98.348,238.258z M98.348,261.321
		c-4.152,0-7.531-3.378-7.531-7.531c0-4.153,3.379-7.532,7.531-7.532c4.153,0,7.532,3.379,7.532,7.532
		C105.88,257.943,102.501,261.321,98.348,261.321z"/>
</g>
<g>
</g>
<g>
</g>
<g>
</g>
<g>
</g>
<g>
</g>
<g>
</g>
<g>
</g>
<g>
</g>
<g>
</g>
<g>
</g>
<g>
</g>
<g>
</g>
<g>
</g>
<g>
</g>
<g>
</g>
</svg>
