<?xml version="1.0" encoding="iso-8859-1"?>
<!-- Generator: Adobe Illustrator 18.0.0, SVG Export Plug-In . SVG Version: 6.00 Build 0)  -->
<!DOCTYPE svg PUBLIC "-//W3C//DTD SVG 1.1//EN" "http://www.w3.org/Graphics/SVG/1.1/DTD/svg11.dtd">
<svg version="1.1" id="Capa_1" xmlns="http://www.w3.org/2000/svg" xmlns:xlink="http://www.w3.org/1999/xlink" x="0px" y="0px"
	 viewBox="0 0 486.33 486.33" style="enable-background:new 0 0 486.33 486.33;" xml:space="preserve">
<g>
	<path d="M308.691,361.399h-28.253c-2.209,0-4,1.791-4,4v16.4h-15.543v-65.647l2.027-0.383c12.884-2.391,25.922,0.377,36.711,7.793
		c0.683,0.47,1.475,0.703,2.266,0.703c0.839,0,1.678-0.264,2.385-0.789c1.373-1.019,1.946-2.798,1.426-4.427
		c-5.743-18.002-26.712-30.095-42.693-30.095c-1.757,0-3.435,0.145-5.008,0.435l-42.539,8.05
		c-12.875,2.39-25.909-0.376-36.699-7.793c-1.409-0.968-3.277-0.935-4.65,0.086c-1.373,1.019-1.946,2.798-1.426,4.427
		c5.744,18.002,26.712,30.095,42.693,30.095c1.76,0,3.438-0.146,5.004-0.435l5.04-0.952v145.737c0,9.773,7.952,17.726,17.726,17.726
		c9.781,0,17.738-7.952,17.738-17.726v-27.008h15.543v16.409c0,2.209,1.791,4,4,4h28.253c2.209,0,4-1.791,4-4v-29.038
		c0-2.209-1.791-4-4-4h-8.557v-26.531h8.557c2.209,0,4-1.791,4-4v-29.037C312.691,363.19,310.9,361.399,308.691,361.399z
		 M252.894,361.399H233.43v-59.217l19.464-3.683V361.399z M233.43,369.399h19.464v16.4v51.797v16.413H233.43V369.399z
		 M291.453,310.387c-9.492-3.487-19.788-4.377-30.004-2.48l-0.555,0.105v-10.944c0.678-0.067,1.38-0.112,2.121-0.112
		C272.254,296.955,283.9,302.131,291.453,310.387z M218.921,315.955c-1.072,0.198-2.261,0.299-3.535,0.299
		c-9.237,0-20.883-5.176-28.437-13.431c9.491,3.487,19.782,4.376,29.995,2.479l8.486-1.606v11.03L218.921,315.955z M243.156,478.33
		c-5.363,0-9.726-4.363-9.726-9.726v-6.595h19.464v6.595C252.894,473.967,248.526,478.33,243.156,478.33z M304.691,390.437h-8.557
		c-2.209,0-4,1.791-4,4v34.531c0,2.209,1.791,4,4,4h8.557v21.038h-20.253v-16.409c0-2.209-1.791-4-4-4h-19.543V389.8h19.543
		c2.209,0,4-1.791,4-4v-16.4h20.253V390.437z"/>
	<path d="M215.468,232.552c-12.863,2.389-25.898-0.38-36.702-7.794c-1.409-0.968-3.278-0.935-4.649,0.088
		c-1.372,1.02-1.944,2.798-1.424,4.427c5.748,18.002,26.716,30.095,42.693,30.095c1.753,0,3.431-0.146,5.004-0.435l42.531-8.05
		c12.883-2.389,25.918,0.374,36.713,7.782c1.409,0.966,3.276,0.933,4.65-0.088c1.372-1.02,1.944-2.798,1.424-4.427
		c-5.747-18.002-26.715-30.095-42.693-30.095c-0.724,0-1.425,0.041-2.121,0.09v-75.118l41.771-41.772
		c8.329-8.321,12.916-19.39,12.916-31.164s-4.587-22.843-12.914-31.163c-8.324-8.324-19.396-12.908-31.175-12.908
		c-2.619,0-5.204,0.227-7.731,0.671c1.435-2.985,2.24-6.328,2.24-9.856C266,10.244,255.756,0,243.165,0S220.33,10.244,220.33,22.836
		c0,3.526,0.804,6.868,2.238,9.852c-2.532-0.447-5.122-0.675-7.747-0.675c-11.774,0-22.842,4.587-31.163,12.915
		c-8.324,8.323-12.909,19.391-12.909,31.163s4.584,22.84,12.908,31.163l41.772,41.784v81.625L215.468,232.552z M218.924,251.068
		c-1.079,0.198-2.269,0.299-3.538,0.299c-9.239,0-20.887-5.179-28.441-13.438c9.498,3.49,19.791,4.382,29.999,2.485l8.487-1.608
		v11.031L218.924,251.068z M240.33,83.876c1.563,1.563,4.095,1.563,5.657,0l16.65-16.647c2.367-2.368,5.515-3.672,8.863-3.672
		c3.348,0,6.495,1.304,8.863,3.672c2.362,2.362,3.663,5.509,3.663,8.862c0,3.353-1.301,6.5-3.664,8.863l-37.202,37.201
		l-37.201-37.201c-2.363-2.363-3.664-5.511-3.664-8.863c0-3.354,1.301-6.501,3.665-8.863c2.366-2.367,5.513-3.671,8.861-3.671
		c3.348,0,6.495,1.304,8.862,3.671L240.33,83.876z M252.894,151.226v93.413l-19.464,3.684v-97.097H252.894z M263.015,232.056
		c9.241,0,20.893,5.182,28.447,13.443c-9.498-3.485-19.794-4.374-30.013-2.479l-0.555,0.105v-10.957
		C261.574,232.1,262.276,232.056,263.015,232.056z M297.011,50.586c6.816,6.812,10.57,15.869,10.57,25.506
		s-3.754,18.694-10.571,25.507l-41.626,41.627h-8.223v-13.756l38.859-38.859c3.873-3.873,6.006-9.03,6.007-14.52
		c0-5.49-2.133-10.646-6.006-14.519c-3.878-3.879-9.035-6.016-14.52-6.016c-5.486,0-10.643,2.137-14.521,6.016l-9.823,9.822V49.469
		c6.664-6.103,15.242-9.448,24.335-9.448C281.135,40.021,290.197,43.772,297.011,50.586z M243.165,8
		C251.345,8,258,14.655,258,22.836c0,8.18-6.655,14.835-14.835,14.835s-14.835-6.655-14.835-14.835
		C228.33,14.655,234.985,8,243.165,8z M178.749,76.092c0-9.636,3.752-18.693,10.566-25.508c6.811-6.816,15.869-10.57,25.505-10.57
		c9.096,0,17.674,3.348,24.335,9.455v21.92l-9.816-9.817c-3.878-3.879-9.034-6.015-14.52-6.015s-10.641,2.136-14.518,6.014
		c-3.874,3.874-6.007,9.03-6.007,14.521c0,5.489,2.133,10.646,6.007,14.52l38.858,38.859v13.756h-8.23l-41.616-41.627
		C182.501,94.785,178.749,85.728,178.749,76.092z"/>
</g>
<g>
</g>
<g>
</g>
<g>
</g>
<g>
</g>
<g>
</g>
<g>
</g>
<g>
</g>
<g>
</g>
<g>
</g>
<g>
</g>
<g>
</g>
<g>
</g>
<g>
</g>
<g>
</g>
<g>
</g>
</svg>
