<?xml version="1.0" encoding="iso-8859-1"?>
<!-- Generator: Adobe Illustrator 18.0.0, SVG Export Plug-In . SVG Version: 6.00 Build 0)  -->
<!DOCTYPE svg PUBLIC "-//W3C//DTD SVG 1.1//EN" "http://www.w3.org/Graphics/SVG/1.1/DTD/svg11.dtd">
<svg version="1.1" id="Capa_1" xmlns="http://www.w3.org/2000/svg" xmlns:xlink="http://www.w3.org/1999/xlink" x="0px" y="0px"
	 viewBox="0 0 424.522 424.522" style="enable-background:new 0 0 424.522 424.522;" xml:space="preserve">
<g>
	<path d="M66.308,227.654l-2.645,15.42c-0.258,1.5,0.359,3.017,1.591,3.912c1.232,0.895,2.866,1.015,4.213,0.304l13.848-7.279
		l13.848,7.279c0.585,0.309,1.225,0.46,1.861,0.46c0.829,0,1.654-0.258,2.352-0.764c1.231-0.896,1.849-2.412,1.591-3.912
		l-2.645-15.42l11.203-10.921c1.091-1.063,1.482-2.652,1.012-4.101c-0.47-1.448-1.722-2.503-3.229-2.722l-15.482-2.25l-6.924-14.029
		c-0.674-1.365-2.064-2.229-3.587-2.229s-2.913,0.864-3.587,2.229l-6.924,14.029l-15.482,2.25c-1.507,0.219-2.759,1.273-3.229,2.722
		c-0.471,1.448-0.079,3.038,1.012,4.101L66.308,227.654z M76.035,215.275c1.303-0.188,2.429-1.007,3.012-2.188l4.268-8.647
		l4.268,8.647c0.583,1.181,1.709,1.999,3.012,2.188l9.543,1.387l-6.905,6.731c-0.942,0.919-1.373,2.243-1.15,3.54l1.63,9.504
		l-8.535-4.486c-0.583-0.307-1.222-0.46-1.861-0.46s-1.278,0.153-1.861,0.46l-8.535,4.486l1.63-9.504
		c0.223-1.297-0.208-2.621-1.15-3.54l-6.905-6.731L76.035,215.275z"/>
	<path d="M344.793,193.631c-0.674-1.365-2.064-2.229-3.587-2.229s-2.913,0.864-3.587,2.229l-6.924,14.029l-15.482,2.25
		c-1.507,0.219-2.759,1.273-3.229,2.722c-0.471,1.448-0.079,3.038,1.012,4.101l11.203,10.921l-2.645,15.42
		c-0.258,1.5,0.359,3.017,1.591,3.912c1.233,0.895,2.866,1.015,4.213,0.304l13.848-7.279l13.848,7.279
		c0.585,0.309,1.225,0.46,1.861,0.46c0.829,0,1.654-0.258,2.352-0.764c1.231-0.896,1.849-2.412,1.591-3.912l-2.645-15.42
		l11.203-10.921c1.091-1.063,1.482-2.652,1.012-4.101c-0.47-1.448-1.722-2.503-3.229-2.722l-15.482-2.25L344.793,193.631z
		 M351.123,223.393c-0.942,0.919-1.373,2.243-1.15,3.54l1.63,9.504l-8.535-4.486c-0.583-0.307-1.222-0.46-1.861-0.46
		s-1.278,0.153-1.861,0.46l-8.535,4.486l1.63-9.504c0.223-1.297-0.208-2.621-1.15-3.54l-6.905-6.731l9.543-1.387
		c1.303-0.188,2.429-1.007,3.012-2.188l4.268-8.647l4.268,8.647c0.583,1.181,1.709,1.999,3.012,2.188l9.543,1.387L351.123,223.393z"
		/>
	<path d="M195.254,94.765l-2.645,15.42c-0.258,1.5,0.359,3.017,1.591,3.912c1.232,0.895,2.866,1.014,4.213,0.304l13.848-7.279
		l13.848,7.279c0.585,0.309,1.225,0.46,1.861,0.46c0.829,0,1.654-0.258,2.352-0.764c1.231-0.896,1.849-2.412,1.591-3.912
		l-2.645-15.42l11.203-10.921c1.091-1.063,1.482-2.652,1.012-4.101c-0.47-1.448-1.722-2.503-3.229-2.722l-15.482-2.25l-6.924-14.029
		c-0.674-1.365-2.064-2.229-3.587-2.229s-2.913,0.864-3.587,2.229l-6.924,14.029l-15.482,2.25c-1.507,0.219-2.759,1.273-3.229,2.722
		c-0.471,1.448-0.079,3.038,1.012,4.101L195.254,94.765z M204.982,82.386c1.303-0.188,2.429-1.007,3.012-2.188l4.268-8.647
		l4.268,8.647c0.583,1.181,1.709,1.999,3.012,2.188l9.543,1.387l-6.905,6.731c-0.942,0.919-1.373,2.243-1.15,3.54l1.63,9.504
		l-8.535-4.486c-0.583-0.307-1.222-0.46-1.861-0.46s-1.278,0.153-1.861,0.46l-8.535,4.486l1.63-9.504
		c0.223-1.297-0.208-2.621-1.15-3.54l-6.905-6.731L204.982,82.386z"/>
	<path d="M212.261,325.772c-12.544,0-22.75,10.206-22.75,22.75s10.206,22.75,22.75,22.75s22.75-10.206,22.75-22.75
		S224.805,325.772,212.261,325.772z M212.261,363.272c-8.133,0-14.75-6.617-14.75-14.75s6.617-14.75,14.75-14.75
		s14.75,6.617,14.75,14.75S220.394,363.272,212.261,363.272z"/>
	<path d="M424.473,101.711c-0.187-1.174-0.884-2.203-1.905-2.812c-17.875-10.641-36.551-17.497-55.636-20.451
		c19.087-18.435,30.436-39.936,32.914-62.505c0.129-1.181-0.272-2.358-1.098-3.214c-0.825-0.854-1.985-1.298-3.172-1.212
		c-40.132,2.945-67.596,18.928-83.567,31.816c-12.998,10.489-20.64,20.554-23.81,25.208c-4.374-2.201-8.859-4.214-13.442-6.038
		c-1.56-6.542-6.648-11.883-13.597-13.546c-31.86-7.621-65.938-7.621-97.796,0c-6.949,1.663-12.037,7.004-13.597,13.546
		c-4.583,1.824-9.068,3.837-13.442,6.038c-3.17-4.654-10.812-14.719-23.81-25.208C96.542,30.445,69.078,14.463,28.947,11.518
		c-1.192-0.086-2.348,0.357-3.172,1.212c-0.825,0.855-1.227,2.033-1.098,3.214c2.478,22.569,13.826,44.07,32.913,62.505
		C38.505,81.402,19.828,88.259,1.954,98.9c-1.021,0.608-1.719,1.638-1.905,2.812c-0.186,1.174,0.16,2.368,0.942,3.262
		c15.101,17.233,36.996,28.399,63.524,32.472c-3.51,6.305-6.627,12.86-9.325,19.635c-6.542,1.559-11.883,6.649-13.546,13.597
		c-3.811,15.927-5.743,32.379-5.743,48.898s1.933,32.972,5.743,48.898c1.378,5.76,5.283,10.241,10.304,12.495
		c0.61,17.727,6.52,124.046,60.323,131.555c2.354,0.328,4.672,0.491,6.957,0.491c16.046,0,30.318-8.08,41.634-23.63
		c0.806,0.317,1.634,0.6,2.501,0.807c15.93,3.811,32.382,5.743,48.898,5.743c16.516,0,32.968-1.933,48.897-5.743
		c0.867-0.208,1.695-0.49,2.501-0.807c11.318,15.551,25.587,23.63,41.635,23.63c2.284,0,4.604-0.163,6.957-0.491
		c53.804-7.509,59.713-113.828,60.323-131.555c5.021-2.254,8.926-6.736,10.304-12.495c3.811-15.931,5.743-32.383,5.743-48.898
		s-1.933-32.968-5.743-48.898c-1.664-6.949-7.003-12.039-13.545-13.598c-2.698-6.774-5.816-13.329-9.326-19.634
		c26.527-4.074,48.422-15.239,63.523-32.471C424.313,104.08,424.659,102.885,424.473,101.711z M391.206,19.935
		c-7.934,46.021-53.943,71.996-62.964,76.679c-9.915-9.355-20.968-17.514-32.931-24.27
		C302.702,61.861,332.013,26.073,391.206,19.935z M274.815,71.17c38.66,16.306,69.532,47.178,85.852,85.852l-51.123,7.46
		c-2.897,0.423-5.604,1.544-7.946,3.195c-8.986-15.406-22.028-28.447-37.44-37.438c1.651-2.343,2.774-5.05,3.197-7.948
		L274.815,71.17z M274.815,367.984l-7.46-51.125c-0.423-2.898-1.546-5.605-3.198-7.948c15.409-8.988,28.451-22.029,37.438-37.438
		c2.343,1.652,5.05,2.774,7.949,3.197l51.115,7.459C344.348,320.804,313.48,351.675,274.815,367.984z M149.706,367.983
		c-38.665-16.308-69.533-47.181-85.843-85.855l51.114-7.459c2.899-0.423,5.606-1.546,7.95-3.198
		c8.988,15.409,22.029,28.451,37.438,37.439c-1.652,2.343-2.775,5.051-3.198,7.949L149.706,367.983z M166.677,135.861
		c2.666,1.433,5.624,2.177,8.606,2.177c1.619,0,3.244-0.218,4.831-0.659c10.418-2.899,21.233-4.37,32.147-4.37
		c9.043,0,18.015,1.026,26.753,3.021c-1.907,4.977-6.709,8.349-12.145,8.349c-4.697,0-9.047-2.546-11.353-6.646
		c-1.083-1.925-3.521-2.607-5.447-1.525c-1.925,1.083-2.608,3.521-1.525,5.447c1.414,2.514,3.306,4.663,5.523,6.365
		c-2.357,7.349-9.208,12.408-17.005,12.408c-3.015,0-5.964-0.773-8.572-2.198c1.826-3.657,2.859-7.777,2.859-12.135
		c0-2.209-1.791-4-4-4s-4,1.791-4,4c0,10.623-8.643,19.265-19.265,19.265c-8.658,0-16.126-5.721-18.486-13.861
		C151.872,145.352,158.977,140.065,166.677,135.861z M139.543,157.987c4.452,9.215,13.858,15.371,24.542,15.371
		c7.794,0,14.829-3.292,19.802-8.552c3.963,2.344,8.517,3.621,13.176,3.621c10.874,0,20.481-6.797,24.222-16.809
		c1.797,0.497,3.673,0.76,5.586,0.76c9.147,0,17.184-5.917,19.975-14.522c3.767,0.505,7.612-0.187,10.99-2.002
		c14.201,7.755,26.373,19.197,35.035,32.855c-2.44,7.336-9.207,12.242-16.98,12.242c-3.484,0-6.795-0.982-9.677-2.844
		c-0.47-4.452-1.868-8.765-4.143-12.625c-1.122-1.903-3.575-2.54-5.477-1.416c-1.903,1.121-2.537,3.573-1.416,5.477
		c2.111,3.583,3.227,7.688,3.227,11.874c0,12.92-10.511,23.431-23.431,23.431c-9.814,0-18.665-6.192-22.023-15.408
		c-0.756-2.076-3.058-3.146-5.127-2.389c-2.076,0.756-3.146,3.052-2.389,5.127c1.76,4.831,4.656,9.03,8.303,12.368
		c-2.302,7.364-9.145,12.516-17.043,12.516c-6.804,0-13.012-3.955-15.998-9.906c2.844-2.115,5.149-4.975,6.593-8.391
		c0.861-2.035-0.091-4.382-2.125-5.242c-2.034-0.863-4.383,0.091-5.242,2.125c-1.934,4.571-6.39,7.525-11.353,7.525
		c-1.134,0-2.232-0.165-3.295-0.459c0.015-0.368,0.028-0.737,0.028-1.109c0-4.416-1.095-8.8-3.167-12.676
		c-1.039-1.947-3.462-2.685-5.413-1.642c-1.948,1.041-2.684,3.465-1.642,5.413c1.453,2.72,2.222,5.799,2.222,8.904
		c0,10.431-8.486,18.917-18.917,18.917c-4.732,0-9.152-1.718-12.624-4.846c0.308-9.59,1.751-19.074,4.304-28.247
		c1.256-4.511,0.683-9.321-1.528-13.434C131.646,168.303,135.341,162.933,139.543,157.987z M138.383,228.522
		c11.691,0,21.66-7.494,25.368-17.929c1.572,0.382,3.191,0.58,4.815,0.58c1.675,0,3.311-0.214,4.888-0.604
		c4.293,8.702,13.331,14.492,23.237,14.492c10.575,0,19.837-6.386,23.81-15.78c4.387,2.283,9.325,3.566,14.469,3.566
		c15.443,0,28.311-11.198,30.933-25.899c3.129,1.311,6.495,2.003,9.984,2.003c6.895,0,13.235-2.679,17.933-7.188
		c-0.087,1.893,0.12,3.806,0.637,5.665c2.899,10.418,4.37,21.233,4.37,32.146c0,5.751-0.42,11.472-1.23,17.125
		c-3.019-0.374-5.826-1.251-7.947-2.526l-4.55-2.75c-1.271-0.768-2.863-0.769-4.135-0.003l-4.558,2.748
		c-6.11,3.678-16.436,3.675-22.542,0.003l-4.56-2.75c-1.271-0.769-2.863-0.767-4.135,0.002l-4.541,2.744
		c-6.115,3.674-16.44,3.676-22.544,0.003l-4.561-2.75c-1.27-0.766-2.861-0.767-4.131,0.001l-4.557,2.747
		c-6.107,3.676-16.434,3.674-22.539,0.004l-4.551-2.75c-1.27-0.766-2.862-0.769-4.134-0.001l-4.555,2.746
		c-6.115,3.674-16.44,3.676-22.544,0.003l-4.561-2.75c-1.27-0.766-2.861-0.767-4.131,0.001l-4.549,2.743
		c-1.777,1.064-3.979,1.84-6.391,2.289c-0.517-3.657-0.857-7.344-1.035-11.048C129.686,227.423,133.99,228.522,138.383,228.522z
		 M285.417,280.624l-0.315-0.191c-1.271-0.769-2.864-0.77-4.136-0.003l-4.558,2.748c-6.11,3.678-16.436,3.675-22.542,0.003
		l-4.56-2.75c-1.271-0.769-2.863-0.767-4.135,0.002l-4.541,2.744c-6.115,3.674-16.44,3.676-22.544,0.003l-4.561-2.75
		c-1.27-0.766-2.861-0.767-4.131,0.001l-4.557,2.747c-6.107,3.676-16.434,3.674-22.539,0.004l-4.551-2.75
		c-1.27-0.767-2.862-0.77-4.134-0.001l-4.555,2.746c-6.115,3.674-16.44,3.676-22.544,0.003l-4.561-2.75
		c-1.01-0.609-2.22-0.725-3.313-0.366c-3.041-3.689-5.807-7.6-8.26-11.7c2.573-0.66,4.963-1.612,7.014-2.84l2.494-1.504l2.498,1.507
		c8.63,5.192,22.156,5.192,30.798-0.003l2.492-1.502l2.492,1.506c8.64,5.189,22.164,5.191,30.796-0.004l2.494-1.504l2.498,1.507
		c8.629,5.191,22.155,5.192,30.802-0.005l2.482-1.5l2.495,1.505c4.317,2.597,9.855,3.896,15.396,3.896
		c5.54,0,11.083-1.3,15.401-3.897l2.492-1.503l2.491,1.505c2.428,1.461,5.307,2.524,8.424,3.169
		C291.414,272.883,288.559,276.872,285.417,280.624z M130.064,251.721c-0.68-2.443-1.275-4.91-1.797-7.394
		c3.381-0.625,6.527-1.746,9.13-3.305l2.494-1.504l2.498,1.507c8.63,5.193,22.156,5.192,30.798-0.003l2.492-1.502l2.492,1.506
		c8.64,5.19,22.164,5.19,30.796-0.004l2.494-1.504l2.498,1.507c8.629,5.19,22.155,5.192,30.802-0.005l2.482-1.5l2.495,1.505
		c4.317,2.597,9.855,3.896,15.396,3.896c5.54,0,11.083-1.3,15.401-3.897l2.492-1.503l2.491,1.505
		c3.004,1.807,6.692,3.016,10.678,3.556c-0.51,2.398-1.083,4.781-1.74,7.141c-0.81,2.909-0.844,5.941-0.188,8.834
		c-1.725-0.46-3.303-1.088-4.619-1.879l-4.55-2.75c-1.271-0.768-2.863-0.769-4.135-0.003l-4.558,2.748
		c-6.11,3.678-16.436,3.675-22.542,0.003l-4.56-2.75c-1.271-0.769-2.863-0.767-4.135,0.002l-4.541,2.744
		c-6.115,3.674-16.44,3.676-22.544,0.003l-4.561-2.75c-1.27-0.766-2.861-0.767-4.131,0.001l-4.557,2.747
		c-6.107,3.676-16.434,3.674-22.539,0.004l-4.551-2.75c-1.27-0.766-2.862-0.769-4.134-0.001l-4.555,2.746
		c-6.115,3.674-16.44,3.676-22.544,0.003l-4.561-2.75c-1.27-0.766-2.861-0.767-4.131,0.001l-4.549,2.743
		c-0.875,0.524-1.859,0.973-2.913,1.355C130.897,257.292,130.824,254.452,130.064,251.721z M166.692,303.295
		c-5.161-2.817-10.052-6.12-14.607-9.844c7.26,1.209,15.285,0.077,21.102-3.42l2.492-1.502l2.492,1.506
		c8.64,5.19,22.164,5.19,30.796-0.004l2.494-1.504l2.498,1.507c8.629,5.19,22.155,5.191,30.802-0.005l2.482-1.5l2.495,1.505
		c4.317,2.597,9.855,3.896,15.396,3.896c2.65,0,5.297-0.306,7.814-0.901c-4.699,3.896-9.763,7.343-15.118,10.266
		c-4.111-2.207-8.92-2.775-13.423-1.522c-10.418,2.899-21.233,4.37-32.146,4.37c-10.914,0-21.729-1.471-32.147-4.37
		C175.61,300.521,170.803,301.09,166.692,303.295z M165.224,56.739c30.642-7.332,63.43-7.332,94.073,0
		c5.255,1.257,8.629,6.239,7.848,11.591l-7.706,52.806c-0.434,2.967-2.123,5.607-4.638,7.244c-2.488,1.62-5.416,2.08-8.249,1.291
		c-11.115-3.094-22.652-4.663-34.291-4.663s-23.177,1.569-34.292,4.663c-2.831,0.789-5.761,0.329-8.25-1.291
		c-2.513-1.637-4.203-4.277-4.636-7.244l-7.707-52.807v0.001C156.596,62.98,159.97,57.996,165.224,56.739z M160.363,130.238
		c-15.407,8.984-28.45,22.025-37.445,37.435c-2.341-1.649-5.046-2.769-7.941-3.192l-51.121-7.46
		c16.319-38.674,47.189-69.544,85.85-85.851l7.461,51.121C157.59,125.189,158.712,127.896,160.363,130.238z M33.316,19.935
		c35.208,3.66,59.5,17.853,73.886,29.394c11.693,9.38,18.85,18.516,22.011,23.014c-11.963,6.756-23.017,14.916-32.933,24.272
		C87.253,91.928,41.25,65.954,33.316,19.935z M10.359,103.293c17.75-9.863,36.253-15.832,55.089-17.791
		c10.237,8.552,19.697,14.2,24.877,17.02c-8.039,8.374-15.219,17.578-21.411,27.473C51.535,127.749,28.146,121.225,10.359,103.293z
		 M43.901,219.575c0-15.894,1.858-31.719,5.524-47.037c1.136-4.747,5.312-7.959,10.054-7.959c0.507,0,1.021,0.037,1.537,0.112
		l52.807,7.706c2.966,0.433,5.605,2.123,7.242,4.637c1.621,2.488,2.08,5.419,1.292,8.249c-3.094,11.112-4.663,22.65-4.663,34.292
		s1.569,23.18,4.663,34.291c0.788,2.831,0.329,5.762-1.292,8.25c-1.637,2.514-4.276,4.204-7.242,4.637l-52.807,7.706
		c-0.001,0-0.001,0-0.001,0c-5.349,0.781-10.333-2.592-11.59-7.847C45.759,251.294,43.901,235.469,43.901,219.575z M113.376,404.6
		c-26.005-3.629-39.167-37.188-45.629-64.701c-3.948-16.809-5.926-33.473-6.911-45.196c18.456,37.17,50.106,66.493,88.93,81.947
		c0.743,3.115,2.295,5.949,4.459,8.252C143.024,400.181,129.288,406.818,113.376,404.6z M259.297,382.411
		c-30.644,7.333-63.432,7.331-94.073,0c-5.254-1.257-8.628-6.24-7.848-11.59l7.707-52.808c0.433-2.966,2.123-5.606,4.636-7.243
		c1.694-1.103,3.592-1.667,5.523-1.667c0.907,0,1.821,0.124,2.727,0.376c11.115,3.094,22.653,4.663,34.292,4.663
		s23.176-1.569,34.291-4.663c2.833-0.788,5.761-0.329,8.249,1.291c2.515,1.637,4.204,4.277,4.638,7.243l7.706,52.807
		c0,0.001,0,0.001,0,0.001C267.926,376.172,264.552,381.154,259.297,382.411z M311.146,404.6
		c-15.908,2.226-29.647-4.418-40.85-19.698c2.164-2.302,3.716-5.137,4.459-8.252c38.823-15.453,70.474-44.775,88.93-81.944
		c-0.985,11.723-2.963,28.385-6.911,45.193C345.067,389.746,325.499,402.597,311.146,404.6z M375.097,172.538
		c3.666,15.322,5.524,31.147,5.524,47.037s-1.858,31.715-5.524,47.037c-1.257,5.255-6.234,8.626-11.591,7.847l-52.808-7.706
		c-2.966-0.433-5.604-2.122-7.242-4.636c-1.62-2.489-2.079-5.419-1.291-8.251c3.094-11.115,4.663-22.652,4.663-34.291
		s-1.569-23.176-4.663-34.291c-0.788-2.832-0.329-5.762,1.291-8.251c1.638-2.514,4.276-4.203,7.242-4.636l52.808-7.706
		c0.001,0,0.001,0,0.001,0c0.517-0.075,1.029-0.112,1.536-0.112C369.784,164.579,373.961,167.791,375.097,172.538z M355.608,129.996
		c-6.191-9.896-13.372-19.099-21.411-27.473c5.18-2.819,14.64-8.468,24.877-17.02c18.835,1.959,37.338,7.928,55.089,17.79
		C396.376,121.226,372.987,127.748,355.608,129.996z"/>
</g>
<g>
</g>
<g>
</g>
<g>
</g>
<g>
</g>
<g>
</g>
<g>
</g>
<g>
</g>
<g>
</g>
<g>
</g>
<g>
</g>
<g>
</g>
<g>
</g>
<g>
</g>
<g>
</g>
<g>
</g>
</svg>
