<?xml version="1.0" encoding="iso-8859-1"?>
<!-- Generator: Adobe Illustrator 18.0.0, SVG Export Plug-In . SVG Version: 6.00 Build 0)  -->
<!DOCTYPE svg PUBLIC "-//W3C//DTD SVG 1.1//EN" "http://www.w3.org/Graphics/SVG/1.1/DTD/svg11.dtd">
<svg version="1.1" id="Capa_1" xmlns="http://www.w3.org/2000/svg" xmlns:xlink="http://www.w3.org/1999/xlink" x="0px" y="0px"
	 viewBox="0 0 478.964 478.964" style="enable-background:new 0 0 478.964 478.964;" xml:space="preserve">
<path d="M450.296,247.891c0-9.506-4.533-18.415-11.926-24.083c10.998-9.245,17.409-22.833,17.409-37.413
	c0-22.924-16.256-42.702-38.076-47.693c2.503-4.478,3.839-9.547,3.839-14.77c0-16.336-12.995-29.693-29.189-30.28
	c-2.782-21.934-21.358-38.585-43.902-38.585c-6.168,0-12.237,1.282-17.828,3.742c-3.635-12.809-15.3-21.893-29.124-21.893
	c-2.885,0-5.711,0.399-8.439,1.191c-5.538-8.841-14.729-14.85-25.057-16.354C264.265,8.984,252.486,0,238.931,0
	c-13.64,0-25.454,9.069-29.126,21.948c-9.828,1.774-18.584,7.707-23.898,16.16c-2.729-0.792-5.556-1.192-8.441-1.192
	c-13.824,0-25.49,9.084-29.125,21.892c-5.59-2.459-11.659-3.741-17.827-3.741c-22.544,0-41.12,16.651-43.903,38.585
	c-16.195,0.587-29.189,13.944-29.189,30.28c0,5.223,1.336,10.292,3.839,14.77c-21.82,4.991-38.075,24.77-38.075,47.693
	c0,14.58,6.411,28.169,17.408,37.413c-7.393,5.668-11.926,14.577-11.926,24.083c0,10.669,5.453,20.264,14.265,25.72
	c-8.901,10.832-13.748,24.3-13.748,38.465c0,15.881,6.094,30.897,17.158,42.285c9.775,10.061,22.491,16.33,36.255,17.975
	c-0.613,2.418-0.923,4.908-0.923,7.447c0,16.707,13.593,30.3,30.3,30.3c2.52,0,4.987-0.303,7.381-0.903
	c1.723,19.886,18.459,35.543,38.784,35.543c6.196,0,12.169-1.438,17.58-4.187l-5.132,37.34l7.926,1.09l0.547-3.979
	c11.365-13.053,49.422-50.559,112.48-52.858l7.812,56.836l7.926-1.09l-5.219-37.97c5.718,3.16,12.113,4.818,18.766,4.818
	c20.325,0,37.062-15.657,38.783-35.543c2.395,0.601,4.862,0.903,7.383,0.903c16.707,0,30.3-13.593,30.3-30.3
	c0-2.54-0.31-5.03-0.924-7.448c13.764-1.644,26.48-7.914,36.255-17.974c11.064-11.388,17.158-26.404,17.158-42.285
	c0-14.165-4.847-27.633-13.748-38.465C444.843,268.154,450.296,258.56,450.296,247.891z M384.685,97.911
	c0.043,1.1,0.536,2.134,1.365,2.857c0.828,0.725,1.917,1.081,3.015,0.97c0.742-0.071,1.476-0.107,2.178-0.107
	c12.296,0,22.3,10.004,22.3,22.301c0,2.022-0.28,4.01-0.806,5.923L274.68,146.986c-1.025,0.13-2.02-0.449-2.396-1.36
	c-0.007-0.018-0.05-0.123-0.058-0.14c-0.399-0.961-0.108-2.076,0.708-2.713l95.034-74.048
	C377.662,74.895,384.208,85.554,384.685,97.911z M287.631,44.774c0.938,1.901,3.197,2.739,5.151,1.909
	c2.759-1.173,5.691-1.768,8.716-1.768c4.97,0,9.553,1.604,13.26,4.334l-59.271,76.07c-0.637,0.817-1.752,1.107-2.658,0.734
	c-0.022-0.01-0.133-0.057-0.155-0.065c-0.955-0.394-1.533-1.388-1.405-2.417l11.739-94.557c0.469,0.232,0.982,0.386,1.529,0.418
	C274.399,30.022,283.248,35.901,287.631,44.774z M186.18,46.684c1.954,0.83,4.213-0.008,5.151-1.909
	c4.206-8.514,12.682-14.361,22.118-15.26c0.505-0.048,0.979-0.198,1.413-0.417l11.732,94.477c0.128,1.028-0.449,2.021-1.403,2.414
	l1.523,3.698l-1.631-3.654c-0.962,0.398-2.072,0.105-2.707-0.71l-58.861-75.535c3.822-3.054,8.666-4.871,13.95-4.871
	C180.489,44.916,183.421,45.511,186.18,46.684z M87.721,101.631c0.702,0,1.435,0.036,2.177,0.107
	c1.102,0.111,2.188-0.245,3.015-0.97c0.829-0.724,1.322-1.758,1.365-2.857c0.468-12.1,6.754-22.572,16.115-28.795l94.535,73.658
	c0.816,0.636,1.108,1.751,0.733,2.654c-0.01,0.022-0.057,0.132-0.065,0.154c-0.393,0.953-1.376,1.526-2.413,1.402L66.259,129.991
	c-0.551-1.954-0.838-3.99-0.838-6.059C65.42,111.635,75.424,101.631,87.721,101.631z M68.619,145.631
	c1.519-0.128,2.832-1.107,3.388-2.525c0.557-1.419,0.259-3.029-0.769-4.155c-0.092-0.1-0.169-0.21-0.259-0.312l131.218,16.286
	c0.426,0.053,0.849,0.078,1.27,0.078c4.122,0,7.924-2.484,9.498-6.305c0.008-0.019,0.054-0.125,0.061-0.144
	c1.777-4.275,0.47-9.248-3.18-12.091l-91.529-71.315c3.811-1.349,7.917-2.082,12.197-2.082c6.605,0,13.071,1.794,18.699,5.188
	c1.181,0.714,2.646,0.768,3.874,0.143c1.229-0.623,2.052-1.836,2.176-3.209c0.303-3.365,1.344-6.477,2.93-9.215l57.873,74.267
	c1.985,2.548,5.009,3.954,8.136,3.954c1.351,0,2.722-0.263,4.036-0.81c4.276-1.761,6.866-6.2,6.296-10.796L221.37,16.579
	C225.483,11.318,231.867,8,238.931,8c7.057,0,13.443,3.32,17.559,8.58L243.33,122.586c-0.571,4.596,2.019,9.037,6.23,10.771
	c0.019,0.008,0.125,0.053,0.144,0.061c1.278,0.531,2.618,0.787,3.945,0.787c3.113,0,6.155-1.408,8.149-3.968l58.495-75.073
	c1.864,2.924,3.076,6.325,3.409,10.023c0.123,1.373,0.945,2.586,2.175,3.209c1.229,0.624,2.692,0.57,3.874-0.142
	c5.628-3.395,12.095-5.188,18.7-5.188c3.992,0,7.828,0.647,11.419,1.828l-91.852,71.569c-3.652,2.845-4.959,7.819-3.198,12.046
	c0.006,0.014,0.047,0.115,0.053,0.129c1.602,3.878,5.405,6.366,9.528,6.366c0.419,0,0.842-0.025,1.265-0.078l132.441-16.435
	c-0.13,0.151-0.247,0.312-0.382,0.46c-1.026,1.126-1.324,2.737-0.768,4.155c0.556,1.419,1.869,2.397,3.388,2.525
	c20.553,1.734,36.736,18.939,37.403,39.45L275.66,163.727c-4.59-0.569-9.024,2.016-10.817,6.362
	c-1.083,2.601-1.017,5.456,0.016,7.935c-3.391-0.749-6.808-1.354-10.243-1.805l-1.465-19.02
	c-0.564-7.384-6.809-13.168-14.215-13.168c-7.41,0-13.657,5.784-14.222,13.165l-1.465,19.023c-3.432,0.451-6.847,1.056-10.235,1.804
	c1.024-2.485,1.08-5.354-0.018-7.995c-1.764-4.278-6.206-6.87-10.801-6.298L31.219,184.947
	C31.952,164.495,48.11,147.362,68.619,145.631z M209.342,254.653c12.135-2.555,24.546-3.519,36.894-2.893
	c-16.52,3.563-29.62,10.493-38.803,16.788L209.342,254.653z M205.909,279.631c11.032-8.859,32.728-22.258,62.984-22.278
	l3.133,22.792c-34.578,1.336-58.247,18.225-70.228,29.4L205.909,279.631z M193.264,371.631c5.408-6.718,34.417-39.527,85.672-41.2
	l5.423,39.454c-35.291,1.026-61.798,14.458-78.04,25.803c-7.756,5.418-13.908,10.817-18.462,15.288L193.264,371.631z
	 M195.16,357.834l4.776-34.752c4.895-5.989,29.802-33.613,73.185-34.961l4.718,34.327
	C236.344,324.065,208.529,344.908,195.16,357.834z M200.435,248.522c-1.241,0.323-2.515-0.393-2.896-1.634l-0.039-0.126
	c-0.195-0.634-0.124-1.304,0.199-1.884c0.329-0.592,0.873-1.013,1.531-1.186c12.987-3.406,26.345-5.11,39.703-5.11
	c13.357,0,26.715,1.704,39.702,5.11c0.659,0.173,1.203,0.595,1.532,1.186c0.323,0.581,0.394,1.249,0.192,1.902l-0.032,0.104
	c-0.383,1.245-1.657,1.964-2.897,1.636C252.244,241.904,225.62,241.903,200.435,248.522z M238.932,183.188
	c9.565,0,19.131,1.22,28.43,3.659c0.234,0.062,0.359,0.21,0.423,0.325c0.088,0.157,0.105,0.324,0.024,0.587
	c-0.1,0.324-0.445,0.522-0.755,0.437c-18.399-4.832-37.847-4.833-56.244,0.001c-0.313,0.079-0.654-0.113-0.75-0.426
	c-0.002-0.003-0.03-0.097-0.031-0.101c-0.053-0.173-0.035-0.341,0.053-0.499c0.063-0.114,0.188-0.263,0.421-0.324
	C219.802,184.407,229.368,183.188,238.932,183.188z M231.333,175.43l1.357-17.622c0.248-3.239,2.991-5.777,6.245-5.777
	c3.25,0,5.99,2.538,6.238,5.78l1.357,17.619C241.47,175.11,236.393,175.11,231.333,175.43z M244.749,192.744l2.263,38.058
	c-5.384-0.264-10.777-0.264-16.162,0l2.263-38.058C236.989,192.525,240.874,192.525,244.749,192.744z M217.039,194.937
	c2.655-0.579,5.327-1.053,8.014-1.418l-2.251,37.86c-3.898,0.383-7.782,0.917-11.648,1.578L217.039,194.937z M255.061,231.378
	l-2.251-37.86c2.687,0.365,5.36,0.839,8.014,1.418l5.886,38.02C262.844,232.295,258.959,231.761,255.061,231.378z M53.311,271.548
	c-0.282-1.313-1.204-2.396-2.455-2.886c-8.62-3.369-14.189-11.521-14.189-20.771c0-8.574,5.012-16.488,12.768-20.162
	c1.311-0.621,2.183-1.903,2.278-3.351s-0.599-2.833-1.816-3.622c-9.85-6.381-16.344-16.481-18.169-27.81l171.453-21.277
	c1.026-0.124,2.025,0.45,2.419,1.407c0.002,0.004,0.04,0.096,0.042,0.1c0.399,0.96,0.108,2.076-0.708,2.715L37.426,306.998
	c1.142-11.967,6.306-23.113,14.83-31.811C53.197,274.229,53.592,272.861,53.311,271.548z M37.426,317.157l164.611-128.842
	c0.057,0.569,0.17,1.136,0.341,1.695c0.002,0.004,0.03,0.098,0.031,0.102c0.947,3.075,3.442,5.223,6.37,5.877l-0.335,2.163
	L79.128,363.668C56.616,359.068,39.61,340.369,37.426,317.157z M176.598,430.611c-5.365,3.998-11.748,6.11-18.46,6.11
	c-17.055,0-30.93-13.875-30.93-30.93c0-0.593,0.023-1.23,0.073-2.01c0.09-1.416-0.576-2.773-1.752-3.568s-2.683-0.907-3.964-0.296
	c-3.008,1.436-6.235,2.164-9.593,2.164c-12.296,0-22.3-10.004-22.3-22.3c0-3.262,0.692-6.411,2.06-9.36
	c0.564-1.219,0.479-2.64-0.226-3.782c-0.671-1.086-1.817-1.776-3.081-1.879l117.51-150.402l-3.133,20.239
	c-1.874,0.421-3.743,0.869-5.604,1.357c-2.747,0.722-5.113,2.556-6.491,5.033c-1.394,2.503-1.697,5.389-0.856,8.124l0.039,0.127
	c1.378,4.477,5.462,7.365,9.92,7.365c0.396,0,0.797-0.03,1.197-0.077l-22.683,165.04c-0.07,0.094-0.122,0.163-0.142,0.191
	l0.105,0.077l-1.281,9.324L176.598,430.611z M180.924,461.415l5.028-36.583c6.898-8.348,40.96-45.649,99.502-46.979l4.991,36.314
	C235.276,416.435,198.403,444.388,180.924,461.415z M366.991,402.082c-3.358,0-6.586-0.729-9.594-2.164
	c-1.28-0.611-2.787-0.499-3.964,0.296c-1.176,0.795-1.842,2.152-1.752,3.568c0.05,0.779,0.073,1.417,0.073,2.01
	c0,17.055-13.875,30.93-30.93,30.93c-6.712,0-13.095-2.112-18.46-6.11l-1.337,1.795l-24.173-175.883
	c4.908,0.575,9.62-2.407,11.118-7.278l0.04-0.13c0.842-2.736,0.539-5.622-0.854-8.125c-1.379-2.479-3.746-4.313-6.493-5.035
	c0,0,0,0-0.001,0c-1.861-0.488-3.73-0.936-5.604-1.358l-3.115-20.122l117.254,150.632c-0.709,0.324-1.322,0.849-1.743,1.532
	c-0.705,1.144-0.79,2.564-0.225,3.782c1.366,2.949,2.06,6.099,2.06,9.36C389.291,392.078,379.287,402.082,366.991,402.082z
	 M398.433,363.947L269.428,198.219l-0.341-2.204c2.93-0.649,5.416-2.809,6.352-5.851c0.006-0.017,0.038-0.123,0.044-0.141
	c0.181-0.588,0.295-1.184,0.349-1.781l165.728,128.597C439.46,340.679,421.743,359.834,398.433,363.947z M428.107,268.662
	c-1.251,0.489-2.173,1.573-2.455,2.886c-0.281,1.313,0.114,2.681,1.055,3.64c8.445,8.617,13.589,19.638,14.794,31.479
	L272.939,175.87c-0.817-0.634-1.109-1.747-0.71-2.707c0.001-0.004,0.039-0.097,0.04-0.101c0.392-0.949,1.38-1.524,2.406-1.396
	l172.541,21.411c-1.854,11.276-8.336,21.323-18.15,27.679c-1.218,0.789-1.912,2.175-1.816,3.622s0.968,2.729,2.278,3.351
	c7.756,3.674,12.768,11.588,12.768,20.162C442.296,257.141,436.727,265.293,428.107,268.662z"/>
<g>
</g>
<g>
</g>
<g>
</g>
<g>
</g>
<g>
</g>
<g>
</g>
<g>
</g>
<g>
</g>
<g>
</g>
<g>
</g>
<g>
</g>
<g>
</g>
<g>
</g>
<g>
</g>
<g>
</g>
</svg>
