<?xml version="1.0" encoding="iso-8859-1"?>
<!-- Generator: Adobe Illustrator 18.0.0, SVG Export Plug-In . SVG Version: 6.00 Build 0)  -->
<!DOCTYPE svg PUBLIC "-//W3C//DTD SVG 1.1//EN" "http://www.w3.org/Graphics/SVG/1.1/DTD/svg11.dtd">
<svg version="1.1" id="Capa_1" xmlns="http://www.w3.org/2000/svg" xmlns:xlink="http://www.w3.org/1999/xlink" x="0px" y="0px"
	 viewBox="0 0 487.406 487.406" style="enable-background:new 0 0 487.406 487.406;" xml:space="preserve">
<path d="M459.009,322.009c1.598,2.446,3.161,5.804,3.161,9.606c0,2.209,1.791,4,4,4s4-1.791,4-4c0-8.455-4.867-15.017-7.535-17.981
	c0.032-0.23,0.066-0.46,0.089-0.694c0.607-6.097-2.285-12.022-7.226-15.645l-8.218-6.027c-2.251-5.791-6.847-10.22-12.786-12.26
	c-6.367-2.189-13.21-1.26-18.768,2.548l-14.049,9.629c-0.033,0.023-0.066,0.047-0.1,0.071c-3.506,2.564-7.386,4.511-11.534,5.787
	c-9.055,2.788-18.695,0.848-25.78-5.187c-14.784-12.591-34.93-17.638-53.893-13.506c-3.144,0.687-6.463-0.156-8.999-2.302
	c-3.929-3.325-4.679-9.055-2.228-13.581c7.72-14.258,9.888-30.837,6.103-46.734c-2.52-10.585-7.568-20.231-14.619-28.246
	c0.619-16.83,17.624-27.426,23.656-30.661c0.943-0.506,1.971-0.815,3.031-0.966c0.005-0.001,0.01-0.001,0.015-0.002
	c8.024-1.148,15.556,3.912,17.539,11.764l3.639,14.415c3.337,13.219,14.022,23.506,27.462,25.792
	c2.035,0.346,4.051,0.515,6.039,0.515c11.913,0,22.74-6.078,29.063-16.615l4.988-8.314c1.776-2.961,2.006-6.688,0.319-9.701
	c-0.884-1.577-2.175-2.815-3.687-3.642c0.623-4.324-0.49-8.687-3.202-12.247c-3.127-4.106-8.094-6.407-13.255-6.472
	c-5.63-0.071-10.876-3.383-13.263-8.815c-1.101-2.505-1.394-5.293-1.051-8.008l1.896-14.999l5.451-0.427
	c5.607,6.853,13.43,11.309,22.275,12.62c1.525,0.226,3.046,0.333,4.56,0.365c0.517,2.783,0.698,7.466-2.313,12.025
	c-1.152,1.745-0.81,4.178,0.849,5.449c0.733,0.562,1.589,0.83,2.435,0.83c1.293,0,2.562-0.625,3.332-1.782
	c4.262-6.394,4.331-12.939,3.668-17.242c5.141-1.076,10.018-3.303,14.323-6.604l2.469-1.892c1.589,0.34,3.119,0.477,4.596,0.473
	c0.458,4.44,0.385,12.069-4.692,15.718c-1.661,1.194-2.302,3.456-1.321,5.25c0.745,1.361,2.121,2.095,3.522,2.095
	c0.792,0,1.592-0.235,2.29-0.724c8.942-6.26,8.82-18,8.076-23.989c4.725-2.089,8.343-5.911,10.412-10.139
	c3.83-7.829,3.376-18.959-6.272-26.175c-12.644-9.457-26.323-14.784-31.812-16.694c-2.274-12.401-11.624-22.596-23.962-25.81
	l-75.373-19.628L289.131,0.909c-1.364-1.12-3.322-1.229-4.831-0.192c-1.055,0.725-1.643,1.961-1.711,3.239L280.845,37.1
	l-34.244-6.146c-0.997-0.179-2.05-0.043-2.911,0.49c-1.697,1.051-2.324,3.081-1.669,4.828c0.155,0.415,3.869,10.278,9.254,21.047
	c0.133,0.266,0.264,0.515,0.396,0.777l-10.301,6.035l-14.94-12.571c-1.444-4.899-5.062-8.782-9.92-10.569
	c-5.499-2.023-11.677-0.758-16.204,2.961l-9.911,8.142c-4.493-1.702-9.462-1.655-13.996,0.193
	c-5.339,2.177-9.339,6.576-10.975,12.07c-2.64,8.864-6.201,16.608-10.586,23.018c-5.409,7.905-25.706,20.098-57.153,34.333
	c-19.302,8.737-29.994,29.099-26.394,49.896L53.27,204.043c-2.921,5.257-3.386,11.629-0.895,17.103
	c2.824,6.205,8.682,10.301,15.402,10.863c4.513,0.377,7.613,0.618,9.763,0.774c-6.13,26.943-5.024,54.772,3.215,81.059
	c-17.221,4.316-38.763,13.655-51.806,33.865c-12.005,18.602-14.799,43.175-8.303,73.039c5.644,25.937,19,44.589,39.698,55.439
	c14.3,7.496,32.103,11.223,53.074,11.222c36.048-0.001,81.444-11.018,134.402-32.845c6.931-2.848,15.284-6.715,24.128-10.809
	c10.889-5.041,23.098-10.687,35.689-15.871c5.61,15.994,20.456,39.499,59.61,46.028c5.923,0.988,11.887,1.476,17.79,1.476
	c13.23,0,26.149-2.453,37.549-7.233c18.205-7.576,31.747-20.375,39.163-37.012c8.168-18.323,8.358-40.782,0.552-64.947
	c-2.642-8.185-6.428-15.828-11.263-22.773c0.979-1.284,1.83-2.672,2.492-4.173c1.913-4.337,2.334-9.031,1.268-13.519
	C456.412,324.725,457.829,323.465,459.009,322.009z M386.421,159.355c2.689,0,5.153,1.237,6.761,3.393
	c1.386,1.86,1.93,4.134,1.562,6.378l-18.192,1.161c-6.594,0.42-12.267-4.378-12.974-10.921l-0.887-8.197
	c-1.027-9.513-7.934-17.551-17.185-20c-3.334-0.883-5.85-3.273-6.9-6.558s-0.391-6.691,1.813-9.346l0.778-0.937
	c4.741,4.066,10.799,6.337,17.105,6.337c0.685,0,1.372-0.027,2.061-0.081l5.311-0.416l-1.731,13.688
	c-0.814,6.45,1.184,12.947,5.483,17.824C373.725,156.558,379.919,159.355,386.421,159.355z M371.65,93.137
	c0.416,0.061,0.833,0.091,1.25,0.091c1.937,0,3.846-0.65,5.381-1.859c1.865-1.468,3.06-3.666,3.276-6.028l0.035-0.377
	c0.636,0.134,1.273,0.256,1.912,0.355l-3.094,5.47c-3.122,5.519-9.376,8.29-15.563,6.892c-7.592-1.714-12.44-9.3-10.81-16.91
	l1.374-6.408c2.822,0.84,5.612,1.903,8.343,3.21l1.187,0.568l-0.65,5.361C363.719,88.214,366.952,92.447,371.65,93.137z
	 M372.232,84.464l0.324-2.677l0.877,0.42c0.12,0.057,0.243,0.102,0.364,0.158l-0.207,2.245c-0.022,0.242-0.152,0.391-0.257,0.474
	c-0.105,0.083-0.28,0.175-0.521,0.139C372.442,85.167,372.187,84.834,372.232,84.464z M442.689,91.791
	c0.993,0.743,1.807,1.543,2.495,2.374c-4.936,1.077-10.081,0.814-14.856-0.763l9.977-3.329
	C441.103,90.63,441.899,91.2,442.689,91.791z M431.485,84.582l-12.726,4.246c-1.47,0.49-2.523,1.785-2.706,3.322
	c-0.184,1.538,0.538,3.043,1.852,3.864l2.141,1.338c5.794,3.621,12.455,5.469,19.145,5.469c2.95,0,5.905-0.366,8.794-1.091
	c0.036,2.299-0.533,4.505-1.418,6.314c-2.165,4.427-7.375,8.861-14.928,6.786c-0.229-0.063-0.367-0.105-0.391-0.113
	c-1.258-0.419-2.644-0.188-3.698,0.62l-4.018,3.08c-5.975,4.581-13.367,6.499-20.815,5.393c-7.448-1.103-13.968-5.079-18.358-11.195
	l-6.396-8.908c3.854-1.929,7.156-4.994,9.411-8.981l5.201-9.193c7.518-0.773,14.745-3.913,20.542-9.252
	C416.557,77.492,423.632,80.213,431.485,84.582z M290.17,12.115l14.023,11.519c-6.249,1.293-11.266,3.954-14.977,6.607
	L290.17,12.115z M79.537,224.903c-2.092-0.142-5.5-0.4-11.094-0.867c-3.659-0.305-6.749-2.339-8.479-5.579
	c-1.729-3.239-1.697-6.935,0.085-10.143l18.938-34.088c0.464-0.836,0.613-1.812,0.421-2.749
	c-3.628-17.619,5.244-35.087,21.575-42.479c33.712-15.26,54.052-27.744,60.457-37.104c4.854-7.095,8.773-15.591,11.651-25.252
	c0.939-3.158,3.246-5.689,6.327-6.945c1.098-0.448,2.241-0.703,3.389-0.79c-2.454,3.422-4.064,8.089-2.561,13.728
	c0.478,1.789,2.095,2.97,3.862,2.97c0.342,0,0.688-0.044,1.033-0.136c2.135-0.569,3.404-2.761,2.835-4.896
	c-0.18-0.671-1.563-6.665,4.938-10.287c0.017-0.009,0.031-0.023,0.048-0.033c0.2-0.113,0.394-0.239,0.575-0.388l0.039-0.032
	c0.002-0.002,0.004-0.003,0.006-0.005l12.142-9.974c2.242-1.841,5.21-2.358,7.943-1.383c2.218,0.792,3.919,2.452,4.791,4.567
	c-2.648,3.757-7.214,11.125-6.545,16.468c0.253,2.024,1.976,3.504,3.964,3.504c0.165,0,0.333-0.01,0.501-0.031
	c2.192-0.274,3.747-2.273,3.473-4.465c-0.194-1.555,1.588-5.306,3.804-8.831l10.387,8.74l-16.698,9.783
	c-15.203,8.905-28.719,20.067-40.195,32.954l-0.005-0.007l-43.18,33.35C107.356,165.057,88.586,192.803,79.537,224.903z
	 M169.922,324.063c6.352,8.19,12.316,16.793,17.768,25.62c-1.288,0.74-2.574,1.468-3.876,2.191
	c-0.001,0.001-0.003,0.002-0.004,0.003s-0.003,0.001-0.005,0.002c-21.137,11.804-40.178,19.137-56.657,21.844
	c-0.38-0.387-0.765-0.775-1.17-1.166c-14.497-14.156-25.713-30.739-33.334-49.285c-1.04-2.538-2.037-5.175-2.96-7.828
	c-9.496-27.538-10.624-57.058-3.261-85.37c8.238-31.708,26.37-59.109,52.435-79.24l20.706-15.992
	c-10.363,16.889-17.754,35.664-21.591,55.549C128.892,237.463,140.537,286.184,169.922,324.063z M116.956,374.812
	c-17.316,0.732-30.093-4.824-34.906-15.508c-3.921-8.704-1.646-19.257,5.558-27.568C94.865,347.645,104.705,362.094,116.956,374.812
	z M368.565,466.018c-35.445-5.91-48.615-26.989-53.494-41.127c30.092-11.786,70.813-23.884,93.122-4.39
	c10.651,9.324,13.816,23.118,9.467,40.999C402.922,467.241,385.58,468.856,368.565,466.018z M454.444,427.883
	c-5.559,12.471-15.077,22.518-27.743,29.426c2.992-18.12-1.443-32.503-13.241-42.83c-26.484-23.141-72.496-8.601-104.805,4.347
	c-14.193,5.688-27.939,12.051-40.067,17.666c-8.762,4.057-17.038,7.888-23.812,10.671c-52.119,21.481-96.455,32.328-131.255,32.326
	c-19.626,0-36.224-3.452-49.463-10.392c-18.503-9.699-30.479-26.54-35.596-50.054c-6.026-27.709-3.602-50.251,7.208-67
	c11.81-18.3,31.812-26.726,47.679-30.606c0.282,0.757,0.57,1.502,0.861,2.249c-11.331,10.944-15.15,26.257-9.454,38.903
	c5.89,13.075,20.171,20.286,39.262,20.286c3.895,0,7.991-0.301,12.255-0.913c17.903-2.562,38.568-10.332,61.423-23.095
	c0,0,0.001,0,0.001,0c0.001-0.001,0.003-0.001,0.004-0.002c0.002-0.001,0.003-0.002,0.005-0.003c0,0,0,0,0.001,0
	c2.743-1.523,5.418-3.061,8.179-4.705c13.985-8.337,28.225-15.69,42.4-21.919c1.347,3.825,4.279,6.991,8.143,8.562
	c34.51,14.037,73.296,12.305,106.416-4.758c8.339-4.296,18.188-4.096,26.346,0.534l6.23,3.537
	c10.908,6.19,24.313,6.962,35.859,2.064c2.767-1.171,5.958-0.325,7.854,2.342c0.311,0.437,0.521,0.921,0.688,1.42l-11.285,7.654
	c-1.828,1.24-2.306,3.728-1.065,5.556c0.773,1.141,2.032,1.755,3.314,1.755c0.772,0,1.554-0.224,2.241-0.69l12.038-7.195
	c0.157-0.039,0.315-0.073,0.469-0.131l5.619-2.138c1.361-0.518,2.666-1.161,3.895-1.915c4.107,6.07,7.35,12.715,9.642,19.816
	C461.879,390.909,461.794,411.391,454.444,427.883z M454.696,312.679c-0.418,2.667-1.914,4.877-4.111,6.237
	c-2.082-1.603-5.401-3.559-9.171-3.515c-3.045,0.031-5.826,1.349-8.043,3.813c-1.478,1.642-1.344,4.171,0.298,5.649
	c1.643,1.477,4.171,1.346,5.649-0.297c0.915-1.017,1.637-1.156,2.164-1.164c0.014,0,0.028,0,0.043,0c1.687,0,3.797,1.467,4.96,2.506
	c1.211,3.21,1.166,6.687-0.173,9.877c-1.431,3.41-4.123,6.012-7.579,7.327l-1.258,0.479c-0.905-2.79-2.667-5.267-5.138-7.096
	c-4.139-3.063-9.439-3.691-14.183-1.681c-9.267,3.932-20.027,3.313-28.785-1.657l-6.23-3.537
	c-10.515-5.968-23.211-6.226-33.959-0.688c-31.039,15.99-67.394,17.616-99.738,4.459c-2.296-0.934-3.852-3.137-3.964-5.614
	l-0.255-5.592c-0.975-21.433-8.053-42.01-20.47-59.507c-15.24-21.475-19.367-49.211-11.04-74.193c0.698-2.096-0.435-4.361-2.53-5.06
	c-2.093-0.694-4.36,0.434-5.06,2.53c-9.13,27.393-4.604,57.805,12.106,81.353c11.526,16.242,18.097,35.344,19.001,55.241l0.064,1.4
	c-14.265,6.156-28.6,13.439-42.698,21.695c-5.628-9.125-11.789-18.02-18.354-26.483c-27.974-36.06-39.06-82.442-30.415-127.253
	c8.645-44.808,36.186-83.733,75.563-106.797l34.05-19.949c5.96,10.485,11.401,16.778,16.531,19.145
	c2.004,0.926,4.383,0.049,5.308-1.956c0.926-2.006,0.05-4.382-1.956-5.308c-6.198-2.861-14.378-17.378-20.451-30.722l15.547,11.146
	c3.715,2.663,5.647,7.133,5.044,11.664c-0.292,2.189,1.247,4.201,3.437,4.493c0.179,0.024,0.357,0.036,0.533,0.036
	c1.975,0,3.692-1.461,3.96-3.472c0.995-7.467-2.189-14.833-8.312-19.223l-12.597-9.031l21.399,3.841
	c0.001,0,0.002,0.001,0.002,0.001c1.872,0.339,2.634,1.215,3.043,1.844c1.734,2.66,1.069,7.637,0.703,9.158
	c-0.531,2.144,0.776,4.313,2.92,4.845c0.323,0.08,0.647,0.119,0.966,0.119c1.796,0,3.428-1.218,3.88-3.039
	c0.233-0.941,2.167-9.372-1.743-15.416c-0.917-1.417-2.087-2.586-3.468-3.487c3.702-3.533,11.828-9.552,23.691-8.918l75.812,19.743
	c9.37,2.44,16.457,10.211,18.131,19.647c-8.338,7.77-20.533,9.704-30.933,4.722l-9.68-4.635
	c-25.564-12.242-55.551-6.375-74.614,14.597c-1.076,1.184-1.343,2.895-0.679,4.35s2.123,2.365,3.731,2.339
	c0.195-0.004,19.122-0.367,28.348,5.399c0.659,0.412,1.393,0.608,2.116,0.608c1.334,0,2.638-0.667,3.396-1.88
	c1.171-1.874,0.602-4.341-1.271-5.512c-6.413-4.008-15.868-5.602-22.981-6.229c12.07-9.573,27.356-13.596,42.345-11.396
	l-1.385,6.459c-2.546,11.876,5.021,23.715,16.87,26.391c1.667,0.376,3.338,0.559,4.986,0.559c0.56,0,1.116-0.027,1.67-0.068
	l3.979,5.541l-13.982,1.095c-5.41,0.426-10.695-1.574-14.464-5.4c-0.419-0.426-1.561-1.75-1.77-1.924
	c-1.7-1.411-4.221-1.177-5.633,0.523l-3.608,4.347c-3.923,4.727-5.147,11.042-3.275,16.893s6.534,10.282,12.473,11.854
	c6.071,1.607,10.604,6.882,11.278,13.126l0.887,8.197c1.169,10.812,10.587,18.747,21.437,18.044l21.054-1.344
	c0.73-0.038,1.099,0.392,1.259,0.656c0.161,0.265,0.376,0.8,0.005,1.42l-5.167,8.612c-5.544,9.24-15.606,14.005-26.271,12.429
	c-10.66-1.574-18.921-9.042-21.559-19.49l-3.759-14.89c-2.986-11.832-14.357-19.452-26.426-17.726
	c-16.569,2.369-32.771-6.713-39.399-22.081l-9.437-21.875c-0.875-2.028-3.229-2.963-5.257-2.088
	c-2.029,0.875-2.964,3.229-2.089,5.257l9.437,21.875c5.935,13.759,18.191,23.359,32.279,26.316c-1.2,0.895-2.432,1.868-3.667,2.936
	c-7.667,6.63-12.59,14.219-14.531,22.275c-1.878-1.579-3.841-3.073-5.907-4.45l-16.698-11.132c-1.836-1.225-4.321-0.728-5.547,1.109
	c-1.226,1.838-0.729,4.321,1.109,5.547l16.698,11.132c12.251,8.167,20.871,20.535,24.274,34.826
	c3.357,14.102,1.391,28.806-5.536,41.403c-4.428,8.051-2.231,18.297,5.108,23.832c4.331,3.267,9.811,4.487,15.04,3.346
	c16.535-3.606,34.106,0.798,47,11.781c9.178,7.817,21.633,10.335,33.32,6.742c4.981-1.532,9.642-3.867,13.854-6.94l13.999-9.594
	c3.448-2.362,7.692-2.939,11.646-1.581c2.592,0.89,4.759,2.524,6.31,4.66c-4.005,0.176-8.505,1.409-12.792,4.837
	c-1.725,1.38-2.005,3.897-0.625,5.622c0.791,0.988,1.953,1.501,3.127,1.501c0.876,0,1.758-0.287,2.496-0.876
	c6.93-5.545,15.023-2.109,16.475-1.418l4.228,3.101C453.891,306.036,455.229,309.28,454.696,312.679z"/>
<g>
</g>
<g>
</g>
<g>
</g>
<g>
</g>
<g>
</g>
<g>
</g>
<g>
</g>
<g>
</g>
<g>
</g>
<g>
</g>
<g>
</g>
<g>
</g>
<g>
</g>
<g>
</g>
<g>
</g>
</svg>
