<?xml version="1.0" encoding="iso-8859-1"?>
<!-- Generator: Adobe Illustrator 18.0.0, SVG Export Plug-In . SVG Version: 6.00 Build 0)  -->
<!DOCTYPE svg PUBLIC "-//W3C//DTD SVG 1.1//EN" "http://www.w3.org/Graphics/SVG/1.1/DTD/svg11.dtd">
<svg version="1.1" id="Capa_1" xmlns="http://www.w3.org/2000/svg" xmlns:xlink="http://www.w3.org/1999/xlink" x="0px" y="0px"
	 viewBox="0 0 478.209 478.209" style="enable-background:new 0 0 478.209 478.209;" xml:space="preserve">
<g>
	<path d="M426.455,414.604c-8.453-33.728-20.518-66.447-35.858-97.25c-18.829-37.806-42.753-73.247-71.109-105.338
		c-48.428-54.809-92.961-80.877-94.833-81.96c-3.393-1.961-7.145-2.753-10.788-2.505L184.118,97.26
		c5.943-28.556,4.84-58.414-3.254-86.506c-1.399-4.847-5.122-8.623-9.958-10.1c-3.796-1.159-7.815-0.769-11.318,1.096L158.95,2.09
		c-7.233,3.849-9.989,12.871-6.143,20.115l11.249,21.139c5.109,9.6,6.175,20.612,3.001,31.007l-1.29,4.223l-1.078-1.098
		c-2.183-2.222-5.1-3.461-8.214-3.489c-3.106-0.056-6.054,1.159-8.275,3.342c-4.584,4.504-4.65,11.899-0.147,16.485l9.964,10.146
		L50.675,455.49c-0.645,2.113,0.544,4.349,2.658,4.994l57.478,17.551c0.382,0.117,0.775,0.174,1.168,0.174
		c0.649,0,1.295-0.158,1.879-0.469c0.937-0.499,1.637-1.349,1.947-2.363l10.631-34.814c0.444-1.456,0.024-3.038-1.084-4.081
		l-12.542-11.804l15.062,0.793c1.831,0.094,3.5-1.069,4.036-2.827l52.384-171.551c3.162-10.355,2.103-21.323-2.984-30.881
		c-4.5-8.457-11.675-14.915-20.441-18.481l17.216-77.337l18.361,18.698c-0.984,5.426,0.393,11.162,4.019,15.552
		c0.604,0.732,1.535,1.605,3.127,3.086c1.622,1.509,3.642,3.387,4.95,4.909c8.735,10.166,39.582,47.184,69.767,96.729
		c36.972,60.686,59.263,116.96,66.253,167.26c2.526,18.175,17.048,32.729,35.316,35.393v0c2.025,0.295,4.049,0.44,6.062,0.44
		c11.726,0,22.992-4.931,30.994-13.783C426.279,442.34,429.839,428.106,426.455,414.604z M171.119,39.586L159.872,18.45
		c-1.778-3.349-0.505-7.52,2.836-9.298l0.638-0.34c1.618-0.861,3.473-1.042,5.224-0.507c2.239,0.684,3.961,2.428,4.607,4.665
		c7.234,25.107,8.622,51.691,4.127,77.351l-5.155-5.249l2.56-8.385C178.507,64.249,177.232,51.072,171.119,39.586z M153.806,83.036
		c0.697-0.685,1.622-1.051,2.598-1.049c0.977,0.009,1.893,0.397,2.578,1.095l46.32,47.165c-2.07,1.245-3.919,2.901-5.423,4.925
		L153.76,88.21C152.347,86.771,152.368,84.449,153.806,83.036z M174.244,223.97c4.083,7.672,4.933,16.474,2.395,24.786
		l-51.471,168.561l-22.839-1.202c-1.685-0.084-3.229,0.879-3.889,2.423c-0.66,1.543-0.285,3.334,0.937,4.484l18.68,17.581
		l-8.736,28.612l-38.559-11.774l56.356-184.559c6.218-20.362,16.019-39.191,29.132-55.963c0.302-0.387,0.531-0.826,0.674-1.296
		l1.855-6.075C165.384,212.48,170.796,217.49,174.244,223.97z M149.488,212.581c-13.49,17.401-23.589,36.898-30.022,57.966
		L63.111,455.105l-3.616-1.104l104.902-343.542l7.004,7.132L149.488,212.581z M410.997,447.315
		c-7.583,8.388-18.784,12.422-29.967,10.791c-14.769-2.154-26.508-13.906-28.547-28.579c-7.142-51.39-29.8-108.694-67.345-170.321
		c-30.5-50.063-61.697-87.5-70.532-97.781c-1.6-1.862-3.801-3.909-5.569-5.554c-0.939-0.874-2.108-1.96-2.407-2.323
		c-2.919-3.533-3.338-8.574-1.042-12.543c2.041-3.528,5.751-5.502,9.562-5.502c1.871,0,3.766,0.476,5.499,1.478
		c1.826,1.056,45.269,26.488,92.844,80.332c27.894,31.568,51.426,66.427,69.943,103.608c15.083,30.286,26.947,62.46,35.26,95.628
		C421.47,427.62,418.664,438.834,410.997,447.315z"/>
	<path d="M387.709,412.974c-7.078-2.161-14.601,1.84-16.764,8.921c-2.162,7.081,1.84,14.601,8.921,16.764
		c1.296,0.396,2.621,0.592,3.938,0.592c2.17,0,4.321-0.532,6.292-1.581c3.166-1.685,5.487-4.502,6.534-7.933
		c1.047-3.43,0.696-7.063-0.989-10.229C393.957,416.342,391.14,414.022,387.709,412.974z M388.979,427.402
		c-0.423,1.387-1.361,2.525-2.641,3.207c-1.28,0.682-2.749,0.824-4.135,0.399c-2.863-0.874-4.48-3.914-3.606-6.776
		c0.713-2.336,2.87-3.844,5.194-3.844c0.523,0,1.056,0.077,1.582,0.237c1.387,0.423,2.525,1.361,3.207,2.641
		C389.261,424.547,389.403,426.015,388.979,427.402z"/>
</g>
<g>
</g>
<g>
</g>
<g>
</g>
<g>
</g>
<g>
</g>
<g>
</g>
<g>
</g>
<g>
</g>
<g>
</g>
<g>
</g>
<g>
</g>
<g>
</g>
<g>
</g>
<g>
</g>
<g>
</g>
</svg>
