<?xml version="1.0" encoding="iso-8859-1"?>
<!-- Generator: Adobe Illustrator 18.0.0, SVG Export Plug-In . SVG Version: 6.00 Build 0)  -->
<!DOCTYPE svg PUBLIC "-//W3C//DTD SVG 1.1//EN" "http://www.w3.org/Graphics/SVG/1.1/DTD/svg11.dtd">
<svg version="1.1" id="Capa_1" xmlns="http://www.w3.org/2000/svg" xmlns:xlink="http://www.w3.org/1999/xlink" x="0px" y="0px"
	 viewBox="0 0 486.976 486.976" style="enable-background:new 0 0 486.976 486.976;" xml:space="preserve">
<g>
	<path d="M484.435,311.216l-9.444-9.42c-1.892-1.888-4.441-2.93-7.179-2.934c-6.338-0.009-12.563-2.389-17.549-6.717l-0.2-0.171
		c-2.044-1.739-4.355-3.16-6.829-4.211c0.065-0.121,0.124-0.243,0.19-0.363c4.121-7.5,2.678-17.049-3.51-23.221l-69.634-69.458
		c-1.93-1.924-4.491-2.983-7.215-2.983c-0.005,0-0.011,0-0.016,0c-1.332,0.002-2.624,0.257-3.822,0.742L345.207,178.5
		c-0.765-0.761-1.803-1.209-2.88-1.167c-1.077,0.015-2.104,0.464-2.846,1.246l-6.343,6.357l-65.827-65.656l73.49-73.297
		c1.563-1.56,1.567-4.092,0.007-5.657l-18.11-18.16c-1.56-1.564-4.093-1.567-5.656-0.008l-7.422,7.402l-9.542-9.542
		c-0.983-0.983-2.41-1.383-3.76-1.062c-1.353,0.324-2.439,1.327-2.871,2.649L281.8,57.309l-38.311,38.21l-38.315-38.215
		l-11.646-35.697c-0.431-1.322-1.519-2.326-2.871-2.649c-1.354-0.322-2.776,0.078-3.76,1.062l-9.54,9.54l-7.424-7.405
		c-1.564-1.56-4.097-1.557-5.657,0.007l-18.112,18.159c-0.749,0.751-1.169,1.769-1.168,2.83c0.001,1.061,0.424,2.078,1.175,2.827
		l73.493,73.302l-65.835,65.669l-5.696-5.696l-0.639-0.673c-0.742-0.782-1.769-1.231-2.846-1.246
		c-1.09-0.039-2.116,0.405-2.879,1.167l-14.02,13.982c-1.199-0.485-2.491-0.74-3.823-0.742c-0.005,0-0.01,0-0.016,0
		c-2.724,0-5.286,1.059-7.215,2.983L47.062,264.18c-6.188,6.172-7.631,15.721-3.51,23.221c0.066,0.12,0.126,0.243,0.19,0.364
		c-2.475,1.052-4.788,2.474-6.839,4.219l-0.208,0.179c-4.967,4.312-11.193,6.691-17.53,6.7c-2.737,0.004-5.286,1.046-7.178,2.933
		l-9.445,9.42c-1.636,1.631-2.539,3.805-2.542,6.12c-0.003,2.195,0.814,4.288,2.3,5.893c1.572,1.698,3.741,2.659,6.106,2.707
		c2.429,0.03,4.81-0.904,6.524-2.614l1.412-1.409c2.348-2.341,5.87-3.1,8.975-1.93l0.371,0.139c1.851,0.696,3.386,2.158,4.324,4.115
		c1.368,2.857,3.213,5.418,5.485,7.636l-5.079,5.066c-3.754,3.746-5.504,9.108-4.681,14.344
		c2.956,18.79,13.689,66.907,49.418,107.79c5.111,5.844,12.311,9.054,19.764,9.054c2.143,0,4.307-0.266,6.448-0.811
		c12-3.044,23.488-10.039,34.146-20.792c9.466-9.565,10.045-25.127,1.319-35.43c-6.411-7.566-14.316-17.879-22.862-29.824
		c-1.235-1.726-2.074-3.743-2.427-5.833c-0.189-1.119-0.239-2.246-0.158-3.356l3.442,1.859c6.332,3.411,13.15,5.083,19.904,5.083
		c10.025,0,19.906-3.685,27.835-10.836c13.268-11.967,17.439-30.373,10.627-46.889l-4.631-11.232l42.843-42.843
		c1.321-1.321,1.551-3.381,0.555-4.961l-0.82-1.301c-0.158-0.25-13.973-14.14-13.973-14.14c-1.542-1.672-2.394-3.823-2.393-6.11
		c0.002-2.417,0.947-4.69,2.662-6.4c1.564-1.56,1.567-4.093,0.008-5.657l-0.932-0.935l38.864-38.764
		c0.751-0.749,1.174-1.766,1.175-2.827c0.001-1.061-0.419-2.079-1.168-2.83l-7.898-7.918c-1.56-1.564-4.093-1.567-5.657-0.007
		l-25.83,25.763l-5.371-5.371l52.862-52.721l52.86,52.722l-5.373,5.373l-25.833-25.766c-0.75-0.748-1.767-1.168-2.825-1.168
		c-0.002,0-0.004,0-0.005,0c-1.062,0.001-2.078,0.424-2.827,1.175l-7.897,7.918c-1.561,1.564-1.557,4.097,0.007,5.657l38.865,38.764
		l-0.932,0.935c-0.749,0.751-1.17,1.769-1.168,2.83c0.002,1.061,0.425,2.078,1.176,2.827c1.715,1.71,2.66,3.983,2.661,6.4
		c0.002,2.284-0.849,4.433-2.397,6.115c0,0-13.81,13.883-13.968,14.134l-0.82,1.301c-0.996,1.581-0.766,3.641,0.556,4.962
		l42.842,42.842l-4.631,11.232c-6.812,16.517-2.64,34.922,10.629,46.89c7.928,7.151,17.808,10.835,27.833,10.835
		c6.754,0,13.575-1.673,19.908-5.085l3.439-1.857c0.081,1.11,0.031,2.237-0.158,3.357c-0.353,2.089-1.192,4.106-2.427,5.832
		c-8.548,11.947-16.453,22.26-22.861,29.825c-8.727,10.301-8.147,25.864,1.32,35.432c10.656,10.75,22.145,17.745,34.142,20.789
		c2.143,0.545,4.308,0.811,6.451,0.811c7.454,0,14.654-3.21,19.764-9.055c35.727-40.879,46.461-88.998,49.418-107.789
		c0.823-5.236-0.926-10.598-4.681-14.344l-5.079-5.066c2.273-2.22,4.117-4.78,5.485-7.636c0.938-1.957,2.473-3.418,4.321-4.114
		l0.376-0.141c3.105-1.17,6.625-0.41,8.972,1.931l1.412,1.409c1.714,1.709,4.092,2.644,6.524,2.614
		c2.366-0.047,4.534-1.008,6.104-2.705c1.488-1.605,2.306-3.699,2.302-5.892C486.974,315.022,486.071,312.848,484.435,311.216z
		 M395.512,303.644c-6.749,6.767-15.725,10.5-25.275,10.513c-2.604-0.006-5.16-0.291-7.642-0.826l42.506-42.616
		C407.608,282.21,404.421,294.712,395.512,303.644z M354.224,310.394c-3.39-1.692-6.527-3.927-9.292-6.685l-37.64-37.542
		l3.565-3.574l28.182,28.109c2.535,2.529,5.86,3.792,9.187,3.792c3.337,0,6.674-1.272,9.211-3.815
		c2.459-2.465,3.808-5.737,3.796-9.196c0.003-3.475-1.354-6.743-3.819-9.203l-28.182-28.109l8.391-8.413l28.182,28.109
		c2.457,2.45,5.719,3.799,9.187,3.799c0.006,0,0.012,0,0.018,0c3.475-0.004,6.74-1.362,9.194-3.823
		c2.458-2.465,3.807-5.736,3.796-9.197c0.002-3.475-1.355-6.742-3.82-9.201l-28.182-28.108l1.81-1.815l37.64,37.542
		c2.796,2.789,5.023,5.932,6.702,9.283L354.224,310.394z M323.581,249.836l28.181,28.108c0.949,0.946,1.471,2.201,1.47,3.549
		c0.005,1.332-0.514,2.587-1.46,3.536c-0.945,0.948-2.202,1.471-3.54,1.472c-0.002,0-0.005,0-0.007,0
		c-1.335,0-2.591-0.519-3.536-1.463l-28.183-28.109L323.581,249.836z M350.346,223l28.182,28.109
		c0.948,0.946,1.471,2.201,1.47,3.547c0.004,1.333-0.515,2.589-1.46,3.538c-0.945,0.948-2.203,1.471-3.541,1.472
		c-0.002,0-0.004,0-0.007,0c-1.335,0-2.591-0.519-3.536-1.463l-28.182-28.109L350.346,223z M301.628,260.518l-7.095-7.076
		l50.515-50.643l7.093,7.074L301.628,260.518z M315.023,203.092l-7.351-7.332l12.479-12.479l7.334,7.315L315.023,203.092z
		 M299.031,30.286l4.925,4.925l-9.682,9.657L299.031,30.286z M319.858,30.648l12.462,12.496l-70.673,70.487l-12.494-12.462
		L319.858,30.648z M187.945,30.286l4.756,14.577l-9.679-9.654L187.945,30.286z M159.491,190.603l7.34-7.321l12.478,12.478
		l-7.355,7.336l-9.243-9.266l0,0l-0.405-0.405L159.491,190.603z M192.443,253.441l-7.095,7.076l-50.514-50.645l7.093-7.075
		L192.443,253.441z M81.875,270.713l42.516,42.627c-2.472,0.533-5.016,0.816-7.604,0.816c-0.016,0-0.032,0-0.047,0
		c-9.55-0.012-18.527-3.746-25.276-10.513C82.555,294.711,79.368,282.209,81.875,270.713z M132.756,310.399l-47.927-48.052
		c1.678-3.351,3.905-6.494,6.701-9.282l37.64-37.542l1.81,1.815l-28.182,28.109c-2.465,2.459-3.822,5.727-3.819,9.186
		c-0.012,3.475,1.336,6.746,3.795,9.212c2.537,2.544,5.874,3.816,9.211,3.816c3.326,0,6.652-1.264,9.187-3.792l28.182-28.109
		l8.391,8.413l-28.182,28.109c-2.465,2.458-3.821,5.726-3.82,9.187c-0.011,3.475,1.337,6.746,3.796,9.211
		c2.537,2.544,5.874,3.816,9.211,3.816c3.326,0,6.652-1.264,9.187-3.792l28.182-28.109l3.565,3.574l-37.64,37.542
		C139.281,306.464,136.145,308.703,132.756,310.399z M143.704,230.094l-28.182,28.109c-1.955,1.95-5.134,1.947-7.084-0.009
		c-0.946-0.948-1.464-2.204-1.46-3.552c-0.001-1.333,0.521-2.587,1.469-3.533L136.629,223L143.704,230.094z M170.47,256.929
		l-28.182,28.109c-1.955,1.95-5.134,1.947-7.084-0.009c-0.946-0.948-1.465-2.205-1.46-3.551c0-1.333,0.521-2.588,1.469-3.534
		l28.182-28.108L170.47,256.929z M28.504,312.633l-0.371-0.139c-6.032-2.271-12.877-0.796-17.441,3.754l-1.412,1.409
		c-0.181,0.18-0.451,0.27-0.715,0.279c-0.122-0.002-0.29-0.029-0.396-0.143C8.057,317.671,8,317.521,8,317.346
		c0-0.183,0.064-0.339,0.191-0.466l9.445-9.42c0.385-0.384,0.932-0.596,1.541-0.597c8.26-0.012,16.344-3.087,22.744-8.643
		l0.179-0.153c1.399-1.19,2.936-2.145,4.59-2.865c2.833,10.497,0.73,21.908-5.801,30.729c-1.505-1.516-2.743-3.235-3.66-5.15
		C35.394,316.954,32.297,314.061,28.504,312.633z M165.799,324.349c6.682,16.203-0.056,30.201-8.59,37.899
		c-8.536,7.699-23.156,12.963-38.584,4.652l-4.361-2.355c0.368-0.479,0.762-0.94,1.195-1.372l16.286-16.286
		c1.339,4.62,4.269,8.537,8.389,11.111c3.148,1.966,6.696,2.977,10.31,2.977c1.55,0,3.112-0.186,4.659-0.562
		c2.146-0.522,3.464-2.685,2.942-4.832c-0.522-2.147-2.688-3.465-4.832-2.942c-3.045,0.739-6.184,0.233-8.841-1.426
		c-2.658-1.66-4.49-4.26-5.16-7.32l-0.803-3.669l24.029-24.029L165.799,324.349z M109.802,357.516
		c-5.036,5.036-7.333,12.235-6.146,19.256c0.554,3.28,1.871,6.445,3.809,9.154c8.794,12.292,16.622,22.5,23.264,30.34
		c6.071,7.167,5.675,17.987-0.899,24.629c-9.619,9.705-19.857,15.985-30.432,18.667c-6.653,1.692-13.635-0.513-18.219-5.756
		c-34.355-39.311-44.69-85.663-47.538-103.767c-0.427-2.714,0.48-5.494,2.428-7.437l7.022-7.005
		c13.72-13.683,16.793-35.087,7.473-52.051c-2.416-4.397-1.533-10.033,2.148-13.704l69.633-69.457
		c0.419-0.417,0.975-0.647,1.566-0.647c0.001,0,0.002,0,0.003,0c0.592,0.001,1.149,0.232,1.567,0.652
		c0.749,0.752,1.767,1.175,2.828,1.176c0.002,0,0.003,0,0.005,0c1.06,0,2.076-0.42,2.826-1.169l4.204-4.196l0.931,0.933L85.88,247.4
		c-17.086,17.042-17.122,44.807-0.081,61.893c8.258,8.28,19.243,12.848,30.93,12.863c0.02,0,0.039,0,0.059,0
		c11.665,0,22.639-4.539,30.905-12.783l50.416-50.285l5.055,5.065L109.802,357.516z M141.009,190.553l3.561-3.55l12.482,12.483
		l0.003-0.003l7.061,7.081l-0.003,0.003l25.174,25.237c-0.962,1.561-1.653,3.265-2.065,5.052L141.009,190.553z M189.84,218.582
		l6.154-6.138l2.252,2.251l-6.157,6.141L189.84,218.582z M224.648,183.864l2.249,2.254l-22.987,22.928l-2.251-2.251L224.648,183.864
		z M190.337,206.788l-7.371,7.352l-5.365-5.379l7.364-7.344L190.337,206.788z M184.973,190.11l-12.478-12.478l52.834-52.702
		l12.499,12.466L184.973,190.11z M154.653,43.139l12.463-12.495l147.372,146.989l-12.479,12.479L154.653,43.139z M262.328,183.864
		l22.993,22.934l-2.251,2.251l-22.99-22.931L262.328,183.864z M290.985,212.448l6.15,6.134l-2.248,2.254l-6.153-6.138
		L290.985,212.448z M296.643,206.791l5.373-5.373l7.361,7.341l-5.366,5.38L296.643,206.791z M297.688,231.804l25.174-25.238
		l-0.002-0.003l7.061-7.08l0.002,0.002l12.482-12.482l3.562,3.55l-46.213,46.304C299.341,235.07,298.65,233.365,297.688,231.804z
		 M368.353,366.898c-15.431,8.314-30.048,3.049-38.586-4.65c-8.534-7.698-15.272-21.696-8.59-37.899l3.362-8.154l24.029,24.029
		l-0.803,3.668c-0.671,3.061-2.503,5.661-5.161,7.321c-2.657,1.66-5.799,2.167-8.84,1.426c-2.153-0.521-4.311,0.796-4.832,2.942
		c-0.521,2.146,0.795,4.31,2.941,4.832c1.548,0.376,3.109,0.562,4.659,0.562c3.613,0,7.162-1.01,10.31-2.977
		c4.121-2.574,7.05-6.491,8.389-11.111l16.286,16.286c0.432,0.432,0.827,0.893,1.195,1.372L368.353,366.898z M453.336,350.04
		c-2.85,18.104-13.185,64.458-47.539,103.767c-4.583,5.243-11.563,7.447-18.222,5.756c-10.572-2.682-20.811-8.963-30.427-18.665
		c-6.576-6.646-6.972-17.465-0.901-24.632c6.641-7.838,14.468-18.046,23.264-30.34c1.938-2.708,3.255-5.873,3.81-9.153
		c1.188-7.022-1.111-14.221-6.147-19.257l-93.36-93.361l5.055-5.065l50.416,50.284c8.267,8.245,19.239,12.783,30.905,12.783
		c0.019,0,0.039,0,0.058,0c11.688-0.015,22.672-4.583,30.93-12.863c17.042-17.086,17.006-44.851-0.08-61.893L350.7,197.135
		l0.931-0.933l4.205,4.196c0.75,0.748,1.766,1.168,2.825,1.168c0.002,0,0.004,0,0.005,0c1.062-0.001,2.079-0.424,2.828-1.176
		c0.418-0.419,0.975-0.651,1.567-0.652c0.001,0,0.002,0,0.003,0c0.592,0,1.148,0.23,1.566,0.647l69.633,69.457
		c3.682,3.671,4.564,9.307,2.148,13.704c-9.32,16.964-6.247,38.368,7.473,52.05l7.022,7.005
		C452.854,344.546,453.763,347.326,453.336,350.04z M478.805,317.794c-0.104,0.113-0.272,0.14-0.395,0.143
		c-0.266,0.004-0.534-0.099-0.715-0.279l-1.413-1.409c-4.563-4.552-11.411-6.025-17.437-3.755l-0.376,0.141
		c-3.792,1.427-6.889,4.321-8.721,8.146c-0.917,1.914-2.155,3.632-3.661,5.15c-6.531-8.821-8.634-20.232-5.801-30.73
		c1.653,0.72,3.187,1.672,4.579,2.857l0.171,0.146c6.419,5.572,14.503,8.647,22.763,8.659c0.608,0.001,1.155,0.213,1.54,0.597
		l9.445,9.421c0.126,0.125,0.19,0.281,0.19,0.467C478.976,317.522,478.919,317.671,478.805,317.794z"/>
	<path d="M407.599,340.94c0.006,0,0.011,0,0.017,0c3.226-0.004,6.257-1.264,8.535-3.548c4.703-4.715,4.692-12.377-0.022-17.081
		c-2.28-2.274-5.309-3.526-8.528-3.526c-0.006,0-0.011,0-0.017,0c-3.226,0.004-6.257,1.264-8.534,3.548
		c-2.278,2.284-3.53,5.318-3.526,8.544c0.004,3.226,1.265,6.257,3.548,8.535C401.351,339.688,404.379,340.94,407.599,340.94z
		 M404.714,325.983c0.769-0.771,1.791-1.196,2.88-1.198c0.002,0,0.004,0,0.006,0c1.087,0,2.109,0.423,2.879,1.19
		c1.592,1.588,1.596,4.175,0.008,5.767c-0.77,0.771-1.793,1.196-2.882,1.198c-0.002,0-0.003,0-0.005,0
		c-1.087,0-2.109-0.423-2.879-1.19c-0.771-0.769-1.197-1.792-1.198-2.882C403.521,327.779,403.943,326.754,404.714,325.983z"/>
	<path d="M425.321,353.812l-0.51-0.195c-11.864-4.505-25.431,0.951-30.879,12.419c-5.084,10.704-14.323,27.051-29.469,44.147
		c-6.354,7.171-6.022,18.128,0.753,24.943c0,0,0,0,0.001,0c6.958,6.998,14.17,12.047,21.437,15.007
		c2.199,0.896,4.493,1.329,6.766,1.329c5.249,0,10.378-2.313,13.939-6.57c6.015-7.191,26.178-32.947,33.086-62.458
		C443.241,370.491,436.737,358.186,425.321,353.812z M432.656,380.611c-6.506,27.793-25.704,52.299-31.434,59.148
		c-2.861,3.421-7.501,4.615-11.551,2.965c-6.178-2.516-12.672-7.094-18.782-13.238h0.001c-3.808-3.829-4-9.978-0.438-13.998
		c15.767-17.798,25.401-34.849,30.707-46.02c3.672-7.732,12.815-11.411,20.802-8.376l0.494,0.188
		C430.159,364.232,434.545,372.543,432.656,380.611z"/>
	<path d="M79.361,340.94c0.006,0,0.011,0,0.016,0c3.22,0,6.249-1.252,8.528-3.526c4.715-4.703,4.725-12.365,0.022-17.08
		c-4.702-4.715-12.364-4.726-17.08-0.022c-4.715,4.703-4.725,12.365-0.022,17.08C73.104,339.676,76.135,340.936,79.361,340.94z
		 M76.497,325.976c1.591-1.588,4.178-1.585,5.767,0.007c1.587,1.592,1.584,4.178-0.008,5.766c-0.77,0.768-1.792,1.19-2.879,1.19
		c-0.002,0-0.004,0-0.005,0c-1.089-0.001-2.113-0.427-2.882-1.198C74.902,330.15,74.905,327.564,76.497,325.976z"/>
	<path d="M62.16,353.619l-0.501,0.191c-11.42,4.376-17.924,16.682-15.128,28.624c6.908,29.511,27.071,55.267,33.086,62.458
		c3.562,4.258,8.69,6.57,13.939,6.57c2.272,0,4.566-0.433,6.766-1.329c7.266-2.959,14.478-8.009,21.437-15.007
		c6.777-6.815,7.108-17.771,0.754-24.943c-15.146-17.096-24.385-33.444-29.469-44.147C87.595,354.568,74.033,349.114,62.16,353.619z
		 M116.085,429.486c-6.11,6.145-12.604,10.722-18.782,13.238c-4.045,1.65-8.688,0.457-11.55-2.965
		c-5.729-6.849-24.927-31.355-31.434-59.148c-1.889-8.068,2.497-16.378,10.203-19.331l0.481-0.184
		c1.898-0.721,3.86-1.063,5.799-1.063c6.23,0,12.214,3.539,15.014,9.435c5.306,11.17,14.94,28.222,30.708,46.02
		C120.085,419.508,119.893,425.657,116.085,429.486z"/>
	<path d="M107.538,116.779l-2.75,16.03c-0.257,1.5,0.359,3.018,1.591,3.912c1.231,0.895,2.865,1.013,4.212,0.305l14.396-7.568
		l14.396,7.568c0.585,0.308,1.224,0.459,1.861,0.459c0.83,0,1.655-0.258,2.352-0.764c1.232-0.895,1.849-2.412,1.591-3.913
		l-2.749-16.03l11.646-11.353c1.09-1.063,1.483-2.652,1.012-4.1c-0.471-1.448-1.722-2.503-3.229-2.723l-16.095-2.339l-7.198-14.585
		c-0.674-1.365-2.064-2.229-3.587-2.229s-2.913,0.864-3.587,2.23l-7.198,14.584l-16.095,2.339c-1.507,0.219-2.758,1.274-3.229,2.723
		c-0.471,1.448-0.078,3.038,1.012,4.1L107.538,116.779z M117.435,103.879c1.303-0.189,2.429-1.008,3.012-2.188l4.542-9.203
		l4.542,9.203c0.583,1.18,1.709,1.999,3.012,2.188l10.156,1.476l-7.349,7.163c-0.943,0.919-1.373,2.243-1.15,3.541l1.734,10.115
		l-9.084-4.775c-0.583-0.306-1.222-0.459-1.861-0.459s-1.279,0.153-1.861,0.459l-9.083,4.775l1.735-10.115
		c0.223-1.298-0.208-2.622-1.15-3.541l-7.349-7.163L117.435,103.879z"/>
	<path d="M331.878,101.326c-0.47,1.448-0.077,3.038,1.013,4.1l11.647,11.353l-2.75,16.03c-0.258,1.5,0.359,3.017,1.591,3.912
		c1.232,0.896,2.866,1.012,4.213,0.305l14.396-7.568l14.396,7.568c0.585,0.308,1.225,0.459,1.861,0.459
		c0.829,0,1.654-0.258,2.352-0.764c1.231-0.895,1.849-2.412,1.591-3.913l-2.749-16.03l11.646-11.353
		c1.091-1.063,1.482-2.652,1.013-4.1c-0.471-1.448-1.723-2.504-3.229-2.723l-16.096-2.339l-7.197-14.584
		c-0.674-1.366-2.064-2.23-3.587-2.23s-2.913,0.864-3.587,2.229l-7.198,14.585l-16.096,2.339
		C333.601,98.823,332.349,99.878,331.878,101.326z M354.435,103.879c1.303-0.189,2.429-1.008,3.012-2.188l4.542-9.203l4.541,9.202
		c0.583,1.181,1.709,1.999,3.012,2.188l10.156,1.476l-7.349,7.163c-0.942,0.919-1.373,2.243-1.15,3.541l1.734,10.115l-9.083-4.775
		c-0.583-0.306-1.222-0.459-1.861-0.459s-1.278,0.153-1.861,0.459l-9.084,4.775l1.735-10.115c0.223-1.298-0.208-2.622-1.15-3.541
		l-7.349-7.163L354.435,103.879z"/>
</g>
<g>
</g>
<g>
</g>
<g>
</g>
<g>
</g>
<g>
</g>
<g>
</g>
<g>
</g>
<g>
</g>
<g>
</g>
<g>
</g>
<g>
</g>
<g>
</g>
<g>
</g>
<g>
</g>
<g>
</g>
</svg>
