<?xml version="1.0" encoding="iso-8859-1"?>
<!-- Generator: Adobe Illustrator 18.0.0, SVG Export Plug-In . SVG Version: 6.00 Build 0)  -->
<!DOCTYPE svg PUBLIC "-//W3C//DTD SVG 1.1//EN" "http://www.w3.org/Graphics/SVG/1.1/DTD/svg11.dtd">
<svg version="1.1" id="Capa_1" xmlns="http://www.w3.org/2000/svg" xmlns:xlink="http://www.w3.org/1999/xlink" x="0px" y="0px"
	 viewBox="0 0 481.374 481.374" style="enable-background:new 0 0 481.374 481.374;" xml:space="preserve">
<path d="M480.202,254.304c1.005-1.004,1.401-2.466,1.042-3.84s-1.42-2.455-2.787-2.839c-8.9-2.503-23.978-11.103-39.94-20.206
	c-19.008-10.841-38.584-22.002-51.541-24.977l9.75-44.052c0.478-2.154-0.881-4.288-3.035-4.769l-63.857-14.234
	c-1.429-0.318-2.86-0.562-4.289-0.751c-6.065-26.606-29.81-45.614-57.588-45.614c-9.496,0-18.876,2.288-27.269,6.633
	c-8.392-4.346-17.772-6.633-27.269-6.633c-27.776,0-51.521,19.008-57.587,45.614c-1.429,0.189-2.86,0.433-4.289,0.751
	l-63.858,14.234c-2.154,0.48-3.512,2.614-3.035,4.769l9.75,44.052c-12.958,2.975-32.534,14.136-51.541,24.976
	c-15.963,9.104-31.04,17.703-39.941,20.207c-1.367,0.384-2.428,1.465-2.787,2.839c-0.359,1.374,0.038,2.835,1.042,3.84
	c16.852,16.852,52.983,32.421,87.155,32.42c1.919,0,3.829-0.062,5.733-0.163l-5.563,9.139c-0.815,1.339-0.772,3.03,0.108,4.327
	c0.74,1.089,18.587,26.903,59.098,46.406c5.961,2.87,12.319,4.282,18.631,4.281c7.788,0,15.5-2.159,22.304-6.37
	c4.863,7.501,12.082,15.317,21.633,23.398c13.968,11.819,27.716,19.748,28.294,20.08c0.617,0.354,1.303,0.53,1.99,0.53
	s1.374-0.177,1.99-0.53c0.578-0.332,14.324-8.261,28.29-20.08c9.6-8.124,16.845-15.981,21.708-23.519
	c6.851,4.292,14.636,6.491,22.5,6.491c6.312,0,12.671-1.412,18.632-4.281c40.509-19.502,58.357-45.316,59.097-46.406
	c0.881-1.297,0.923-2.988,0.108-4.327l-5.563-9.139c1.903,0.101,3.813,0.163,5.733,0.163
	C427.218,286.723,463.353,271.154,480.202,254.304z M365.963,251.482c-0.925-1.519-1.917-2.974-2.959-4.378
	c2.161-1.337,4.186-2.842,6.069-4.492c5.427,2.481,19.375,7.602,49.403,12.269c-19.351,2.591-44.012,0.058-50.901-0.751
	L365.963,251.482z M417.432,263.017l7.456,11.447c-3.703,0.973-7.473,1.8-11.28,2.461l-6.245-13.112
	C410.752,263.658,414.135,263.4,417.432,263.017z M426.087,261.648c3.793-0.789,7.311-1.823,10.42-3.134l7.061,9.619
	c-3.434,1.442-7,2.778-10.667,3.977L426.087,261.648z M436.513,249.303c-3.615-0.446-7.05-0.901-10.304-1.363l11.371-11.847
	c2.925,1.666,5.81,3.304,8.629,4.882L436.513,249.303z M416.533,246.469c-2.939-0.479-5.707-0.96-8.309-1.44l13.537-17.904
	c2.89,1.613,5.787,3.254,8.651,4.884L416.533,246.469z M399.501,243.3c-3.326-0.709-6.307-1.405-8.971-2.077l14.775-22.892
	c3.031,1.518,6.174,3.169,9.371,4.898L399.501,243.3z M398.389,264.014c0.069,0,0.138-0.001,0.207-0.001l6.708,14.083
	c-3.774,0.4-7.556,0.613-11.318,0.636l-7.141-14.996C390.486,263.904,394.383,264.014,398.389,264.014z M451,264.737l-7.803-10.628
	l10.494-9.014c5.882,3.171,11.326,5.913,16.034,7.88C464.565,257.17,458.183,261.179,451,264.737z M398.027,214.857l-15.575,24.132
	c-3.233-0.985-5.697-1.865-7.521-2.584c4.111-5.277,7.063-11.469,8.566-18.245l1.755-7.928
	C388.825,211.045,393.184,212.683,398.027,214.857z M388.052,160.561l-12.366,55.869c-2.32,10.462-8.811,19.243-17.978,24.507
	c-13.553-13.645-33.3-19.563-52.658-15.07c-1.85-6.1-4.823-11.895-8.86-17.223c3.593-3.622,5.756-8.463,6.014-13.614l1.061-21.202
	c0.093-1.851-1.099-3.524-2.879-4.041c-1.783-0.518-3.684,0.257-4.597,1.87l-6.413,11.319c-0.736,1.3-1.565,2.533-2.46,3.709
	c-1.115-5.136-3.783-9.697-7.487-13.169c7.282-19.408,28.164-30.888,48.664-26.321L388.052,160.561z M240.554,291.765
	c-18.222,0-35.04-7.154-46.141-19.351c9.803-3.39,18.84-8.701,26.581-15.665c11.685,8.246,27.434,8.246,39.119,0
	c7.74,6.964,16.777,12.275,26.581,15.665C275.593,284.611,258.776,291.765,240.554,291.765z M296.73,266.979
	c-12.695-2.872-24.306-9.218-33.576-18.353c-1.495-1.474-3.877-1.541-5.453-0.151c-9.774,8.618-24.518,8.619-34.293,0
	c-1.575-1.388-3.956-1.323-5.453,0.151c-9.271,9.135-20.882,15.481-33.576,18.353l-15.473,3.5
	c14.143-16.171,41.437-26.55,71.648-26.55s57.505,10.378,71.648,26.55L296.73,266.979z M181.798,241.078
	c0-10.056,3.37-19.655,9.76-27.948c2.352,0.999,4.867,1.572,7.427,1.659c1.246,9.413,5.882,18.007,12.868,24.239
	c-10.718,2.372-20.617,6.04-29.185,10.77C182.091,246.929,181.798,244.012,181.798,241.078z M201.599,192.093
	c0-9.634,7.843-17.473,17.482-17.473c9.327,0,16.949,7.352,17.427,16.563c-5.898,1.142-11.076,4.725-14.222,9.833
	c-1.801-0.658-3.69-1.145-5.663-1.39c-5.42-0.674-10.533-2.694-14.926-5.754C201.635,193.278,201.599,192.684,201.599,192.093z
	 M279.499,192.093c0,0.594-0.037,1.191-0.098,1.786c-4.391,3.056-9.5,5.073-14.917,5.747c-1.977,0.246-3.867,0.733-5.671,1.393
	c-3.144-5.108-8.319-8.693-14.214-9.835c0.478-9.211,8.099-16.563,17.427-16.563C271.661,174.621,279.499,182.459,279.499,192.093z
	 M294.214,194.631c-0.184,3.674-1.94,7.094-4.818,9.384c-2.879,2.291-6.607,3.231-10.227,2.586c-1.123-0.203-2.288,0.09-3.187,0.802
	c-0.898,0.711-1.449,1.774-1.511,2.919l-0.055,1.01c-0.584,10.796-6.754,20.55-16.176,25.751
	c-5.399-0.711-10.949-1.097-16.589-1.142c4.441-0.524,7.948-4.173,8.183-8.746l0.152-2.98c0.44-8.587,6.952-15.589,15.485-16.651
	c11.729-1.459,22.325-7.962,28.977-17.628L294.214,194.631z M240.554,198.78c4.594,0,8.818,2.369,11.263,6.116
	c-5.692,4.457-9.427,11.244-9.82,18.911l-0.152,2.98c-0.035,0.688-0.602,1.227-1.291,1.227c-0.688,0-1.256-0.539-1.291-1.226
	l-0.153-2.982c-0.393-7.669-4.13-14.458-9.826-18.915C231.731,201.147,235.956,198.78,240.554,198.78z M215.635,207.565
	c8.532,1.062,15.045,8.064,15.485,16.65l0.153,2.981c0.234,4.572,3.74,8.222,8.182,8.746c-5.64,0.045-11.19,0.43-16.589,1.142
	c-9.423-5.201-15.593-14.955-16.176-25.752l-0.055-1.009c-0.062-1.145-0.612-2.208-1.51-2.919s-2.058-1.003-3.187-0.802
	c-3.622,0.644-7.349-0.296-10.227-2.586s-4.635-5.71-4.818-9.384l-0.235-4.693C193.31,199.603,203.905,206.106,215.635,207.565z
	 M269.256,239.027c6.985-6.231,11.622-14.826,12.868-24.239c2.56-0.087,5.074-0.66,7.426-1.659c6.389,8.294,9.76,17.892,9.76,27.948
	c0,2.935-0.293,5.852-0.868,8.719C289.873,245.067,279.974,241.399,269.256,239.027z M242.661,107.684
	c6.784-3.849,14.401-6.089,22.197-6.561c-9.536,5.553-17.841,13.093-24.306,22.145c-6.475-9.058-14.786-16.603-24.323-22.155
	c7.896,0.434,15.617,2.674,22.484,6.571C239.937,108.378,241.437,108.378,242.661,107.684z M200.59,102.638
	c15.21,5.431,28.157,16.031,36.535,29.977c0.723,1.204,2.024,1.94,3.429,1.94c0,0,0.001,0,0.001,0c1.405,0,2.707-0.738,3.428-1.942
	c8.382-13.973,21.367-24.587,36.64-30.014c17.591,4.434,31.699,17.908,36.577,35.647c-19.261,0.716-36.969,12.594-44.568,30.697
	c-3.231-1.486-6.821-2.322-10.605-2.322c-9.014,0-16.944,4.711-21.473,11.796c-4.529-7.085-12.458-11.796-21.473-11.796
	c-3.698,0-7.21,0.798-10.384,2.22c-7.623-18.045-25.299-29.879-44.522-30.595C169.038,120.561,183.074,107.114,200.59,102.638z
	 M153.281,147.196c20.432-4.553,41.243,6.839,48.589,26.131c-3.808,3.492-6.55,8.124-7.686,13.349
	c-0.892-1.173-1.719-2.403-2.453-3.7l-6.413-11.319c-0.914-1.613-2.815-2.387-4.596-1.87c-1.78,0.517-2.972,2.189-2.879,4.041
	l1.06,21.202c0.258,5.151,2.422,9.992,6.015,13.614c-4.024,5.311-6.992,11.086-8.843,17.166
	c-19.279-4.385-38.915,1.541-52.409,15.127c-9.167-5.264-15.657-14.045-17.978-24.505l-12.366-55.871L153.281,147.196z
	 M115.412,251.482l-1.612,2.648c-6.889,0.809-31.545,3.341-50.901,0.751c30.028-4.667,43.975-9.788,49.403-12.269
	c1.883,1.65,3.908,3.156,6.069,4.492C117.329,248.507,116.336,249.963,115.412,251.482z M87.39,278.732
	c-3.762-0.023-7.545-0.236-11.319-0.636l6.708-14.084c0.068,0,0.138,0.001,0.206,0.001c4.006,0,7.903-0.11,11.546-0.279
	L87.39,278.732z M81.873,243.3l-15.175-20.071c3.197-1.728,6.34-3.379,9.371-4.897l14.775,22.892
	C88.18,241.895,85.199,242.591,81.873,243.3z M73.151,245.029c-2.602,0.48-5.37,0.961-8.309,1.44l-13.879-14.461
	c2.864-1.63,5.761-3.27,8.651-4.883L73.151,245.029z M55.166,247.94c-3.255,0.462-6.689,0.917-10.305,1.363l-9.696-8.329
	c2.819-1.578,5.705-3.216,8.629-4.882L55.166,247.94z M44.867,258.514c3.109,1.312,6.627,2.346,10.42,3.135l-6.814,10.461
	c-3.667-1.199-7.233-2.535-10.667-3.977L44.867,258.514z M63.943,263.017c3.296,0.383,6.679,0.641,10.07,0.796l-6.246,13.113
	c-3.807-0.661-7.577-1.489-11.281-2.461L63.943,263.017z M97.878,218.162c1.503,6.775,4.455,12.966,8.566,18.243
	c-1.825,0.719-4.288,1.598-7.521,2.583l-15.576-24.132c4.842-2.174,9.202-3.812,12.775-4.624L97.878,218.162z M27.683,245.094
	l10.494,9.015l-7.803,10.628c-7.183-3.558-13.566-7.567-18.726-11.763C16.357,251.006,21.801,248.265,27.683,245.094z
	 M96.414,278.389l7.25-15.226c1.777-0.139,3.416-0.284,4.896-0.424l-9.358,15.374C98.275,278.219,97.346,278.311,96.414,278.389z
	 M151.171,339.226c-32.072-15.44-49.456-35.359-54.434-41.678l25.508-41.907c10.901-17.909,31.73-26.665,52.085-22.025
	c-0.351,2.456-0.533,4.945-0.533,7.462c0,4.443,0.573,8.85,1.688,13.146c-8.394,5.781-15.05,12.72-19.293,20.525
	c-0.75,1.38-0.624,3.071,0.324,4.323c0.766,1.013,1.954,1.587,3.19,1.587c0.293,0,0.589-0.032,0.882-0.099l25.349-5.734
	c2.783,3.483,5.943,6.652,9.421,9.471c-9.185,10.614-14.208,23.96-14.208,38.071c0,4.81,1.202,9.805,3.585,14.966
	C174.681,343.704,162.107,344.49,151.171,339.226z M265.753,361.562c-10.406,8.819-20.948,15.536-25.217,18.141
	c-16.035-9.625-51.384-35.42-51.384-57.333c0-12.418,4.512-24.156,12.752-33.405c11.105,6.94,24.521,10.801,38.649,10.801
	c14.126,0,27.541-3.86,38.645-10.799c8.237,9.237,12.747,20.974,12.747,33.403C291.946,333.487,282.889,347.04,265.753,361.562z
	 M330.203,339.226c-11.011,5.302-23.688,4.47-33.779-2.023c2.343-5.114,3.522-10.064,3.522-14.834
	c0-14.121-5.021-27.466-14.203-38.068c3.479-2.82,6.641-5.99,9.424-9.474l25.35,5.734c1.535,0.347,3.125-0.235,4.073-1.488
	c0.947-1.252,1.074-2.944,0.324-4.324c-4.243-7.806-10.9-14.745-19.294-20.525c1.115-4.294,1.688-8.702,1.688-13.146
	c0-2.497-0.178-4.967-0.523-7.403c20.445-4.776,41.395,3.981,52.343,21.966l25.512,41.912
	C379.684,303.867,362.385,323.733,330.203,339.226z M372.815,262.739c1.48,0.141,3.119,0.285,4.896,0.424l7.249,15.225
	c-0.933-0.078-1.862-0.17-2.788-0.276L372.815,262.739z"/>
<g>
</g>
<g>
</g>
<g>
</g>
<g>
</g>
<g>
</g>
<g>
</g>
<g>
</g>
<g>
</g>
<g>
</g>
<g>
</g>
<g>
</g>
<g>
</g>
<g>
</g>
<g>
</g>
<g>
</g>
</svg>
