<?xml version="1.0" encoding="iso-8859-1"?>
<!-- Generator: Adobe Illustrator 18.0.0, SVG Export Plug-In . SVG Version: 6.00 Build 0)  -->
<!DOCTYPE svg PUBLIC "-//W3C//DTD SVG 1.1//EN" "http://www.w3.org/Graphics/SVG/1.1/DTD/svg11.dtd">
<svg version="1.1" id="Capa_1" xmlns="http://www.w3.org/2000/svg" xmlns:xlink="http://www.w3.org/1999/xlink" x="0px" y="0px"
	 viewBox="0 0 474.745 474.745" style="enable-background:new 0 0 474.745 474.745;" xml:space="preserve">
<g>
	<path d="M401.291,330.058c-2.897-6.556-9.152-10.502-16.296-10.283c-11.216,0.333-24.981,0.549-40.911,0.64
		c-0.233,0.001-0.465,0.002-0.697,0.002c-7.52,0-14.9-0.712-22.073-2.081c13.724-27.934,12.627-61.295-3.219-88.329l-7.068-12.057
		c-0.839-1.432-2.477-2.205-4.113-1.921c-1.637,0.274-2.934,1.532-3.26,3.16l-1.017,5.086c-5.102,25.51-20.926,47.05-43.602,59.534
		c-5.17-5.583-9.844-11.738-13.943-18.419c12.318-33.218,16.885-69.323,13.169-104.563l-1.187-11.314
		c-0.182-1.739-1.473-3.158-3.188-3.504c-1.716-0.348-3.454,0.462-4.296,1.995l-17.803,32.405c-0.575,1.046-1.191,2.065-1.831,3.067
		c1.728-8.899,4.518-17.641,8.356-26.115c14.4-31.745,46.691-51.968,81.698-50.72c6.122,0.21,12.097,2.945,16.393,7.505
		l56.473,59.93c1.536,1.629,4.159,1.713,5.801,0.026c1.175-1.208,1.38-3.061,0.675-4.591
		c-12.833-27.832-19.616-58.719-19.616-89.336c0-22.342,3.489-44.439,10.371-65.683l2.954-9.13c0.522-1.615,0.072-3.446-1.264-4.492
		c-1.865-1.46-4.47-1.016-5.768,0.823l-44.225,62.688c-3.702,5.248-9.534,8.846-16,9.871c-47.7,7.566-92.022,28.446-128.176,60.385
		c-7.742,6.853-15.117,14.214-21.92,21.88c-12.633,14.238-23.494,29.69-32.512,46.027c-0.686,1.244-4.005,7.53-4.903,9.33
		c-22.694,45.463-31.452,97.106-24.306,148.486l0.044,0.339c0.447,3.214,1.022,6.389,1.692,9.533
		c-9.68,8.573-23.715,10.798-35.61,5.446l-2.439-1.098c-1.419-0.641-3.079-0.397-4.256,0.62c-1.177,1.017-1.659,2.624-1.233,4.12
		c9.267,32.635,39.433,55.537,73.358,55.694l5.03,0.023c0.097,0.099,0.188,0.203,0.286,0.302
		c20.14,20.423,45.769,33.519,74.115,37.869c6.616,1.019,13.377,1.535,20.096,1.535c38.557,0,75.101-16.772,100.232-45.984
		c0.837-0.951,1.298-2.169,1.298-3.429c0-1.876-1.021-3.623-2.664-4.56c-1.633-0.933-3.585-0.91-5.222,0.057
		c-11.45,6.778-33.458,17.408-59.438,17.874c4.515-4.02,10.431-8.585,17.178-13.496l7.629,5.009
		c0.674,0.442,1.437,0.656,2.193,0.656c1.152,0,2.29-0.496,3.075-1.439l8.37-10.044l10.859,1.087
		c1.652,0.157,3.234-0.707,3.976-2.191l6.769-13.538l7.588,3.124c1.864,0.77,4.009,0.029,5.003-1.727l10.195-17.99l10.692-2.813
		c1.422-0.374,2.523-1.497,2.87-2.926l4.119-16.992c6.595-5.413,12.615-10.782,17.721-16.012
		C402.522,344.279,404.189,336.616,401.291,330.058z M309.334,230.882l1.859,3.171c14.81,25.266,15.533,56.58,2.087,82.457
		c-18.147-4.827-34.699-14.008-48.399-26.816C287.084,276.784,302.97,255.776,309.334,230.882z M327.057,82.154
		c8.587-1.361,16.345-6.157,21.285-13.16l30.018-42.55c-4.399,17.552-6.623,35.564-6.623,53.731c0,24.69,4.251,49.55,12.397,72.958
		l-41.908-44.473c-5.731-6.082-13.728-9.732-21.939-10.015c-1.086-0.037-2.171-0.056-3.253-0.056
		c-36.962,0-70.722,21.772-86.008,55.469c-5.917,13.068-9.511,26.742-10.706,40.668c-5.834,5.173-12.805,9.084-20.281,11.318
		c-2.116,0.636-4.255-0.658-4.781-2.689c-1.825-7.017-2.751-14.236-2.751-21.457c0-14.583,3.781-28.989,10.929-41.709
		C238.353,109.513,281.083,89.447,327.057,82.154z M147.252,212.23c0.634-1.449,1.34-2.867,2.094-4.257
		c8.899-16.403,19.708-31.901,32.346-46.145c2.268-2.556,4.622-5.06,7.014-7.538c-2.767,8.913-4.199,18.227-4.199,27.609
		c0,7.9,1.012,15.797,3.007,23.466c1.348,5.208,6.049,8.845,11.432,8.845c1.137,0,2.274-0.168,3.383-0.499
		c9.135-2.729,17.635-7.618,24.577-14.133c4.748-4.443,8.749-9.596,11.893-15.315l11.649-21.204
		c3.386,34.217-1.278,69.233-13.512,101.354c-1.946,5.099-4.056,10.089-6.27,14.834c-0.935,2.002-0.069,4.382,1.933,5.316
		c0.547,0.255,1.123,0.376,1.689,0.376c1.506,0,2.948-0.854,3.627-2.31c1.224-2.623,2.414-5.321,3.567-8.065
		c23.03,33.901,60.526,53.854,101.904,53.854c0.246,0,0.5-0.001,0.746-0.002c15.994-0.092,29.823-0.308,41.102-0.644
		c0.605-0.015,1.178,0.024,1.725,0.105c-9.848,12.26-21.156,22.711-33.674,31.094c-1.947,1.296-4.489,1.208-6.479-0.228
		c-5.379-3.873-11.769-5.92-18.477-5.92c-12.567,0-23.86,7.323-28.769,18.653c-1.185,2.729-1.947,5.582-2.279,8.521
		c-4.166,0.573-11.808,1.456-16.272,1.456c-7.333,0-14.729-0.656-21.984-1.951c-20.065-3.586-41.791-12.864-61.175-26.125
		c-21.332-14.593-38.023-32.724-48.271-52.432C134.939,272.791,134.153,242.174,147.252,212.23z M82.682,385.085
		c12.031,3.327,25.051,0.962,35.164-6.331c5.01,17.682,13.602,34.01,25.427,48.206C116.658,425.932,92.958,409.318,82.682,385.085z
		 M305.491,421.569l-2.065-1.356c2.489-1.759,5.047-3.548,7.668-5.367L305.491,421.569z M326.635,412.24l-10.229-1.023
		c-0.019-0.002-0.038,0-0.057-0.002c2.56-1.763,5.152-3.543,7.766-5.337c2.859-1.962,5.762-3.955,8.685-5.969L326.635,412.24z
		 M346.697,399.129l-7.763-3.196c-0.087-0.036-0.177-0.052-0.266-0.081c5.506-3.821,11.04-7.71,16.477-11.632L346.697,399.129z
		 M368.461,378.21l-7.926,2.086c3.079-2.264,6.11-4.536,9.07-6.807L368.461,378.21z M392.173,343.425
		c-17.429,18.003-46.731,38.113-72.584,55.855c-23.766,16.311-44.291,30.396-52.719,40.607c-0.951,1.152-1.181,2.738-0.595,4.113
		c0.585,1.374,1.888,2.309,3.378,2.421c22.527,1.708,42.829-4.268,57.612-10.756c-22.56,19.915-51.708,31.078-82.195,31.078
		c-6.313,0-12.664-0.485-18.88-1.442c-26.634-4.088-50.713-16.392-69.635-35.579c-18.922-19.188-30.887-43.438-34.595-70.088
		l-0.044-0.339c-4.946-35.562-2.031-71.247,8.044-104.784c-0.039,17.107,4.129,33.984,12.521,50.123
		c24.484,47.088,76.846,75.898,115.137,82.741c7.718,1.378,15.588,2.076,23.39,2.076c4.02,0,9.894-0.617,13.037-0.985
		c1.937-0.227,3.866-0.478,5.434-0.706c2.5-0.365,5.61-0.819,5.61-4.342c0-3.047,0.609-5.993,1.811-8.762
		c3.642-8.405,12.053-13.836,21.43-13.836c2.134,0,4.218,0.292,6.223,0.83c-0.953-0.249-1.947-0.396-2.977-0.396
		c-6.497,0-11.783,5.286-11.783,11.783s5.286,11.782,11.783,11.782s11.783-5.285,11.783-11.782c0-5.237-3.437-9.682-8.172-11.212
		c2.477,0.74,4.819,1.875,6.942,3.403c4.719,3.406,10.838,3.562,15.599,0.391c13.352-8.94,25.379-20.09,35.818-33.173
		c0.16,0.282,0.308,0.565,0.432,0.848C395.187,336.042,395.35,340.144,392.173,343.425z M335.357,373.04
		c0,2.086-1.697,3.782-3.783,3.782s-3.783-1.696-3.783-3.782s1.697-3.783,3.783-3.783S335.357,370.954,335.357,373.04z"/>
	<path d="M256.253,393.213c-0.678-2.103-2.932-3.26-5.035-2.578c-13.935,4.495-25.525,14.02-32.634,26.818l-2.712,4.881
		c-1.073,1.931-0.377,4.366,1.554,5.438c0.616,0.343,1.282,0.505,1.939,0.505c1.405,0,2.769-0.742,3.5-2.059l2.712-4.881
		c6.121-11.019,16.1-19.219,28.097-23.09C255.777,397.571,256.932,395.316,256.253,393.213z"/>
	<path d="M237.138,387.151c-0.678-2.103-2.933-3.259-5.035-2.578c-13.935,4.495-25.524,14.02-32.634,26.817l-2.712,4.882
		c-1.073,1.931-0.377,4.366,1.554,5.439c0.615,0.342,1.282,0.504,1.939,0.504c1.405,0,2.769-0.742,3.5-2.059l2.712-4.882
		c6.122-11.019,16.1-19.218,28.097-23.089C236.662,391.508,237.816,389.253,237.138,387.151z"/>
	<path d="M215.084,381.96c-0.678-2.103-2.934-3.26-5.035-2.578c-12.409,4.003-22.729,12.484-29.062,23.882l-2.393,4.308
		c-1.073,1.931-0.377,4.366,1.554,5.439c0.615,0.342,1.282,0.504,1.939,0.504c1.405,0,2.769-0.742,3.5-2.059l2.393-4.308
		c5.344-9.617,14.053-16.774,24.524-20.153C214.608,386.318,215.763,384.063,215.084,381.96z"/>
	<path d="M192.962,375.335c-0.74-2.082-3.025-3.172-5.108-2.431c-10.261,3.646-18.778,11.338-23.981,21.657l-1.942,3.852
		c-0.995,1.972-0.202,4.378,1.77,5.372c0.578,0.292,1.192,0.43,1.798,0.43c1.462,0,2.871-0.805,3.574-2.2l1.943-3.852
		c4.272-8.473,11.204-14.767,19.517-17.72C192.614,379.704,193.702,377.417,192.962,375.335z"/>
	<path d="M267.14,422.352c-1.779-1.307-4.283-0.926-5.592,0.853l-9.82,13.355c-2.303,3.132-3.219,7.121-2.512,10.944
		s2.987,7.221,6.257,9.323c0.669,0.431,1.418,0.636,2.159,0.636c1.316,0,2.604-0.648,3.369-1.837
		c1.194-1.858,0.657-4.333-1.202-5.527c-1.44-0.927-2.405-2.364-2.717-4.049c-0.311-1.684,0.076-3.371,1.091-4.751l9.82-13.354
		C269.301,426.165,268.919,423.661,267.14,422.352z"/>
	<path d="M241.235,455.417c-3.976-5.199-4.354-12.443-0.941-18.027c1.152-1.885,0.558-4.347-1.327-5.499
		c-1.885-1.15-4.347-0.558-5.499,1.327c-5.123,8.381-4.555,19.255,1.416,27.063l0.121,0.157c0.788,1.026,1.976,1.565,3.177,1.565
		c0.849,0,1.706-0.27,2.432-0.826c1.753-1.345,2.084-3.855,0.739-5.608L241.235,455.417z"/>
</g>
<g>
</g>
<g>
</g>
<g>
</g>
<g>
</g>
<g>
</g>
<g>
</g>
<g>
</g>
<g>
</g>
<g>
</g>
<g>
</g>
<g>
</g>
<g>
</g>
<g>
</g>
<g>
</g>
<g>
</g>
</svg>
