<?xml version="1.0" encoding="iso-8859-1"?>
<!-- Generator: Adobe Illustrator 18.0.0, SVG Export Plug-In . SVG Version: 6.00 Build 0)  -->
<!DOCTYPE svg PUBLIC "-//W3C//DTD SVG 1.1//EN" "http://www.w3.org/Graphics/SVG/1.1/DTD/svg11.dtd">
<svg version="1.1" id="Capa_1" xmlns="http://www.w3.org/2000/svg" xmlns:xlink="http://www.w3.org/1999/xlink" x="0px" y="0px"
	 viewBox="0 0 471.93 471.93" style="enable-background:new 0 0 471.93 471.93;" xml:space="preserve">
<g>
	<path d="M352.724,382.831c0.353,0,0.71-0.047,1.066-0.145c2.13-0.588,3.379-2.791,2.792-4.92
		c-3.352-12.145,2.195-22.383,2.294-22.563c1.081-1.919,0.406-4.353-1.512-5.441c-1.921-1.09-4.363-0.416-5.453,1.505
		c-0.3,0.53-7.312,13.15-3.041,28.626C349.36,381.667,350.97,382.831,352.724,382.831z"/>
	<path d="M387.263,439.538l-10.035-36.384c-4.525-16.397-6.248-33.303-5.119-50.26l0.308-4.815c0.083-1.386-0.059-2.744-0.415-4.018
		c-1.352-4.922-5.693-8.492-10.805-8.883c-1.692-0.128-3.127-1.278-3.658-2.938c-0.874-2.717-1.759-5.238-2.684-7.652
		c0.323-0.467,0.633-0.946,0.916-1.446c2.493-4.393,3.125-9.493,1.782-14.361c-2.324-8.423-10.031-13.923-18.381-13.858
		c-21.494-31.07-54.564-52.222-91.487-58.539v-6.511c5.102-0.393,9.665-2.963,12.666-7.198c3.269-4.612,4.07-10.316,2.197-15.65
		c0,0-10.327-29.4-13.911-39.604c-0.68-1.934-1.193-3.913-1.698-5.901c-2.66-10.471-12.164-18.241-23.451-18.241h-4.217v-17.227
		c4.28-0.779,8.373-2.81,11.675-6.111l0,0c4.188-4.187,6.494-9.754,6.494-15.675c0-5.922-2.306-11.489-6.493-15.676L218.1,75.742
		c-0.75-0.75-1.768-1.171-2.829-1.171s-2.078,0.421-2.829,1.171l-12.847,12.847c-8.643,8.644-8.643,22.708,0,31.352
		c3.302,3.302,7.396,5.332,11.676,6.111v17.227h-11.841c-9.155,0-17.68,5.309-21.718,13.526l-3.752,7.637
		c-2.172,4.421-2.197,9.684,0.247,13.961c1.934,3.386,5.04,5.776,8.643,6.796v55.751c-34.065,10.798-62.439,33.927-80.121,65.405
		c-18.192,32.386-22.944,69.842-13.393,105.421c0.12,0.47,0.439,1.628,0.439,1.628c6.596,23.912,23.644,42.766,46.772,51.726
		c23.134,8.963,48.44,6.516,69.428-6.713l17.993-11.331c3.174-2.001,6.592-3.517,10.159-4.504
		c20.034-5.53,40.848,6.315,46.399,26.41c0.49,1.773,2.099,2.936,3.853,2.936c0.353,0,0.71-0.047,1.066-0.145l99.023-27.327
		C386.6,443.87,387.85,441.667,387.263,439.538z M247.686,188.838l7.315,20.836c1.002,2.854,0.574,5.906-1.176,8.374
		c-1.479,2.087-3.67,3.41-6.139,3.772V188.838z M205.253,114.283c-5.524-5.524-5.524-14.513,0-20.037l10.019-10.019l10.019,10.019
		c2.676,2.676,4.15,6.234,4.15,10.019c0,3.784-1.474,7.342-4.15,10.019c-2.676,2.676-6.234,4.15-10.018,4.15
		C211.487,118.433,207.929,116.959,205.253,114.283z M181.098,174.333c-1.049-1.918-0.991-4.256-0.027-6.218l3.822-7.781
		c2.723-5.543,8.362-9.056,14.538-9.056h24.058c8.945,0,16.197,7.251,16.197,16.197v101.37c-9.755-0.625-19.725,2.738-27.221,10.12
		c-5.24,5.16-12.207,7.951-19.528,7.916c-0.7-0.005-1.395-0.045-2.086-0.102V176.334c0-2.089-1.527-3.955-3.607-4.153
		c-2.386-0.228-4.393,1.643-4.393,3.981v0.235C182.155,175.854,181.554,175.167,181.098,174.333z M275.131,430.38
		c-2.218,3.908-2.781,8.446-1.585,12.778l0.298,1.082c-6.082-5.192-13.462-8.732-21.367-10.218c3.367-2.625,6.217-5.912,8.387-9.737
		c4.343-7.653,5.445-16.538,3.104-25.02c-0.588-2.129-2.793-3.377-4.92-2.792c-2.13,0.588-3.379,2.791-2.792,4.92
		c1.772,6.422,0.938,13.149-2.351,18.943c-3.288,5.794-8.635,9.96-15.057,11.732c-0.371,0.103-0.742,0.195-1.11,0.28
		c-7.506,1.712-15.007-0.452-20.582-5.935c-5.708-5.614-8.135-13.617-6.494-21.408c3.799-18.034-1.63-36.662-14.522-49.831
		c-1.545-1.578-4.077-1.605-5.657-0.06c-1.579,1.545-1.605,4.078-0.06,5.657c11.018,11.254,15.658,27.173,12.411,42.585
		c-2.207,10.473,1.05,21.225,8.712,28.76c3.082,3.032,6.683,5.315,10.555,6.796c-0.81,0.446-1.612,0.91-2.398,1.406l-17.993,11.331
		c-18.827,11.866-41.525,14.061-62.274,6.022c-20.744-8.037-36.034-24.947-41.935-46.337c0,0-0.312-1.134-0.427-1.585
		c-9.019-33.595-4.533-68.923,12.629-99.476c16.26-28.948,42.1-50.405,73.146-60.901v35.518c-3.457-1.392-6.625-3.487-9.318-6.222
		c-1.551-1.574-4.083-1.592-5.657-0.043c-1.574,1.55-1.593,4.083-0.043,5.657c6.942,7.049,16.126,10.582,25.316,10.582
		c9.007,0,18.02-3.395,24.93-10.2c10.813-10.652,28.28-10.52,38.932,0.296c1.55,1.574,4.083,1.593,5.657,0.042
		s1.593-4.083,0.042-5.657c-4.32-4.385-9.508-7.408-15.024-9.067v-25.764c33.704,6.133,63.906,25.39,83.928,53.55
		c-0.278,0.757-0.339,1.601-0.108,2.437c0.588,2.129,2.79,3.379,4.92,2.792c5.798-1.601,11.815,1.815,13.416,7.613
		c0.775,2.809,0.41,5.75-1.028,8.285c-1.438,2.534-3.776,4.356-6.585,5.131c-0.55,0.152-1.529,0.305-2.665,0.484l-47.74-27.091
		c-1.166-0.661-2.585-0.694-3.78-0.09c-6.834,3.459-12.449,8.816-16.237,15.492c-5.127,9.036-6.43,19.527-3.666,29.542
		c2.764,10.015,9.262,18.354,18.298,23.482c5.934,3.367,12.494,5.084,19.136,5.084c3.473,0,6.968-0.47,10.407-1.419
		c10.015-2.763,18.354-9.262,23.482-18.297c3.398-5.989,5.116-12.695,5.051-19.527c1.39-0.396,2.703-0.952,3.94-1.632
		c0.495,1.393,0.984,2.826,1.468,4.33c1.525,4.772,5.715,8.099,10.669,8.473c1.751,0.134,3.237,1.35,3.702,3.042
		c0.122,0.435,0.168,0.908,0.14,1.388l-0.307,4.788c-1.114,16.746,0.415,33.454,4.544,49.715c-2.979-0.881-6.147-0.934-9.215-0.088
		c-4.332,1.195-7.938,4.006-10.156,7.914c-0.229,0.403-0.429,0.817-0.622,1.232c-0.379-0.257-0.763-0.51-1.166-0.739
		c-3.908-2.218-8.445-2.781-12.778-1.586c-4.949,1.365-8.763,4.823-10.773,9.15c-0.381-0.259-0.767-0.513-1.172-0.742
		c-3.908-2.217-8.445-2.78-12.778-1.585c-4.332,1.195-7.938,4.006-10.156,7.914c-0.23,0.405-0.43,0.82-0.625,1.237
		c-3.944-2.684-8.991-3.695-13.941-2.329C280.956,423.661,277.349,426.471,275.131,430.38z M336.531,332.284
		c0.012,5.345-1.364,10.587-4.026,15.278c-8.409,14.815-27.303,20.03-42.118,11.622c-7.177-4.073-12.339-10.697-14.534-18.652
		s-1.161-16.289,2.912-23.466c2.661-4.69,6.456-8.56,11.051-11.291L336.531,332.284z M287.312,462.971l-6.054-21.942
		c-0.627-2.272-0.332-4.652,0.832-6.702c1.163-2.049,3.055-3.523,5.327-4.15c4.689-1.294,9.558,1.469,10.852,6.158l6.055,21.941
		L287.312,462.971z M312.034,456.149l-6.055-21.941c-1.294-4.69,1.468-9.558,6.158-10.852c4.688-1.295,9.559,1.468,10.853,6.158
		l6.054,21.94L312.034,456.149z M336.757,449.326l-6.054-21.94c-1.294-4.69,1.468-9.559,6.158-10.853
		c4.688-1.292,9.558,1.468,10.852,6.158l6.054,21.94L336.757,449.326z M361.479,442.503l-6.054-21.94
		c-0.627-2.272-0.332-4.652,0.832-6.701c1.163-2.05,3.055-3.524,5.327-4.151c2.271-0.627,4.651-0.332,6.702,0.832
		c2.049,1.163,3.523,3.055,4.15,5.327l1.47,5.329l4.581,16.611L361.479,442.503z"/>
	<path d="M221.157,260.662c6.83,0,12.386-5.556,12.386-12.385v-76.271c0-2.209-1.791-4-4-4s-4,1.791-4,4v76.271
		c0,2.418-1.967,4.385-4.386,4.385c-2.418,0-4.385-1.967-4.385-4.385v-36.766c0-2.209-1.791-4-4-4s-4,1.791-4,4v36.766
		C208.772,255.105,214.328,260.662,221.157,260.662z"/>
	<path d="M215.272,65.04c2.209,0,4-1.791,4-4V4c0-2.209-1.791-4-4-4s-4,1.791-4,4v57.04C211.272,63.249,213.063,65.04,215.272,65.04
		z"/>
	<path d="M185.688,73.263c0.791,0.943,1.924,1.429,3.066,1.429c0.907,0,1.82-0.307,2.569-0.936c1.692-1.42,1.913-3.943,0.493-5.635
		l-36.664-43.695c-1.42-1.692-3.943-1.913-5.635-0.493c-1.692,1.42-1.913,3.943-0.493,5.635L185.688,73.263z"/>
	<path d="M253.001,119.46c-1.914-1.105-4.36-0.45-5.464,1.464c-1.105,1.913-0.449,4.359,1.464,5.464l49.398,28.52
		c0.63,0.364,1.317,0.537,1.996,0.537c1.382,0,2.727-0.717,3.468-2c1.105-1.913,0.449-4.359-1.464-5.464L253.001,119.46z"/>
	<path d="M117.774,89.167l56.173,9.905c0.235,0.041,0.469,0.061,0.7,0.061c1.904,0,3.592-1.365,3.935-3.306
		c0.383-2.176-1.069-4.25-3.245-4.634l-56.173-9.905c-2.176-0.378-4.25,1.068-4.634,3.245
		C114.146,86.708,115.599,88.783,117.774,89.167z"/>
	<path d="M251.962,95.827c0.342,1.94,2.03,3.306,3.935,3.306c0.231,0,0.464-0.02,0.7-0.061l56.173-9.905
		c2.175-0.384,3.628-2.458,3.245-4.634c-0.384-2.176-2.461-3.624-4.634-3.245l-56.173,9.905
		C253.032,91.576,251.579,93.651,251.962,95.827z"/>
	<path d="M177.542,119.46l-49.397,28.52c-1.913,1.104-2.569,3.551-1.464,5.464c0.741,1.283,2.085,2,3.468,2
		c0.678,0,1.366-0.173,1.996-0.537l49.397-28.52c1.913-1.104,2.569-3.551,1.464-5.464
		C181.902,119.012,179.456,118.355,177.542,119.46z"/>
	<path d="M241.789,74.692c1.141,0,2.275-0.486,3.066-1.429l36.665-43.695c1.42-1.692,1.2-4.215-0.493-5.635
		s-4.216-1.201-5.635,0.493l-36.665,43.695c-1.42,1.692-1.2,4.215,0.493,5.635C239.969,74.385,240.881,74.692,241.789,74.692z"/>
</g>
<g>
</g>
<g>
</g>
<g>
</g>
<g>
</g>
<g>
</g>
<g>
</g>
<g>
</g>
<g>
</g>
<g>
</g>
<g>
</g>
<g>
</g>
<g>
</g>
<g>
</g>
<g>
</g>
<g>
</g>
</svg>
