<?xml version="1.0" encoding="iso-8859-1"?>
<!-- Generator: Adobe Illustrator 18.0.0, SVG Export Plug-In . SVG Version: 6.00 Build 0)  -->
<!DOCTYPE svg PUBLIC "-//W3C//DTD SVG 1.1//EN" "http://www.w3.org/Graphics/SVG/1.1/DTD/svg11.dtd">
<svg version="1.1" id="Capa_1" xmlns="http://www.w3.org/2000/svg" xmlns:xlink="http://www.w3.org/1999/xlink" x="0px" y="0px"
	 viewBox="0 0 484.246 484.246" style="enable-background:new 0 0 484.246 484.246;" xml:space="preserve">
<g>
	<polygon points="410.815,134.896 415.852,113.859 418.847,114.857 421.376,107.267 406.803,102.41 404.273,110 408.235,111.32 
		403.036,133.033 	"/>
	<polygon points="349.274,213.022 345.549,212.07 349.996,198.73 342.406,196.201 337.779,210.082 334.353,209.206 332.37,216.956 
		347.292,220.772 	"/>
	<path d="M476.732,161.739l-1.093,2.987l-9.654-3.803l-0.943-31.116c-0.001-0.027-0.017-0.049-0.02-0.075
		c-0.05-0.988-0.446-1.929-1.15-2.632l-10.944-10.944l9.158-3.458l1.143,2.938l7.455-2.9l-4.858-12.491l-7.455,2.9l0.816,2.097
		l-12.466,4.707l-31.773-31.773c-0.762-0.763-1.828-1.202-2.878-1.172c-1.078,0.014-2.105,0.462-2.849,1.243l-5.929,6.233
		l-5.168-7.881c-1.166-1.779-3.521-2.335-5.36-1.262l-5.409,3.156l-1.936-3.411l-6.957,3.949l7.287,12.839l6.957-3.949l-1.402-2.47
		l2.212-1.291l4.114,6.273l-45.948,48.306l-1.124-2.563c-0.678-1.548-2.251-2.502-3.941-2.384l-11.081,0.773l-0.264-4.314
		l-7.984,0.488l1.041,17.003l7.984-0.488l-0.288-4.704l8.339-0.582l1.34,3.055l-37.014,38.913l-5.543-9.125l5.427-2.99l-3.861-7.006
		l-17.003,9.368l3.861,7.007l4.562-2.514l6.844,11.267l-60.082,63.165c-0.152-0.24-0.31-0.477-0.462-0.717
		c-7.714-12.192-16.143-24.097-25.054-35.422c1.605-4.471,4.28-8.393,7.798-11.471l6.282,2.315l1.716-4.657l5.548,4.161l4.801-6.4
		l-2.954-2.215c5.684-0.646,11.466,0.477,16.655,3.361l3.885-6.994c-7.299-4.054-15.509-5.403-23.471-4.026l0.298-0.81l-7.506-2.766
		l-1.048,2.845l-4.366-3.274l-4.801,6.4l3.871,2.903c-5.282,3.403-9.509,8.071-12.354,13.598
		c-5.816-7.106-11.924-14.096-18.24-20.865l0.213-7.199c0.201-6.801-3.122-13.015-8.89-16.623
		c-5.038-3.152-11.052-3.757-16.511-1.755l-24.58-24.58c0.734-3.988,0.298-8.047-1.245-11.759l3.978,0.131l-0.039-8l-6.984-0.116
		l0.653-9.629L132.105,109l-0.467,6.88c-3.85-1.765-8.174-2.317-12.481-1.531L99.774,94.965c1.152-6.26-0.567-12.707-4.934-17.687
		c-5.015-5.717-12.403-8.226-19.72-6.862c-14.817-13.15-37.577-12.635-51.767,1.555L11.064,84.27C3.929,91.405,0,100.891,0,110.978
		c0,9.351,3.381,18.18,9.556,25.103l-0.307,1.498c-1.282,6.245,1.085,12.509,6.178,16.346c2.916,2.197,6.351,3.316,9.815,3.315
		c1.568,0,3.142-0.233,4.677-0.695l23.627,23.631c-1.721,6.493-0.284,13.427,4.07,18.762c4.091,5.015,10.078,7.8,16.35,7.8
		c1.565,0,3.149-0.174,4.725-0.53l0.727-0.164l6.931,6.936l-5.572,1.448c-3.609,0.937-7.234,1.286-10.774,1.11l1.622-3.081
		l-7.08-3.727l-1.717,3.263l-4.789-5.07l-4.057,3.831c-5.495-3.226-10.136-7.966-13.288-13.911l2.803-0.981l-2.643-7.551
		l-2.182,0.764l0.966-5.556l-7.881-1.371l-0.021,0.12c-6.347-7.015-14.894-11.855-24.5-13.57l-1.406,7.875
		c9.82,1.754,18.287,7.507,23.552,15.754l-7.035,2.462l2.643,7.551l3.467-1.214l-0.401,5.49l7.881,1.371l0.045-3.446
		c5.374,7.995,13.124,13.803,21.934,16.783l-2.625,4.987l7.08,3.727l2.324-4.416l3.257,3.448l5.816-5.492l-0.045-0.048
		c3.005-0.139,6.04-0.574,9.065-1.36l10.126-2.632l4.582,4.584c-1.077,4.057-0.922,8.284,0.413,12.188l-7.234-1.275l-1.389,7.879
		l11.387,2.007l-0.577,9.354l7.984,0.508l0.385-6.348c2.914,1.469,6.141,2.251,9.449,2.251c1.565,0,3.148-0.173,4.725-0.529
		l0.823-0.186c2.351,2.261,4.728,4.495,7.121,6.693l-0.156,2.136c-0.473,6.471,1.95,12.748,6.648,17.222
		c4.053,3.859,9.36,5.963,14.876,5.962c0.88,0,1.766-0.053,2.651-0.161c1.676-0.205,3.332-0.477,4.97-0.798
		c6.786,5.225,13.857,10.32,21.084,15.204c-3.408,5.183-7.729,9.551-12.658,12.968l-6.3-3.301l-2.324,4.437l-5.313-3.583
		l-4.473,6.633l3.886,2.621c-7.706,2.141-15.997,2.38-24.142,0.379l-3.851-0.947l-1.91,7.768l3.851,0.948
		c4.414,1.085,8.862,1.608,13.265,1.608c3.79,0,7.543-0.391,11.206-1.143l-0.373,0.712l7.086,3.713l3.707-7.077l7.17,4.835
		l4.473-6.633l-4.003-2.7c6.828-4.192,12.795-9.871,17.361-16.801c1.41,0.919,2.806,1.819,4.169,2.682
		c0.788,0.499,1.53,0.973,2.252,1.437l-73.766,77.551c-1.495,1.572-1.465,4.051,0.07,5.585l34.085,34.085
		c0.769,0.77,1.775,1.157,2.786,1.168c0.006,0,0.011,0.004,0.017,0.004l20.952,0.133c0.009,0,0.017,0,0.025,0
		c0.986,0,1.938-0.364,2.672-1.023l75.953-68.163c2.552,2.421,5.097,4.879,7.591,7.372l39.078,39.077
		c-1.22,2.17-1.869,4.624-1.869,7.175c0,3.919,1.531,7.607,4.312,10.388c3.342,3.342,7.776,5.183,12.488,5.183
		c4.718,0,9.156-1.841,12.498-5.183l26.603-26.602c6.875-6.888,6.875-18.095-0.003-24.984c-2.78-2.78-6.469-4.312-10.388-4.312
		c-2.551,0-5.005,0.649-7.175,1.869l-39.077-39.077c-1.825-1.826-3.641-3.689-5.445-5.56l107.01-96.034l7.008,3.06l-1.27,2.424
		l7.086,3.713l7.634-14.573l-7.086-3.713l-2.642,5.044l-4.186-1.827l25.471-22.859l2.8,7.382l-3.897,1.299l2.529,7.59l15.615-5.205
		l-2.529-7.59l-4.122,1.374l-4.013-10.579l22.823-20.482l9.512,3.747l-1.363,3.724l7.514,2.748l5.205-14.227L476.732,161.739z
		 M351.906,159.167l7.326-3.213l-4.066-9.271l57.025-59.951l43.125,43.125l-233.641,222.24l-37.051-15.577l-5.037-5.25
		l169.601-178.302L351.906,159.167z M210.117,363.091l-11.538-12.026l16.77,7.05L210.117,363.091z M204.32,368.605l-11.92,11.339
		l-29.642-30.981l11.309-11.889L204.32,368.605z M186.603,385.458l-4.244,4.037c-0.112-0.093-0.215-0.196-0.337-0.276l-35.42-23.272
		l10.635-11.18L186.603,385.458z M176.441,395.123l-2.401,2.283l-6.104-7.871L176.441,395.123z M182.222,400.665l4.928,4.976
		l-3.964,3.558l-4.218-5.439L182.222,400.665z M188.02,395.151l4.202-3.997l5.215,5.257l-4.325,3.881L188.02,395.151z
		 M198.02,385.639l8.917-8.482l1.126,9.717l-4.665,4.187L198.02,385.639z M214.191,370.257l5.183-4.93l1.052,10.452l-5.068,4.548
		L214.191,370.257z M196.435,242.523l-7.785,1.84l1.585,6.708l-5.851-0.936l-1.264,7.9l4.231,0.677
		c-7.321,6.45-16.145,11.2-25.85,13.681c-8.206-6.415-16.308-13.236-24.096-20.322c-4.849-4.414-9.658-9.004-14.295-13.641
		l-16.276-16.282l10.438-23.112l19.596-10.253l-0.368,1.011l7.518,2.734l2.159-5.937l5.191,3.671l4.619-6.531l-4.024-2.846
		l14.719-7.701l10.842,10.842c2.991,2.991,6.021,6.117,9.004,9.292c7.701,8.188,15.092,16.729,22.026,25.408
		c-0.001,0.007-0.004,0.014-0.005,0.021l-1.439,6.524c-1.772,8.033-5.07,15.455-9.56,21.969L196.435,242.523z M151.388,172.159
		l-7.483-2.722l-1.663,4.573l-5.224-3.695l-4.619,6.531l4.265,3.016l-14.052,7.352l18.075-40.024l20.068,20.068L151.388,172.159z
		 M180.572,172.032c3.125,1.956,4.985,5.24,5.111,8.882c-0.835-0.849-1.672-1.712-2.503-2.543l-8.013-8.013
		C177.043,170.427,178.901,170.986,180.572,172.032z M132.776,126.504c1.039,1.185,1.833,2.484,2.387,3.85l-7.481-7.481
		C129.581,123.626,131.32,124.843,132.776,126.504z M100.704,107.207l2.386,2.386l-12.071,6.312l4.177-9.25L100.704,107.207z
		 M88.826,82.554c1.04,1.185,1.834,2.485,2.388,3.851l-7.48-7.48C85.631,79.677,87.37,80.894,88.826,82.554z M16.722,89.926
		l12.289-12.299c11.613-11.611,30.504-11.607,42.113,0l19.567,19.567l-0.419,0.928l-6.983-0.699l-0.797,7.961l4.305,0.431
		l-7.271,16.1L48.576,138.1l0.719-2.877l-7.762-1.939l-0.622,2.487l-3.305-1.794l-3.816,7.031l4.526,2.457l-6.673,3.49
		l-14.922-14.924C5.113,120.423,5.113,101.535,16.722,89.926z M68.05,147.328l-0.632-1.137l-6.994,3.885l2.253,4.055l-4.472,1.883
		l2.857,6.787l-4.224,9.353l-19.267-19.27l1.2-0.627l5.899,1.474l1.311-5.244l0.808-0.422l3.196,1.735l2.582-4.756l21.624-11.308
		L68.05,147.328z M20.24,147.535c-1.191-0.898-2.067-2.034-2.628-3.299l4.242,4.243C21.298,148.223,20.753,147.921,20.24,147.535z
		 M63.815,193.882c-1.537-1.884-2.488-4.038-2.843-6.278l10.986,10.988C68.821,198.115,65.951,196.499,63.815,193.882z
		 M83.352,198.672l-20.467-20.47l5.903-13.071l0.89,1.602l6.994-3.885l-2.67-4.805l4.888-2.058l-2.881-6.844l9.671-21.415
		l23.337-12.204l25.622,25.622l-23.522,52.085l-21.799,11.405l-5.799-5.803C83.466,198.776,83.409,198.723,83.352,198.672z
		 M96.775,212.095l-1.531-1.532l10.535-5.512l-4.99,11.05l-3.838-3.839C96.895,212.203,96.836,212.148,96.775,212.095z
		 M107.766,237.831c-1.538-1.885-2.489-4.04-2.844-6.281l10.988,10.992C112.771,242.067,109.901,240.449,107.766,237.831z
		 M138.901,264.107c3.836,3.344,7.729,6.614,11.658,9.802c-2.96-0.307-5.758-1.58-7.964-3.679
		C140.81,268.53,139.557,266.412,138.901,264.107z M195.764,296.59c-2.422-1.534-4.943-3.173-7.501-4.875
		c-6.46-4.282-12.808-8.751-18.954-13.336c8.947-3.135,17.096-8.013,24.01-14.263l1.346,5.693l7.785-1.84l-1.681-7.111l5.484,0.877
		l1.264-7.9l-4.354-0.697c5.561-7.669,9.636-16.514,11.76-26.144l0.023-0.104c7.324,9.607,14.281,19.589,20.725,29.772
		c0.509,0.806,1.033,1.606,1.55,2.41l-37.871,39.814C198.229,298.159,197.043,297.399,195.764,296.59z M128.457,385.023L141,371.837
		l6.295,4.136l20.92,26.975l-11.189,10.643L128.457,385.023z M166.898,415.241l6.244-5.939l4.075,5.254l-0.83,0.745L166.898,415.241
		z M294.935,330.687l41.52,41.52c1.563,1.563,4.094,1.562,5.656,0.001c1.27-1.27,2.95-1.969,4.732-1.969s3.462,0.699,4.729,1.966
		c3.765,3.771,3.765,9.907,0.003,13.676l-26.6,26.6c-1.831,1.831-4.261,2.839-6.842,2.839c-2.574,0-5.001-1.008-6.832-2.839
		c-1.269-1.27-1.968-2.949-1.968-4.731s0.699-3.463,1.969-4.732c0.007-0.007,0.011-0.015,0.017-0.021l17.908-17.908
		c1.563-1.562,1.563-4.095,0-5.656c-1.561-1.563-4.096-1.563-5.656,0l-15.1,15.1l-38.691-38.69
		c-2.391-2.391-4.829-4.749-7.275-7.077l26.684-23.947C291.091,326.793,293.008,328.761,294.935,330.687z M437.513,180.957
		l-2.916-7.686l-7.48,2.838l4.012,10.577l-30.487,27.36l-9.813-4.285l-3.201,7.332l6.47,2.825L227.8,369.161l-1.088-10.814
		l230.606-219.352l0.568,18.737l-1.955-0.77l-2.932,7.443l2.055,0.81L437.513,180.957z"/>
	<path d="M293.159,241.593l14.922,3.817l1.982-7.75l-4.485-1.147l0.361-2.166l9.913-1.34c1.065-0.144,2.027-0.71,2.671-1.571
		c0.643-0.861,0.911-1.945,0.746-3.008l-2.429-15.615l-7.904,1.23l1.801,11.582l-8.794,1.188c-1.739,0.234-3.122,1.575-3.41,3.307
		l-0.734,4.403l-2.658-0.68L293.159,241.593z"/>
	<polygon points="387.915,166.955 395.712,164.691 396.046,166.584 403.925,165.193 401.843,153.395 393.964,154.786 
		394.313,156.766 385.685,159.271 	"/>
</g>
<g>
</g>
<g>
</g>
<g>
</g>
<g>
</g>
<g>
</g>
<g>
</g>
<g>
</g>
<g>
</g>
<g>
</g>
<g>
</g>
<g>
</g>
<g>
</g>
<g>
</g>
<g>
</g>
<g>
</g>
</svg>
